<?xml version="1.0" encoding="utf-8"?>
<!-- Generator: Adobe Illustrator 22.1.0, SVG Export Plug-In . SVG Version: 6.00 Build 0)  -->
<svg version="1.1" id="Layer_1" xmlns="http://www.w3.org/2000/svg" xmlns:xlink="http://www.w3.org/1999/xlink" x="0px" y="0px"
	 viewBox="0 0 798.453 797.16" enable-background="new 0 0 798.453 797.16" xml:space="preserve">
<g>
	<path d="M0,384.16c0.325-1.781,0.893-3.556,0.939-5.344c0.683-26.689,4.887-52.882,11.646-78.637
		c3.791-14.444,8.522-28.641,13.048-43.676c14.926,13.438,30.541,23.376,48.207,30.267c6.933,2.704,9.43,10.235,9.84,16.732
		c0.843,13.34,0.009,26.783-0.035,40.183c-0.044,13.45,0.031,26.901,0.07,40.352c0.002,0.827,0.159,1.652,0.224,2.48
		c1.673,21.45,3.084,42.924,5.079,64.343c2.541,27.284,8.194,54.052,15.493,80.405c10.38,37.474,28.229,71.334,51.475,102.425
		c19.882,26.591,42.37,50.807,67.986,71.857c14.822,12.18,20.522,27.584,20.984,45.835c0.118,4.657,0.018,9.319,0.018,15.062
		c-9.113-4.279-17.76-8.095-26.189-12.345c-25.479-12.844-49.304-28.329-71.39-46.357c-19.994-16.319-38.243-34.433-54.803-54.317
		c-21.916-26.316-40.173-54.886-54.706-85.84c-13.762-29.312-23.856-59.833-29.967-91.685c-3.742-19.503-6.55-39.075-7.002-58.953
		c-0.029-1.268-0.598-2.525-0.915-3.786C0,403.493,0,393.826,0,384.16z"/>
	<path d="M377,797.16c-5.374-0.662-10.73-1.565-16.124-1.946c-26.917-1.901-53.05-7.755-78.809-15.474
		c-6.934-2.078-13.723-4.635-20.604-6.897c-2.519-0.828-3.678-2.164-3.534-5.05c0.265-5.316,0.482-10.694-0.027-15.974
		c-0.66-6.844,2.288-11.996,6.951-16.178c1.771-1.588,5.015-2.493,7.434-2.24c12.942,1.355,25.795,3.67,38.755,4.703
		c15.046,1.199,30.186,2.169,45.255,1.846c15.368-0.33,30.712-2.225,46.042-3.686c7.702-0.734,15.337-2.156,23.03-3.011
		c4.069-0.453,7.274,1.647,8.691,5.32c1.929,5.001,3.764,10.16,4.651,15.418c2.241,13.294,5.802,26.035,13.009,37.572
		c0.33,0.528,0.353,1.247,0.647,2.363c-8.322,0.755-16.459,1.466-24.588,2.25c-2.27,0.219-4.519,0.651-6.777,0.985
		C406.333,797.16,391.667,797.16,377,797.16z"/>
	<path d="M367.697,616.602c1.548-11.544,3.002-22.325,4.428-33.109c0.165-1.246,0.648-2.729,0.187-3.737
		c-5.792-12.652-9.331-26.27-20.274-36.429c-12.175-11.303-23.567-23.581-34.19-36.357c-4.158-5.001-6.008-12.34-7.585-18.931
		c-1.183-4.942-0.833-10.486,0-15.571c0.397-2.424,3.164-4.921,5.474-6.458c3.111-2.071,6.954-3.004,10.239-4.86
		c6.37-3.598,11.783-1.508,16.9,2.443c13.167,10.164,21.724,24.074,29.744,38.164c8.729,15.335,12.265,32.537,15.327,49.729
		c2.217,12.449,2.375,24.863-0.816,37.316c-4.91,19.164-17.315,31.554-34.783,39.338c-7.423,3.307-14.455,8.172-23.373,6.998
		c-15.767-2.075-29.191-8.896-40.905-19.428c-18.55-16.679-31.958-37.21-42.749-59.332c-10.764-22.064-21.144-44.412-29.906-67.319
		c-5.237-13.69-7.703-28.579-10.194-43.138c-2.253-13.172-3.824-26.621-3.898-39.958c-0.072-12.977,1.359-26.205,8.665-37.671
		c2.543-3.991,5.949-7.433,9.626-11.94c2.109,4.718,3.622,8.472,5.468,12.053c0.775,1.504,2.024,3.07,3.467,3.859
		c3.041,1.662,6.658,4.418,9.49,3.873c6.04-1.161,10.988-5.024,14.275-10.64c4.076-6.964,2.939-14.339,2.214-21.963
		c11.118-2.126,21.448,1.349,31.409,5.769c18.578,8.243,35.198,19.731,50.491,32.965c15.333,13.269,30.057,27.243,45.057,40.897
		c0.461,0.419,1.033,0.716,2.224,1.527c1.8-5.654,3.589-10.848,5.107-16.12c4.822-16.753,9.153-33.662,14.531-50.233
		c1.704-5.25,5.982-9.707,9.283-14.386c5.607-7.948,11.372-15.783,17.542-24.318c2.756,4.865,5.593,9.245,7.823,13.915
		c10.597,22.188,21.705,44.166,31.352,66.765c12.93,30.29,25.033,60.947,36.802,91.711c6.356,16.615,10.629,33.917,11.854,51.824
		c0.334,4.889-1.344,7.608-6.062,9.985c-35.887,18.079-57.962,47.093-66.884,86.201c-1.382,6.059,4.589,18.578,10.175,21.444
		c0.591,0.303,1.128,0.712,1.715,1.024c8.123,4.314,17.093,3.454,24.222-2.311c2.455-1.986,4.298-12.363,2.63-15.181
		c-2.359-3.987-5.107-7.783-7.054-11.957c-0.981-2.104-1.433-5.189-0.644-7.269c6.625-17.448,17.729-30.292,35.854-37.227
		c35.672-13.649,71.126-27.892,106.436-42.457c16.442-6.782,33.16-13.531,48.29-22.708c23.755-14.408,37.081-37.546,46.254-63.177
		c1.602-4.476,2.606-9.166,4.22-13.637c0.607-1.683,1.896-3.373,3.33-4.461c7.096-5.383,14.437-10.445,21.502-15.866
		c3.702-2.84,6.246-2.986,8.437,1.147c1.731,3.265,3.268,7.08,3.363,10.691c0.619,23.604,1.533,47.239,0.901,70.824
		c-0.4,14.926-7.528,27.412-18.162,38.402c-34.311,35.461-71.577,67.265-113.178,93.851c-27.334,17.468-55.923,32.561-85.797,45.329
		c-32.227,13.773-65.486,24.135-99.712,31.277c-14.492,3.024-29.289,4.977-44.047,6.235c-19.337,1.648-38.828,3.502-58.153,2.743
		c-21.73-0.854-43.32-4.836-65.029-6.822c-10.137-0.927-17.511-6.24-24.557-12.523c-14.267-12.724-28.411-25.587-42.525-38.48
		c-1.273-1.163-2.281-2.85-2.873-4.488c-2.782-7.706-0.901-9.539,7.137-10.419c13.423-1.471,26.733-3.956,40.111-5.865
		c1.719-0.245,3.845-0.105,5.309,0.708c16.876,9.376,34.576,16.484,53.932,18.162c17.632,1.529,34.413-2.139,50.473-9.755
		c32.053-15.201,58.051-37.31,75.34-68.324c6.216-11.15,9.5-24.145,12.788-36.649c2.5-9.508,3.634-19.54,4.027-29.393
		c0.468-11.716-0.817-23.452-4.83-34.658c-0.537-1.5-1.428-3.028-2.555-4.138c-17.063-16.808-35.23-32.205-57.229-42.274
		c-30.785-14.091-60.729-12.347-89.038,6.422c-12.012,7.964-17.302,20.456-19.129,34.474c-2.402,18.424,1.264,36.203,6.147,53.756
		c5.412,19.456,16.138,35.459,32.944,46.933c15.683,10.706,31.594,21.078,47.438,31.546
		C364.559,615.65,365.883,615.907,367.697,616.602z"/>
	<path d="M466.144,223.888c-2.426-12.839-3.44-25.714-7.474-37.562c-4.523-13.285-11.185-25.971-18.071-38.271
		c-3.957-7.069-11.732-10.576-19.553-12.741c-1.877-0.52-4.437-0.151-6.199,0.753c-11.383,5.837-18.304,15.41-21.908,27.48
		c-0.459,1.538-0.27,3.477,0.216,5.045c0.826,2.659,2.251,5.125,3.204,7.752c2.016,5.557,5.306,9.457,10.553,12.852
		c6.2,4.012,11.16,3.394,16.624-0.056c1.089-0.688,1.988-2.114,2.38-3.383c0.962-3.115,1.577-6.337,3.464-9.938
		c2.53,6.217,5.431,12.313,7.512,18.676c4.065,12.428,5.313,25.207,2.981,38.164c-0.285,1.583-1.369,3.729-2.669,4.317
		c-23.415,10.594-46.679,21.587-70.496,31.203c-14.418,5.822-29.745,4.975-44.922,1.257c-3.299-0.808-3.696-2.639-4.514-4.866
		c-1.905-5.187-3.124-10.759-5.823-15.491c-4.489-7.871-11.005-8.506-19.497-6.236c-10.601,2.835-11.732,11.794-12.103,19.037
		c-0.313,6.1,2.673,13.78,8.773,18.012c20.289,14.078,42.976,20.097,67.501,18.13c13.497-1.083,26.566-4.709,39.124-9.939
		c5.047-2.102,16.163,2.791,17.584,7.9c0.286,1.029-0.349,2.622-1.064,3.576c-9.538,12.715-19.189,25.345-28.75,38.042
		c-1.948,2.586-3.852,2.783-6.736,1.27c-19.897-10.443-40.672-18.49-62.728-23.218c-27.986-5.999-55.087-4.423-81.135,8.236
		c-10.359,5.034-21.18,9.27-31.055,15.112c-16.574,9.805-27.887,24.651-36.341,41.754c-8.698,17.597-13.373,36.349-16.193,55.676
		c-0.276,1.889-2.092,3.965-3.76,5.169c-9.243,6.67-18.722,13.012-27.995,19.641c-4.946,3.535-9.577,2.776-11.23-3.06
		c-2.724-9.618-5.876-19.397-6.54-29.263c-1.75-26.006-3.057-52.097-3.006-78.151c0.04-20.017,1.832-40.097,4.157-59.996
		c0.582-4.98,5.756-9.795,9.607-13.958c20.282-21.931,43.557-40.289,68.41-56.77c29.136-19.321,59.971-35.558,91.441-50.611
		c36.126-17.28,73.046-32.687,110.723-46.311c45.023-16.281,90.868-29.787,137.208-41.711c6.554-1.686,12.403,0.726,18.142,2.876
		c25.869,9.691,49.217,24.017,71.55,40.038c18.008,12.919,34.146,28.011,49.198,44.231c5.631,6.068,10.736,12.634,15.919,19.102
		c2.995,3.738,3.199,14.833,0.473,18.39c-0.645,0.842-1.776,1.476-2.812,1.828c-14.333,4.873-28.659,9.774-43.077,14.386
		c-1.866,0.597-4.624,0.27-6.313-0.733c-16.324-9.694-33.035-18.355-51.462-23.567c-19.939-5.64-38.941-4.677-57.678,4.771
		C496.649,210.362,481.029,217.031,466.144,223.888z"/>
	<path d="M146.741,89.076c12.023-8.57,23.826-17.661,36.29-25.732c30.043-19.454,62.065-34.992,96.443-45.119
		c17.317-5.101,35.064-8.751,52.642-12.948c2.901-0.693,5.164-0.047,6.741,3.249c10.983,22.948,20.699,46.419,24.658,71.641
		c1.673,10.659,0.544,21.787,0.262,32.69c-0.037,1.424-2.378,3.368-4.069,4.084c-27.916,11.816-56.089,23.043-83.8,35.318
		c-18.884,8.365-37.176,18.076-55.637,27.376c-2.574,1.297-4.322,1.224-6.662-0.306c-14.734-9.632-25.666-22.915-35.838-36.945
		C165.818,125.898,155.275,108.588,146.741,89.076z"/>
	<path d="M771.733,540.75c-4.968-4.729-4.607-10.857-4.599-16.477c0.028-20.971,1.123-41.953,0.678-62.907
		c-0.336-15.863-2.228-31.707-3.753-47.528c-1.475-15.302-2.905-30.632-5.17-45.829c-5.227-35.069-12.614-69.647-26.172-102.604
		c-13.287-32.301-30.711-62.212-52.497-89.53c-23.382-29.32-50.734-54.335-82.459-74.354
		c-18.966-11.968-38.311-23.273-59.723-30.673c-6.219-2.149-6.426-9.122-6.884-14.678c-0.79-9.58-0.77-19.226-1.187-28.84
		c-0.077-1.768-0.613-3.516-0.959-5.389C738.477,89.847,854.09,330.431,771.733,540.75z"/>
	<path d="M136.031,99.016c6.313,11.094,12.028,22.102,18.662,32.524c6.74,10.588,13.886,21.008,21.816,30.717
		c5.245,6.422,7.124,13.543,8.464,21.187c0.114,0.649-0.029,1.342,0.077,1.994c2.161,13.215,2.04,13.022-8.964,20.173
		c-19.018,12.36-37.529,25.441-54.105,41.023c-8.358,7.857-16.354,16.105-24.83,23.828c-2.111,1.923-5.344,3.047-8.241,3.599
		c-11.902,2.27-21.378-3.957-30.529-9.963c-8.401-5.514-16.091-12.107-24.117-18.194c-2.178-1.652-2.455-3.27-1.27-5.938
		c15.186-34.169,34.322-65.85,58.244-94.669C104.956,128.772,119.589,113.211,136.031,99.016z"/>
	<path d="M450.276,740.828c0.093-6.84,5.562-13.791,12.78-15.545c51.45-12.504,99.558-33.194,145.427-59.361
		c5.645-3.22,12.17-2.494,16.767,1.984c11.174,10.883,17.648,24.505,22.461,39.018c0.421,1.269-0.662,3.775-1.839,4.727
		c-24.548,19.865-51.347,36.159-80.028,49.279c-26.687,12.208-54.347,21.626-83.168,27.453c-4.022,0.813-7.99,2.17-12.039,2.448
		c-1.753,0.12-4.309-1.404-5.377-2.956c-8.601-12.493-12.793-26.578-14.276-41.561C450.82,744.664,450.561,743.023,450.276,740.828z
		"/>
	<path d="M350.859,1.75C368.887,1.103,386.42-0.018,403.951,0c14.088,0.014,28.252,0.739,42.245,2.342
		c22.086,2.53,43.91,6.798,65.159,13.525c1.475,0.467,3.088,2.273,3.576,3.796c3.922,12.23,3.282,24.904,2.951,37.477
		c-0.162,6.177-5.855,12.163-11.459,13.831c-38.309,11.401-76.622,22.792-114.845,34.473c-3.773,1.153-6.288,0.862-7.671-2.481
		c-2.547-6.159-5.711-12.372-6.619-18.842c-2.698-19.226-8.086-37.613-15.187-55.566C358.669,19.877,354.892,11.333,350.859,1.75z"
		/>
	<path d="M534.77,377.184c16.857,3.38,30.743-3.605,45.069-8.878c6.13-2.257,12.558-4.191,19.009-4.992
		c16.248-2.017,28.179,5.479,35.446,19.449c9.736,18.716,18.998,37.878,23.323,58.646c4.85,23.288,0.969,44.871-17.396,61.921
		c-9.303,8.637-20.169,14.889-31.731,20.05c-2.544,1.136-3.501,0.401-4.65-1.693c-8.563-15.605-18.062-30.763-25.638-46.83
		c-14.479-30.705-27.882-61.918-41.712-92.928C535.895,380.598,535.488,379.183,534.77,377.184z"/>
	<path d="M722.015,426.507c0.901-7.665,1.701-13.628,2.281-19.613c0.75-7.741,2.817-15.75,1.57-23.183
		c-1.356-8.082-3.813-16.624-11.935-21.779c-15.348-9.74-30.281-20.147-45.803-29.592c-3.923-2.387-9.378-2.7-14.198-3.073
		c-9.432-0.73-18.913-0.811-28.371-1.216c-1.294-0.055-2.574-0.43-4.275-0.729c12.083-30.101,25.051-59.781,14.852-93.387
		c13.696-4.864,27.282-10.245,41.255-14.284c3.78-1.092,8.998,1.294,13.091,3.125c6.328,2.831,10.683,7.845,14.118,14.087
		c17.313,31.454,28.818,64.896,35.467,100.111c3.211,17.008,7.119,33.899,6.916,51.368c-0.111,9.553-1.786,18.225-10.086,24.558
		C731.967,416.66,727.684,421.267,722.015,426.507z"/>
	<path d="M484.322,240.758c11.225-3.726,21.511-7.703,32.108-10.507c11.658-3.085,21.403,1.931,29.749,9.673
		c14.826,13.753,22.131,31.969,28.536,50.455c2.943,8.493,5.199,17.502,5.906,26.424c0.961,12.135-1.964,21.328-14.815,26.053
		c-5.689,2.092-11.145,4.817-16.455,7.143c-3.053-3.744-5.697-7.515-8.879-10.758c-4.233-4.312-9.645-5.206-14.841-2.108
		c-2.339,1.395-3.708,4.416-5.605,6.811C506.65,310.748,491.025,278.01,484.322,240.758z"/>
	<path d="M660.687,699.776c-5.98-10.638-11.96-20.97-17.605-31.481c-2.052-3.821-4.325-7.991-4.647-12.145
		c-0.343-4.429,0.231-9.097,5.109-12.433c25.047-17.129,49.214-35.437,71.047-56.602c12.039-11.671,23.748-23.682,35.586-35.561
		c5.575-5.594,12.952-3.786,15.167,3.839c0.269,0.927-0.083,2.194-0.508,3.141c-14.889,33.154-33.526,63.967-56.634,92.112
		C693.597,668.43,677.578,684.75,660.687,699.776z"/>
	<path d="M146,455.8c0,18.193-0.487,35.659,0.159,53.083c0.489,13.2,2.414,26.348,3.716,39.517c0.325,3.289,1.265,6.627,0.94,9.844
		c-0.498,4.928,2.704,7.102,5.734,9.664c9.881,8.356,20.001,16.452,29.54,25.183c15.999,14.643,31.62,29.697,47.344,44.524
		c-3.852,0.62-8.629,1.742-13.462,2.09c-9.511,0.684-19.172,2.073-28.55,1.083c-11.693-1.235-20.59-7.763-27.771-17.725
		c-24.869-34.502-41.802-72.494-51.096-113.809c-1.717-7.631-0.986-16.481,1.127-24.069c1.415-5.084,6.84-9.424,11.228-13.221
		C131.598,466.176,138.943,461.146,146,455.8z"/>
</g>
</svg>
