<?xml version="1.0" encoding="utf-8"?>
<!-- Generator: Adobe Illustrator 22.1.0, SVG Export Plug-In . SVG Version: 6.00 Build 0)  -->
<svg version="1.1" id="Layer_1" xmlns="http://www.w3.org/2000/svg" xmlns:xlink="http://www.w3.org/1999/xlink" x="0px" y="0px"
	 viewBox="0 0 737 844" enable-background="new 0 0 737 844" xml:space="preserve">
<g id="pK78oz.tif">
	<g>
		<g>
			<path fill="#FFFFFF" d="M737,420c0,141.244,0,282.488,0,424c-122.667,0-245.333,0-368,0c3.326-2.71,6.889-5.179,9.941-8.169
				c23.577-23.102,41.91-50.376,60.874-77.129c1.005-1.418,1.264-4.721,0.321-5.841c-1.362-1.617-4.205-2.876-6.301-2.723
				c-1.923,0.14-4.175,1.995-5.458,3.711c-14.459,19.333-28.656,38.863-43.189,58.14c-2.855,3.787-6.816,6.747-10.312,10.041
				c-2.094,1.974-3.958,1.528-5.219-0.924c-7.295-14.183-19.66-23.742-31.184-34.01c-10.177-9.068-20.709-17.738-31.442-26.889
				c3.322-5.287,6.791-10.732,10.162-16.236c0.644-1.052,1.348-2.379,1.247-3.51c-0.193-2.159-1.377-4.265-1.389-6.397
				c-0.044-7.884-3.387-14.05-9.129-19.167c-4.224-3.765-8.519-7.464-12.556-11.423c-28.155-27.615-43.523-61.183-46.349-100.472
				c-0.869-12.079-1.49-24.181-1.972-36.282c-0.325-8.144,0.077-16.324-0.439-24.45c-0.182-2.868-1.324-6.804-3.407-8.215
				c-6.949-4.707-14.523-8.491-21.983-12.699c-12.188,32.078-14.593,65.358-6.521,98.969c12.969,54,45.314,92.989,95.79,118.353
				c-9.939,15.097-19.485,29.599-29.172,44.313c1.907,1.214,3.272,2.127,4.679,2.972c13.411,8.049,27.091,15.69,40.161,24.259
				c9.692,6.355,18.902,13.554,27.708,21.1c3.845,3.295,6.141,8.396,9.14,12.677c-120.588,0-241.176,0-362,0c0-134,0-268,0-402
				c1.339,6.103,2.761,12.19,4.004,18.313c8.624,42.473,31.323,74.246,70.653,93.582c22.138,10.884,45.682,17.259,69.585,22.69
				c4.294,0.976,5.379-0.102,5.932-4.276c2.277-17.176,5.113-34.263,12.169-50.296c9.434-21.435,22.739-29.371,46.129-27.699
				c3.3,0.236,6.631,0.033,9.948,0.033c-14.015-7.205-28.471-11.989-44.062-12.141c-13.82-0.135-22.747,5.902-27.684,18.711
				c-2.207,5.727-3.958,11.642-5.678,17.54c-1.704,5.844-3.11,11.776-4.622,17.574c-1.024,0-1.545,0.119-1.986-0.019
				c-3.331-1.04-6.676-2.047-9.962-3.217c-29.451-10.488-55.336-25.953-73.999-51.94c-34.801-48.46-21.442-114.894,29.726-143.091
				c31.207-17.197,63.642-15.988,94.936-0.278c46.834,23.511,76.344,62.107,92.596,111.339c0.459,1.39-0.712,4.015-1.955,5.164
				c-17.721,16.382-31.531,35.566-41.552,57.478c-0.536,1.172-0.431,3.666,0.345,4.245c5.317,3.966,10.697,7.933,16.456,11.194
				c3.821,2.163,8.197,1.785,11.558-1.601c10.598-10.677,22.012-20.297,34.921-28.119c1.443-0.874,3.179-3.344,2.883-4.639
				c-1.089-4.756-2.343-9.686-4.704-13.894c-4.377-7.802-9.46-15.221-14.484-22.64c-2.399-3.542-0.707-4.832,2.392-6.131
				c0.578,1.139,1.002,2.039,1.479,2.908c6.508,11.849,13.529,23.305,24.261,31.955c2.32,1.87,4.334,2.854,7.606,1.35
				c18.746-8.616,37.605-16.988,56.498-25.278c3.008-1.32,4.203-3.029,4.399-6.327c0.821-13.803-4.102-26.052-9.37-38.373
				c-1.978-4.625-4.201-5.372-8.695-4.074c-8.23,2.377-16.623,4.191-24.855,6.217c-0.338-0.624-0.578-0.894-0.636-1.199
				c-8.605-44.77-17.354-89.513-25.739-134.324c-6.683-35.716-9.608-71.634-3.501-107.785c4.59-27.169,11.971-53.456,29.059-75.673
				c12.067-15.689,25.306-30.481,38.094-45.612c7.283-8.618,14.711-17.115,22.079-25.673c7.584,9.897,14.779,19.472,22.172,28.892
				c12.543,15.983,26.123,31.387,34.548,50.04c25.536,56.535,33.926,115.407,20.424,176.354
				c-6.901,31.148-15.853,61.845-24.03,92.706c-3.357,12.671-7.114,25.237-10.799,38.238c-21.279-5.658-42.527-6.138-64.13-4.365
				c3.032,8.632,6.019,16.544,8.564,24.596c1.641,5.193,2.691,10.578,3.899,15.901c0.958,4.222,3.045,5.042,7.246,3.731
				c13.181-4.113,26.485-7.837,39.774-11.599c13.013-3.684,13.028-3.624,13.058-17.38c0.001-0.297,0.229-0.593,0.411-1.032
				c4.932,0.359,4.011,4.424,4.584,7.409c0.643,3.349,0.318,6.718,4.394,8.749c9.347,4.658,18.723,9.393,27.524,14.984
				c24.142,15.338,41.275,36.822,53.363,62.566c10.791,22.981,14.618,47.594,16.55,72.51c1.183,15.247,0.823,30.612,1.23,45.923
				c0.057,2.149,0.539,4.287,0.824,6.43c0.467,0.03,0.935,0.059,1.402,0.089c1.321-3.671,2.709-7.32,3.953-11.017
				c6.198-18.421,7.077-37.426,6.956-56.691c-0.123-19.482-4.365-38.01-11.331-55.918c-10.946-28.142-28.108-51.999-51.533-71.183
				c-2.201-1.803-2.704-3.324-1.569-5.914c4.805-10.956,8.844-22.291,14.281-32.916c14.696-28.718,33.784-53.87,61.401-71.578
				c22.172-14.217,46.057-20.883,72.288-14.911c38.872,8.85,67.173,44.227,69.326,85.813c2.573,49.7-14.492,91.331-51.088,124.982
				c-13.007,11.96-27.738,21.115-44.815,27.283c-0.405-2.457-0.707-4.573-1.108-6.671c-3.623-18.939-6.895-37.957-11.047-56.78
				c-2.231-10.112-8.584-13.609-18.994-12.407c-15.002,1.733-25.988,10.902-38.24,20.283c2.243,0.176,3.335,0.394,4.408,0.322
				c5.148-0.344,10.291-0.749,15.434-1.165c11.984-0.969,18.74,3.094,23.767,13.972c6.062,13.115,9.454,26.955,11.701,41.145
				c1.155,7.295,2.466,14.565,3.786,22.31c10.349-3.788,19.946-7.063,29.363-10.794c23.168-9.18,44.261-21.574,61.035-40.44
				c20.201-22.72,30.535-50.043,36.769-79.228C733.186,440.865,735.002,430.413,737,420z M369.401,676.613
				c-9.371-6.765-18.376-13.226-27.317-19.774c-1.04-0.762-1.829-1.938-2.561-3.037c-7.708-11.589-10.009-24.515-8.12-37.998
				c0.55-3.924,3.16-8.341,6.182-10.981c7.414-6.478,16.5-9.177,26.449-8.098c13.61,1.476,23.915,9.234,34.046,17.614
				c5.691,4.708,7.776,10.591,7.829,17.459c0.243,31.413-17.727,54.111-46.6,64.408c-8.762,3.125-17.994,3.166-26.37-0.868
				c-9.538-4.593-18.978-6.449-29.204-3.367c-0.314,0.094-0.69,0.005-0.987,0.125c-1.884,0.76-3.754,1.554-5.629,2.337
				c1.05,1.96,1.726,4.29,3.224,5.808c3.854,3.904,8.365,7.178,12.081,11.196c6.196,6.7,13.489,9.553,22.661,10.683
				c18.873,2.325,37.613,2.539,56.283-0.479c55.716-9.006,101.687-36.146,140.37-76.498c4.655-4.856,7.136-10.688,6.946-17.625
				c-0.247-8.993-0.125-17.995-0.335-26.99c-0.045-1.94-0.562-3.986-1.382-5.739c-0.388-0.829-2.576-1.804-2.978-1.486
				c-4.686,3.709-11.01,5.602-12.865,12.454c-4.823,17.811-16.048,29.733-33.352,36.347c-18.174,6.946-36.212,14.263-54.144,21.81
				c-4.154,1.748-8.152,4.588-11.307,7.819c-4.447,4.554-7.213,9.812-2.248,16.274c2.369,3.083,0.65,7.557-3.162,8.259
				c-2.943,0.542-6.803,0.103-9.221-1.48c-3.23-2.115-4.506-5.977-3.361-10.218c3.511-13.004,9.757-24.887,21.761-30.979
				c10.042-5.096,9.95-11.713,7.946-20.264c-0.34-1.453-0.673-2.928-1.222-4.308c-7.716-19.403-15.275-38.872-23.308-58.143
				c-3.28-7.868-7.607-15.299-11.434-22.88c-14.383,11.691-15.299,29.095-21.015,44.875c-7.559-6.745-14.243-12.983-21.224-18.87
				c-8.296-6.997-17.066-13.324-27.846-16.065c-6.625-1.684-6.648-1.647-6.985,5.397c-0.211,4.406-2.73,7.79-6.664,8.102
				c-2.216,0.176-4.771-3.048-7.038-4.906c-0.667-0.546-0.87-1.658-1.433-2.812c-4.948,3.731-7.288,8.679-7.808,14.139
				c-1.195,12.523-0.151,25.107,4.057,36.874c4.852,13.568,10.825,26.785,17.091,39.779c4.486,9.305,10.67,17.596,19.304,23.802
				c15.94,11.458,38.081,2.686,40.618-16.845c2.477-19.074-3.85-35.736-17.292-49.483c-4.99-5.104-7.394-5.051-13.71-1.43
				c-5.073,2.909-3.522,7.537-2.551,11.507c0.752,3.072,2.54,6.145,4.61,8.587c4.081,4.815,8.666,9.204,13.062,13.75
				C371.982,653.433,373.531,663.918,369.401,676.613z M396.804,485.676c-1.438,4.234-2.994,7.166-7.339,6.16
				c-3.76-0.87-7.734-6.089-8.082-10.551c-0.33-4.231,4.919-11.925,9.428-13.133c4.355-1.167,8.301,0.745,10.294,4.354
				c3.422,6.193,6.333,12.736,8.757,19.387c1.603,4.399,1.981,9.245,3.061,14.661c3.963-1.891,7.682-3.271,10.993-5.313
				c14.273-8.803,29.162-11.248,43.83-2.143c10.509,6.524,20.191,6.146,30.831,1.304c5.888-2.68,7.357-6.16,3.312-11.349
				c-15.608-20.023-35.27-34.689-58.998-43.679c-3.163-1.198-7.204-1.14-10.593-0.452c-6.466,1.313-12.759,3.488-19.117,5.327
				c-32.851,9.498-64.739,21.459-95.33,36.841c-21.688,10.906-42.158,23.464-59.203,41.047c-3.02,3.115-5.055,6.388-5.151,10.915
				c-0.326,15.292-1.203,30.582-1.133,45.87c0.03,6.576,1.562,13.209,2.972,19.695c1.284,5.901,2.915,6.332,7.768,3.038
				c2.478-1.682,5.242-3.09,7.316-5.179c2.053-2.068,4.314-4.638,4.899-7.332c2.535-11.677,5.346-23.467,14.254-31.844
				c18.038-16.962,39.42-22.753,63.539-15.747c6.348,1.844,12.451,4.674,18.454,7.503c3.216,1.516,5.154,1.034,7.108-1.752
				c2.865-4.084,6.064-7.936,8.88-12.052c0.926-1.354,2.02-4.001,1.433-4.69c-1.243-1.458-3.462-2.385-5.435-2.811
				c-1.276-0.276-2.848,0.662-4.25,1.159c-8.974,3.178-18.229,4.784-27.473,2.15c-5.655-1.611-11.199-4.245-16.173-7.397
				c-3.431-2.174-4.465-6.133-2.879-10.613c1.305-3.686,3.895-4.854,7.143-5.125c4.431-0.369,6.16,2.823,7.003,6.402
				c1.11,4.712,4.192,6.736,8.635,6.41c5.242-0.385,10.751-0.483,15.593-2.233c9.214-3.33,18.096-7.617,26.964-11.828
				c1.594-0.757,3.274-2.94,3.516-4.661C402.693,500.446,401.346,493.214,396.804,485.676z M405.227,730.631
				c2.101,6.032,4.081,12.11,6.356,18.076c1.012,2.654,3.064,3.305,6.084,2.683c24.312-5.002,46.744-14.332,66.914-28.843
				c9.906-7.127,8.576-5.415,4.17-15.372c-4.985-11.265-8.515-12.427-19.217-6.644c-17.792,9.613-36.339,17.321-55.99,22.232
				C409.486,723.778,406.377,725.516,405.227,730.631z M442.495,574.203c8.946,18.122,17.91,36.719,27.302,55.098
				c3.99,7.809,4.397,7.601,11.992,3.089c13.448-7.988,18.743-20.046,14.094-34.624c-2.654-8.321-6.441-16.357-10.438-24.152
				c-3.744-7.301-10.412-9.236-18.276-6.734C459.483,569.325,451.706,571.484,442.495,574.203z M486.967,510.257
				c4.407,14.778-1.439,27.344-6.207,40.381c1.451,0.259,2.562,0.71,3.619,0.608c11.119-1.079,20.459,2.994,28.925,9.755
				c1.295,1.034,2.679,2.018,4.159,2.747c7.623,3.753,9.479,10.093,8.376,17.93c-0.511,3.63-0.738,7.3-1.098,10.991
				c10.878-5.423,11.665-14.453,9.918-24.428c-0.886-5.062-1.795-10.121-2.767-15.167c-2.88-14.948-8-29.091-15.568-42.302
				c-2.672-4.664-7.981-7.576-11.934-6.414C498.684,506.034,493.106,508.154,486.967,510.257z M406.089,752.925
				c-2.096-7.447-4.078-14.095-5.815-20.807c-1.04-4.018-2.999-5.928-7.448-5.186c-20.528,3.424-41.074,3.464-61.643,0.136
				c-5.225-0.845-8.201,1.184-9.097,5.41c-1.382,6.513,0.407,10.866,4.98,12.576c24.248,9.066,49.43,9.945,74.865,8.59
				C403.518,753.56,405.085,753.105,406.089,752.925z M421.009,513.132c2.492,16.125,9.628,30.105,15.254,44.833
				c5.064-4.789,6.416-4.676,10.644,0.248c0.81,0.944,1.954,2.166,3.013,2.237c6.557,0.445,13.581-6.542,13.248-13.255
				c-0.55-11.087-4.729-21.1-11.063-29.892c-3.672-5.096-8.628-10.259-16.186-8.691
				C430.944,509.646,426.147,511.542,421.009,513.132z M497.213,711.814c0.881,0.463,1.762,0.926,2.642,1.389
				c3.081-3.901,5.886-8.062,9.291-11.656c13.714-14.475,24.912-30.627,33.041-48.837c0.63-1.411-0.226-3.485-0.392-5.25
				c-1.776,0.231-3.587,0.327-5.312,0.76c-0.698,0.175-1.23,1.069-1.805,1.666c-13.278,13.798-27.316,26.717-43.387,37.256
				c-3.569,2.34-4.253,5.655-2.621,9.085C491.214,701.568,494.337,706.632,497.213,711.814z M273.66,606.424
				c-3.724,2.844-6.155,4.852-8.738,6.643c-6.083,4.217-7.082,10.226-5.704,16.805c3.659,17.469,10.937,33.462,21.268,47.91
				c2.611,3.652,6.977,7.309,11.16,8.279c6.049,1.403,12.666,0.359,19.04,0.359c0.069-0.532,0.139-1.064,0.208-1.596
				c-0.831-0.945-1.579-1.982-2.506-2.819c-9.498-8.581-19.133-17.015-28.456-25.779c-1.957-1.84-3.74-4.773-3.994-7.361
				c-1.087-11.068-1.603-22.193-2.255-33.301C273.531,612.969,273.66,610.358,273.66,606.424z"/>
			<path fill="#FFFFFF" d="M1,411C1,274.419,1,137.839,1,1c128,0,256,0,384,0c-5.129,6.251-9.677,13.117-15.5,18.636
				c-15.709,14.888-31.75,29.444-48.038,43.699c-43.235,37.839-65.502,85.141-65.293,142.782
				c0.089,24.567,5.725,48.214,12.43,71.596c11.688,40.755,23.836,81.378,35.719,122.077c2.402,8.228,4.481,16.551,6.565,24.298
				c-9.706,5.685-18.711,10.96-28.134,16.479c-0.694-1.691-1.379-3.333-2.044-4.984c-10.322-25.619-23.718-49.483-40.615-71.365
				c-22.317-28.902-49.64-50.89-84.994-61.895c-32.475-10.109-64.025-9.312-94.036,8.174
				c-30.078,17.526-46.367,44.969-55.001,77.703C4.076,395.722,2.671,403.396,1,411z"/>
			<path fill="#FFFFFF" d="M389,1c115.921,0,231.842,0,348,0c0,128,0,256,0,384c-1.01-4.474-2.141-8.924-3.012-13.425
				c-8.286-42.82-38.673-70.369-81.093-72.383c-39.271-1.864-74.651,9.518-105.549,33.953
				c-24.99,19.764-43.159,45.166-58.479,72.739c-5.068,9.122-9.487,18.604-14.014,27.546c-10.386-4.865-20.593-9.646-31.137-14.585
				c0.584-1.944,1.169-4.003,1.819-6.041c10.668-33.434,21.357-66.862,32.016-100.3c14.234-44.65,21.325-89.979,13.497-136.839
				c-7.303-43.722-23.107-83.65-52.261-117.567c-13.131-15.276-26.892-30.01-40.26-45.085C395.142,9.195,392.165,5.014,389,1z"/>
			<path d="M389,1c3.165,4.014,6.142,8.195,9.528,12.014c13.368,15.075,27.129,29.809,40.26,45.085
				c29.154,33.917,44.958,73.845,52.261,117.567c7.828,46.861,0.736,92.189-13.497,136.839
				c-10.659,33.437-21.348,66.865-32.016,100.3c-0.65,2.038-1.235,4.097-1.819,6.041c10.543,4.939,20.75,9.72,31.137,14.585
				c4.526-8.943,8.946-18.425,14.014-27.546c15.32-27.573,33.488-52.975,58.479-72.739c30.898-24.436,66.278-35.817,105.549-33.953
				c42.42,2.014,72.806,29.562,81.093,72.383c0.871,4.501,2.002,8.951,3.012,13.425c0,11.667,0,23.333,0,35
				c-1.998,10.413-3.814,20.865-6.028,31.232c-6.234,29.185-16.568,56.508-36.769,79.228c-16.774,18.866-37.867,31.26-61.035,40.44
				c-9.417,3.731-19.014,7.006-29.363,10.794c-1.32-7.745-2.631-15.015-3.786-22.31c-2.247-14.19-5.639-28.03-11.701-41.145
				c-5.028-10.878-11.784-14.941-23.767-13.972c-5.143,0.416-10.286,0.821-15.434,1.165c-1.072,0.072-2.164-0.147-4.408-0.322
				c12.252-9.381,23.238-18.55,38.24-20.283c10.41-1.202,16.763,2.294,18.994,12.407c4.153,18.823,7.424,37.84,11.047,56.78
				c0.401,2.098,0.703,4.215,1.108,6.671c17.078-6.169,31.809-15.323,44.815-27.283c36.595-33.651,53.661-75.283,51.088-124.982
				c-2.153-41.586-30.454-76.963-69.326-85.813c-26.231-5.972-50.116,0.694-72.288,14.911
				c-27.616,17.708-46.705,42.86-61.401,71.578c-5.437,10.625-9.477,21.961-14.281,32.916c-1.136,2.59-0.633,4.111,1.569,5.914
				c23.425,19.185,40.587,43.042,51.533,71.183c6.966,17.909,11.208,36.436,11.331,55.918c0.122,19.265-0.758,38.27-6.956,56.691
				c-1.244,3.697-2.631,7.346-3.953,11.017c-0.467-0.03-0.935-0.06-1.402-0.089c-0.285-2.143-0.767-4.281-0.824-6.43
				c-0.407-15.31-0.047-30.676-1.23-45.923c-1.933-24.916-5.759-49.529-16.55-72.51c-12.089-25.744-29.221-47.228-53.363-62.566
				c-8.801-5.591-18.177-10.326-27.524-14.984c-4.076-2.031-3.751-5.4-4.394-8.749c-0.573-2.985,0.348-7.05-4.584-7.409
				c-0.181,0.439-0.41,0.735-0.411,1.032c-0.03,13.757-0.045,13.696-13.058,17.38c-13.288,3.762-26.593,7.486-39.774,11.599
				c-4.201,1.311-6.288,0.491-7.246-3.731c-1.208-5.323-2.258-10.708-3.899-15.901c-2.545-8.051-5.532-15.963-8.564-24.596
				c21.604-1.773,42.852-1.293,64.13,4.365c3.685-13.001,7.441-25.567,10.799-38.238c8.177-30.861,17.13-61.558,24.03-92.706
				c13.502-60.947,5.111-119.819-20.424-176.354c-8.425-18.653-22.005-34.057-34.548-50.04c-7.393-9.42-14.587-18.995-22.172-28.892
				c-7.368,8.558-14.796,17.054-22.079,25.673c-12.788,15.132-26.026,29.923-38.094,45.612
				c-17.088,22.217-24.469,48.504-29.059,75.673c-6.107,36.151-3.182,72.069,3.501,107.785
				c8.385,44.811,17.134,89.554,25.739,134.324c0.059,0.305,0.298,0.575,0.636,1.199c8.233-2.026,16.625-3.84,24.855-6.217
				c4.494-1.298,6.717-0.551,8.695,4.074c5.268,12.321,10.191,24.57,9.37,38.373c-0.196,3.298-1.391,5.007-4.399,6.327
				c-18.893,8.29-37.752,16.663-56.498,25.278c-3.272,1.504-5.286,0.52-7.606-1.35c-10.732-8.65-17.752-20.106-24.261-31.955
				c-0.478-0.87-0.902-1.769-1.479-2.908c-3.099,1.299-4.791,2.589-2.392,6.131c5.024,7.419,10.107,14.838,14.484,22.64
				c2.361,4.208,3.615,9.138,4.704,13.894c0.297,1.295-1.44,3.765-2.883,4.639c-12.91,7.822-24.324,17.442-34.921,28.119
				c-3.361,3.386-7.737,3.764-11.558,1.601c-5.759-3.261-11.139-7.228-16.456-11.194c-0.776-0.579-0.881-3.073-0.345-4.245
				c10.022-21.912,23.831-41.095,41.552-57.478c1.243-1.149,2.414-3.774,1.955-5.164c-16.251-49.232-45.762-87.828-92.596-111.339
				c-31.295-15.71-63.73-16.919-94.936,0.278c-51.169,28.197-64.528,94.63-29.726,143.091c18.663,25.987,44.548,41.452,73.999,51.94
				c3.286,1.17,6.631,2.177,9.962,3.217c0.441,0.138,0.961,0.019,1.986,0.019c1.512-5.798,2.917-11.73,4.622-17.574
				c1.72-5.899,3.471-11.814,5.678-17.54c4.937-12.809,13.865-18.846,27.684-18.711c15.591,0.152,30.046,4.937,44.062,12.141
				c-3.317,0-6.648,0.203-9.948-0.033c-23.39-1.672-36.695,6.264-46.129,27.699c-7.056,16.033-9.892,33.12-12.169,50.296
				c-0.553,4.174-1.638,5.251-5.932,4.276c-23.903-5.431-47.447-11.807-69.585-22.69c-39.33-19.335-62.029-51.109-70.653-93.582
				C3.761,454.19,2.339,448.103,1,442c0-10.333,0-20.667,0-31c1.671-7.604,3.076-15.278,5.059-22.799
				c8.633-32.734,24.923-60.178,55.001-77.703c30.011-17.486,61.561-18.283,94.036-8.174c35.355,11.005,62.677,32.994,84.994,61.895
				c16.897,21.882,30.293,45.746,40.615,71.365c0.665,1.651,1.35,3.293,2.044,4.984c9.423-5.52,18.428-10.794,28.134-16.479
				c-2.085-7.747-4.163-16.07-6.565-24.298c-11.882-40.699-24.031-81.322-35.719-122.077c-6.706-23.382-12.342-47.029-12.43-71.596
				c-0.209-57.642,22.058-104.943,65.293-142.782C337.75,49.08,353.791,34.524,369.5,19.636C375.323,14.117,379.871,7.251,385,1
				C386.333,1,387.667,1,389,1z"/>
			<path d="M363,844c-2.999-4.281-5.295-9.383-9.14-12.677c-8.806-7.546-18.016-14.745-27.708-21.1
				c-13.07-8.57-26.749-16.21-40.161-24.259c-1.407-0.844-2.772-1.758-4.679-2.972c9.686-14.714,19.233-29.215,29.172-44.313
				c-50.476-25.364-82.821-64.353-95.79-118.353c-8.072-33.611-5.667-66.891,6.521-98.969c7.459,4.208,15.034,7.992,21.983,12.699
				c2.083,1.411,3.225,5.347,3.407,8.215c0.516,8.126,0.115,16.306,0.439,24.45c0.482,12.101,1.104,24.203,1.972,36.282
				c2.826,39.289,18.194,72.857,46.349,100.472c4.037,3.959,8.331,7.659,12.556,11.423c5.742,5.117,9.085,11.283,9.129,19.167
				c0.012,2.132,1.196,4.239,1.389,6.397c0.101,1.131-0.602,2.458-1.247,3.51c-3.371,5.505-6.84,10.949-10.162,16.236
				c10.734,9.151,21.266,17.821,31.442,26.889c11.523,10.268,23.888,19.827,31.184,34.01c1.262,2.453,3.125,2.898,5.219,0.924
				c3.495-3.294,7.457-6.254,10.312-10.041c14.533-19.277,28.73-38.807,43.189-58.14c1.283-1.716,3.535-3.57,5.458-3.711
				c2.097-0.153,4.939,1.106,6.301,2.723c0.943,1.12,0.684,4.423-0.321,5.841c-18.964,26.753-37.297,54.027-60.874,77.129
				c-3.052,2.99-6.615,5.459-9.941,8.169C367,844,365,844,363,844z"/>
			<path d="M369.401,676.613c4.129-12.695,2.58-23.18-6.154-32.213c-4.396-4.546-8.981-8.935-13.062-13.75
				c-2.07-2.443-3.858-5.515-4.61-8.587c-0.971-3.969-2.522-8.598,2.551-11.507c6.316-3.621,8.72-3.674,13.71,1.43
				c13.442,13.747,19.77,30.41,17.292,49.483c-2.537,19.531-24.678,28.303-40.618,16.845c-8.634-6.206-14.818-14.497-19.304-23.802
				c-6.265-12.994-12.239-26.212-17.091-39.779c-4.208-11.767-5.251-24.351-4.057-36.874c0.521-5.461,2.861-10.408,7.808-14.139
				c0.563,1.154,0.766,2.265,1.433,2.812c2.267,1.858,4.821,5.082,7.038,4.906c3.935-0.312,6.454-3.696,6.664-8.102
				c0.337-7.044,0.361-7.082,6.985-5.397c10.779,2.741,19.549,9.068,27.846,16.065c6.98,5.887,13.665,12.124,21.224,18.87
				c5.716-15.78,6.632-33.184,21.015-44.875c3.826,7.581,8.154,15.012,11.434,22.88c8.033,19.271,15.592,38.74,23.308,58.143
				c0.549,1.38,0.882,2.855,1.222,4.308c2.004,8.551,2.095,15.168-7.946,20.264c-12.004,6.092-18.251,17.975-21.761,30.979
				c-1.145,4.24,0.131,8.103,3.361,10.218c2.418,1.583,6.278,2.022,9.221,1.48c3.812-0.702,5.531-5.176,3.162-8.259
				c-4.965-6.463-2.199-11.72,2.248-16.274c3.155-3.231,7.152-6.071,11.307-7.819c17.932-7.547,35.971-14.864,54.144-21.81
				c17.304-6.614,28.529-18.536,33.352-36.347c1.856-6.852,8.179-8.745,12.865-12.454c0.402-0.318,2.591,0.657,2.978,1.486
				c0.82,1.753,1.337,3.799,1.382,5.739c0.21,8.994,0.088,17.997,0.335,26.99c0.19,6.937-2.291,12.769-6.946,17.625
				c-38.683,40.352-84.654,67.492-140.37,76.498c-18.67,3.018-37.41,2.804-56.283,0.479c-9.172-1.13-16.466-3.983-22.661-10.683
				c-3.716-4.018-8.227-7.292-12.081-11.196c-1.498-1.518-2.174-3.848-3.224-5.808c1.875-0.783,3.745-1.578,5.629-2.337
				c0.297-0.12,0.674-0.03,0.987-0.125c10.226-3.082,19.666-1.226,29.204,3.367c8.376,4.033,17.609,3.992,26.37,0.868
				c28.873-10.297,46.843-32.995,46.6-64.408c-0.053-6.868-2.138-12.751-7.829-17.459c-10.13-8.38-20.435-16.138-34.046-17.614
				c-9.95-1.079-19.035,1.62-26.449,8.098c-3.021,2.64-5.632,7.057-6.182,10.981c-1.889,13.483,0.412,26.409,8.12,37.998
				c0.731,1.1,1.521,2.276,2.561,3.037C351.025,663.387,360.03,669.848,369.401,676.613z"/>
			<path d="M396.804,485.676c4.541,7.539,5.889,14.771,4.828,22.338c-0.241,1.721-1.922,3.904-3.516,4.661
				c-8.868,4.21-17.75,8.498-26.964,11.828c-4.841,1.75-10.351,1.848-15.593,2.233c-4.444,0.326-7.525-1.698-8.635-6.41
				c-0.843-3.578-2.572-6.771-7.003-6.402c-3.247,0.271-5.838,1.439-7.143,5.125c-1.586,4.48-0.552,8.439,2.879,10.613
				c4.974,3.152,10.518,5.786,16.173,7.397c9.244,2.633,18.499,1.027,27.473-2.15c1.403-0.497,2.975-1.434,4.25-1.159
				c1.974,0.426,4.193,1.353,5.435,2.811c0.587,0.689-0.507,3.336-1.433,4.69c-2.816,4.116-6.015,7.968-8.88,12.052
				c-1.954,2.786-3.893,3.268-7.108,1.752c-6.003-2.829-12.106-5.659-18.454-7.503c-24.119-7.007-45.501-1.216-63.539,15.747
				c-8.908,8.377-11.719,20.167-14.254,31.844c-0.585,2.694-2.846,5.264-4.899,7.332c-2.074,2.089-4.837,3.497-7.316,5.179
				c-4.854,3.294-6.485,2.863-7.768-3.038c-1.411-6.485-2.942-13.119-2.972-19.695c-0.07-15.287,0.807-30.577,1.133-45.87
				c0.096-4.527,2.131-7.8,5.151-10.915c17.045-17.583,37.516-30.141,59.203-41.047c30.591-15.382,62.478-27.343,95.33-36.841
				c6.358-1.838,12.651-4.013,19.117-5.327c3.388-0.688,7.43-0.746,10.593,0.452c23.728,8.99,43.39,23.656,58.998,43.679
				c4.045,5.189,2.576,8.67-3.312,11.349c-10.641,4.842-20.322,5.22-30.831-1.304c-14.667-9.105-29.557-6.66-43.83,2.143
				c-3.311,2.042-7.03,3.422-10.993,5.313c-1.08-5.415-1.458-10.261-3.061-14.661c-2.424-6.652-5.335-13.195-8.757-19.387
				c-1.994-3.608-5.939-5.52-10.294-4.354c-4.509,1.208-9.758,8.902-9.428,13.133c0.348,4.462,4.322,9.681,8.082,10.551
				C393.811,492.842,395.367,489.909,396.804,485.676z"/>
			<path d="M405.227,730.631c1.15-5.115,4.259-6.853,8.318-7.867c19.651-4.911,38.198-12.619,55.99-22.232
				c10.703-5.783,14.233-4.62,19.217,6.644c4.406,9.957,5.736,8.245-4.17,15.372c-20.17,14.511-42.602,23.842-66.914,28.843
				c-3.02,0.621-5.072-0.03-6.084-2.683C409.308,742.741,407.328,736.663,405.227,730.631z"/>
			<path d="M442.495,574.203c9.211-2.72,16.987-4.878,24.673-7.323c7.865-2.502,14.533-0.566,18.276,6.734
				c3.997,7.795,7.785,15.83,10.438,24.152c4.649,14.579-0.645,26.636-14.094,34.624c-7.595,4.511-8.002,4.719-11.992-3.089
				C460.406,610.922,451.442,592.325,442.495,574.203z"/>
			<path d="M486.967,510.257c6.138-2.104,11.716-4.223,17.424-5.9c3.953-1.161,9.262,1.75,11.934,6.414
				c7.568,13.211,12.688,27.354,15.568,42.302c0.972,5.046,1.881,10.105,2.767,15.167c1.746,9.975,0.959,19.005-9.918,24.428
				c0.36-3.69,0.587-7.361,1.098-10.991c1.103-7.836-0.753-14.177-8.376-17.93c-1.48-0.729-2.865-1.713-4.159-2.747
				c-8.466-6.761-17.806-10.834-28.925-9.755c-1.057,0.103-2.168-0.348-3.619-0.608
				C485.528,537.602,491.374,525.035,486.967,510.257z"/>
			<path d="M406.089,752.925c-1.004,0.18-2.571,0.636-4.157,0.72c-25.435,1.355-50.617,0.476-74.865-8.59
				c-4.574-1.71-6.362-6.062-4.98-12.576c0.897-4.226,3.872-6.256,9.097-5.41c20.569,3.328,41.115,3.288,61.643-0.136
				c4.45-0.742,6.409,1.167,7.448,5.186C402.01,738.83,403.993,745.478,406.089,752.925z"/>
			<path d="M421.009,513.132c5.138-1.59,9.934-3.486,14.91-4.519c7.558-1.568,12.515,3.594,16.186,8.691
				c6.334,8.792,10.513,18.805,11.063,29.892c0.333,6.713-6.692,13.7-13.248,13.255c-1.059-0.072-2.203-1.294-3.013-2.237
				c-4.227-4.924-5.579-5.038-10.644-0.248C430.638,543.238,423.502,529.257,421.009,513.132z"/>
			<path d="M497.213,711.814c-2.877-5.182-5.999-10.247-8.542-15.588c-1.633-3.43-0.948-6.745,2.621-9.085
				c16.071-10.538,30.109-23.457,43.387-37.256c0.575-0.598,1.107-1.491,1.805-1.666c1.726-0.433,3.536-0.529,5.312-0.76
				c0.165,1.766,1.021,3.84,0.392,5.25c-8.13,18.21-19.327,34.362-33.041,48.837c-3.405,3.594-6.21,7.755-9.291,11.656
				C498.975,712.741,498.094,712.277,497.213,711.814z"/>
			<path d="M273.66,606.424c0,3.934-0.13,6.545,0.022,9.14c0.652,11.108,1.167,22.234,2.255,33.301
				c0.254,2.587,2.037,5.52,3.994,7.361c9.324,8.765,18.959,17.199,28.456,25.779c0.927,0.838,1.675,1.875,2.506,2.819
				c-0.069,0.532-0.139,1.064-0.208,1.596c-6.375,0-12.991,1.044-19.04-0.359c-4.182-0.97-8.548-4.627-11.16-8.279
				c-10.331-14.448-17.61-30.441-21.268-47.91c-1.378-6.579-0.378-12.588,5.704-16.805
				C267.505,611.277,269.937,609.268,273.66,606.424z"/>
		</g>
	</g>
</g>
</svg>
