<?xml version="1.0" encoding="utf-8"?>
<!-- Generator: Adobe Illustrator 22.1.0, SVG Export Plug-In . SVG Version: 6.00 Build 0)  -->
<svg version="1.1" id="Layer_1" xmlns="http://www.w3.org/2000/svg" xmlns:xlink="http://www.w3.org/1999/xlink" x="0px" y="0px"
	 viewBox="0 0 276.995 317.265" enable-background="new 0 0 276.995 317.265" xml:space="preserve">
<g id="pK78oz.tif">
	<g>
		<path d="M146.025,0c1.191,1.511,2.312,3.084,3.586,4.521c5.031,5.673,10.21,11.219,15.152,16.968
			c10.972,12.765,16.92,27.792,19.669,44.247c2.946,17.636,0.277,34.696-5.08,51.5c-4.012,12.584-8.034,25.165-12.049,37.748
			c-0.245,0.767-0.465,1.542-0.685,2.274c3.968,1.859,7.809,3.658,11.718,5.489c1.703-3.366,3.367-6.934,5.274-10.367
			c5.766-10.377,12.603-19.937,22.009-27.375c11.629-9.196,24.944-13.48,39.724-12.778c15.965,0.758,27.401,11.126,30.519,27.241
			c0.328,1.694,0.753,3.369,1.134,5.053c0,4.391,0,8.782,0,13.172c-0.752,3.919-1.435,7.853-2.269,11.754
			c-2.346,10.984-6.235,21.267-13.838,29.818c-6.313,7.1-14.251,11.765-22.971,15.22c-3.544,1.404-7.156,2.637-11.051,4.063
			c-0.497-2.915-0.99-5.651-1.425-8.396c-0.846-5.34-2.122-10.549-4.404-15.485c-1.892-4.094-4.435-5.623-8.945-5.258
			c-1.935,0.157-3.871,0.309-5.809,0.439c-0.404,0.027-0.815-0.055-1.659-0.121c4.611-3.531,8.746-6.981,14.392-7.633
			c3.918-0.452,6.309,0.863,7.148,4.669c1.563,7.084,2.794,14.241,4.158,21.369c0.151,0.789,0.265,1.586,0.417,2.511
			c6.427-2.322,11.971-5.767,16.866-10.268c13.773-12.665,20.195-28.333,19.227-47.037c-0.81-15.651-11.462-28.965-26.091-32.296
			c-9.872-2.248-18.861,0.261-27.206,5.612c-10.394,6.664-17.577,16.131-23.108,26.939c-2.046,3.999-3.567,8.265-5.375,12.388
			c-0.428,0.975-0.238,1.547,0.59,2.226c8.816,7.22,15.275,16.199,19.395,26.79c2.622,6.74,4.218,13.713,4.264,21.045
			c0.046,7.251-0.285,14.403-2.618,21.336c-0.468,1.391-0.99,2.765-1.488,4.146c-0.176-0.011-0.352-0.022-0.528-0.034
			c-0.107-0.807-0.289-1.611-0.31-2.42c-0.153-5.762-0.018-11.545-0.463-17.283c-0.727-9.377-2.167-18.64-6.229-27.289
			c-4.55-9.689-10.998-17.774-20.083-23.547c-3.312-2.104-6.841-3.886-10.359-5.639c-1.534-0.764-1.412-2.032-1.654-3.293
			c-0.216-1.123,0.131-2.653-1.725-2.788c-0.068,0.165-0.154,0.277-0.154,0.388c-0.011,5.177-0.017,5.155-4.914,6.541
			c-5.001,1.416-10.008,2.817-14.969,4.365c-1.581,0.493-2.366,0.185-2.727-1.404c-0.455-2.003-0.85-4.03-1.467-5.984
			c-0.958-3.03-2.082-6.008-3.223-9.257c8.131-0.667,16.127-0.487,24.136,1.643c1.387-4.893,2.801-9.622,4.064-14.391
			c3.077-11.614,6.447-23.167,9.044-34.89c5.082-22.937,1.924-45.094-7.687-66.371c-3.171-7.02-8.282-12.818-13.002-18.833
			c-2.782-3.545-5.49-7.149-8.344-10.874c-2.773,3.221-5.568,6.418-8.309,9.662c-4.813,5.695-9.795,11.262-14.337,17.166
			c-6.431,8.361-9.209,18.255-10.936,28.48c-2.299,13.605-1.198,27.123,1.318,40.565c3.156,16.865,6.449,33.704,9.687,50.553
			c0.022,0.115,0.112,0.216,0.24,0.451c3.098-0.762,6.257-1.445,9.354-2.34c1.691-0.488,2.528-0.207,3.272,1.533
			c1.983,4.637,3.835,9.247,3.526,14.442c-0.074,1.241-0.524,1.885-1.656,2.381c-7.11,3.12-14.208,6.271-21.263,9.513
			c-1.231,0.566-1.989,0.196-2.862-0.508c-4.039-3.255-6.681-7.567-9.131-12.026c-0.18-0.327-0.339-0.666-0.557-1.095
			c-1.166,0.489-1.803,0.974-0.9,2.307c1.891,2.792,3.804,5.584,5.451,8.52c0.889,1.584,1.361,3.439,1.771,5.229
			c0.112,0.488-0.542,1.417-1.085,1.746c-4.859,2.944-9.154,6.564-13.143,10.583c-1.265,1.274-2.912,1.417-4.35,0.603
			c-2.168-1.227-4.192-2.72-6.193-4.213c-0.292-0.218-0.332-1.156-0.13-1.598c3.772-8.246,8.969-15.466,15.638-21.632
			c0.468-0.432,0.908-1.421,0.736-1.944c-6.116-18.529-17.222-33.054-34.849-41.903c-11.778-5.913-23.985-6.367-35.729,0.105
			c-19.257,10.612-24.285,35.614-11.187,53.852c7.024,9.78,16.766,15.601,27.85,19.548c1.237,0.44,2.496,0.82,3.749,1.211
			c0.166,0.052,0.362,0.007,0.747,0.007c0.569-2.182,1.098-4.415,1.739-6.614c0.647-2.22,1.306-4.446,2.137-6.601
			c1.858-4.821,5.218-7.093,10.419-7.042c5.868,0.057,11.308,1.858,16.583,4.569c-1.248,0-2.502,0.076-3.744-0.012
			c-8.803-0.629-13.81,2.358-17.361,10.425c-2.656,6.034-3.723,12.465-4.58,18.929c-0.208,1.571-0.617,1.976-2.233,1.609
			c-8.996-2.044-17.857-4.443-26.189-8.54c-14.802-7.277-23.345-19.235-26.59-35.22c-0.468-2.304-1.003-4.595-1.507-6.892
			c0-3.889,0-7.778,0-11.667c0.629-2.862,1.158-5.75,1.904-8.581c3.249-12.32,9.38-22.648,20.7-29.244
			c11.295-6.581,23.169-6.881,35.391-3.076c13.306,4.142,23.589,12.417,31.988,23.294c6.359,8.235,11.401,17.217,15.285,26.858
			c0.25,0.621,0.508,1.239,0.769,1.876c3.546-2.077,6.935-4.062,10.588-6.202c-0.785-2.916-1.567-6.048-2.471-9.145
			c-4.472-15.317-9.044-30.606-13.443-45.944c-2.524-8.8-4.645-17.699-4.678-26.945c-0.079-21.694,8.302-39.496,24.573-53.736
			c6.13-5.365,12.167-10.843,18.079-16.446c2.192-2.077,3.903-4.661,5.834-7.014C145.021,0,145.523,0,146.025,0z"/>
		<path d="M136.239,317.265c-1.129-1.611-1.993-3.531-3.44-4.771c-3.314-2.84-6.78-5.549-10.428-7.941
			c-4.919-3.225-10.067-6.101-15.115-9.13c-0.53-0.318-1.043-0.662-1.761-1.118c3.645-5.538,7.238-10.995,10.979-16.677
			c-18.997-9.546-31.17-24.219-36.051-44.542c-3.038-12.65-2.133-25.174,2.454-37.247c2.807,1.584,5.658,3.008,8.273,4.779
			c0.784,0.531,1.214,2.012,1.282,3.092c0.194,3.058,0.043,6.137,0.165,9.202c0.182,4.554,0.415,9.109,0.742,13.655
			c1.064,14.787,6.847,27.42,17.444,37.813c1.519,1.49,3.135,2.882,4.725,4.299c2.161,1.926,3.419,4.246,3.436,7.214
			c0.004,0.802,0.45,1.595,0.523,2.408c0.038,0.426-0.227,0.925-0.469,1.321c-1.269,2.072-2.574,4.121-3.824,6.111
			c4.04,3.444,8.003,6.707,11.833,10.12c4.337,3.864,8.99,7.462,11.736,12.8c0.475,0.923,1.176,1.091,1.964,0.348
			c1.316-1.24,2.806-2.354,3.881-3.779c5.469-7.255,10.813-14.605,16.254-21.881c0.483-0.646,1.331-1.344,2.054-1.397
			c0.789-0.058,1.859,0.416,2.372,1.025c0.355,0.421,0.258,1.665-0.121,2.198c-7.137,10.068-14.037,20.333-22.91,29.027
			c-1.149,1.125-2.489,2.054-3.741,3.074C137.745,317.265,136.992,317.265,136.239,317.265z"/>
		<path d="M138.648,254.268c1.554-4.778,0.971-8.724-2.316-12.123c-1.654-1.711-3.38-3.363-4.916-5.175
			c-0.779-0.919-1.452-2.076-1.735-3.232c-0.365-1.494-0.949-3.236,0.96-4.331c2.377-1.363,3.282-1.383,5.16,0.538
			c5.059,5.174,7.44,11.445,6.508,18.623c-0.955,7.351-9.288,10.652-15.287,6.34c-3.249-2.336-5.577-5.456-7.265-8.958
			c-2.358-4.89-4.606-9.865-6.432-14.971c-1.584-4.428-1.976-9.165-1.527-13.878c0.196-2.055,1.077-3.917,2.939-5.321
			c0.212,0.434,0.288,0.853,0.539,1.058c0.853,0.699,1.815,1.913,2.649,1.846c1.481-0.117,2.429-1.391,2.508-3.049
			c0.127-2.651,0.136-2.665,2.629-2.031c4.057,1.032,7.357,3.413,10.48,6.046c2.627,2.216,5.143,4.563,7.988,7.102
			c2.151-5.939,2.496-12.489,7.909-16.889c1.44,2.853,3.069,5.65,4.303,8.611c3.023,7.253,5.868,14.58,8.772,21.882
			c0.207,0.519,0.332,1.075,0.46,1.621c0.754,3.218,0.789,5.709-2.991,7.626c-4.518,2.293-6.869,6.765-8.19,11.659
			c-0.431,1.596,0.049,3.049,1.265,3.845c0.91,0.596,2.363,0.761,3.47,0.557c1.435-0.264,2.082-1.948,1.19-3.108
			c-1.868-2.432-0.828-4.411,0.846-6.125c1.187-1.216,2.692-2.285,4.255-2.943c6.749-2.84,13.538-5.594,20.377-8.208
			c6.513-2.489,10.737-6.976,12.552-13.679c0.698-2.579,3.078-3.291,4.842-4.687c0.151-0.12,0.975,0.247,1.121,0.559
			c0.309,0.66,0.503,1.43,0.52,2.16c0.079,3.385,0.033,6.773,0.126,10.158c0.072,2.611-0.862,4.806-2.614,6.633
			c-14.559,15.187-31.86,25.401-52.829,28.79c-7.027,1.136-14.079,1.055-21.182,0.18c-3.452-0.425-6.197-1.499-8.529-4.021
			c-1.398-1.512-3.096-2.744-4.547-4.214c-0.564-0.571-0.818-1.448-1.213-2.186c0.706-0.295,1.409-0.594,2.118-0.88
			c0.112-0.045,0.254-0.011,0.372-0.047c3.849-1.16,7.401-0.461,10.991,1.267c3.152,1.518,6.627,1.503,9.924,0.327
			c10.866-3.875,17.629-12.418,17.538-24.24c-0.02-2.585-0.805-4.799-2.946-6.571c-3.813-3.154-7.691-6.073-12.813-6.629
			c-3.745-0.406-7.164,0.61-9.954,3.048c-1.137,0.994-2.12,2.656-2.327,4.133c-0.711,5.074,0.155,9.939,3.056,14.301
			c0.275,0.414,0.572,0.856,0.964,1.143C131.733,249.291,135.122,251.722,138.648,254.268z"/>
		<path d="M148.962,182.409c1.709,2.837,2.216,5.559,1.817,8.407c-0.091,0.648-0.723,1.469-1.323,1.754
			c-3.337,1.585-6.68,3.198-10.148,4.451c-1.822,0.658-3.896,0.695-5.868,0.84c-1.672,0.123-2.832-0.639-3.25-2.412
			c-0.317-1.347-0.968-2.548-2.636-2.409c-1.222,0.102-2.197,0.542-2.688,1.929c-0.597,1.686-0.208,3.176,1.083,3.994
			c1.872,1.186,3.958,2.178,6.087,2.784c3.479,0.991,6.962,0.387,10.339-0.809c0.528-0.187,1.12-0.54,1.6-0.436
			c0.743,0.16,1.578,0.509,2.046,1.058c0.221,0.259-0.191,1.256-0.539,1.765c-1.06,1.549-2.264,2.999-3.342,4.536
			c-0.735,1.049-1.465,1.23-2.675,0.66c-2.259-1.065-4.556-2.13-6.945-2.824c-9.077-2.637-17.124-0.458-23.913,5.926
			c-3.353,3.153-4.41,7.59-5.365,11.984c-0.22,1.014-1.071,1.981-1.844,2.759c-0.78,0.786-1.821,1.316-2.753,1.949
			c-1.827,1.24-2.44,1.078-2.924-1.143c-0.531-2.441-1.107-4.937-1.119-7.412c-0.026-5.753,0.304-11.508,0.426-17.263
			c0.036-1.704,0.802-2.935,1.939-4.108c6.415-6.617,14.119-11.344,22.281-15.448c11.513-5.789,23.514-10.291,35.877-13.865
			c2.393-0.692,4.761-1.51,7.195-2.005c1.275-0.259,2.796-0.281,3.987,0.17c8.93,3.383,16.33,8.903,22.204,16.439
			c1.522,1.953,0.97,3.263-1.246,4.271c-4.005,1.822-7.648,1.965-11.603-0.491c-5.52-3.427-11.124-2.506-16.495,0.807
			c-1.246,0.769-2.646,1.288-4.137,2c-0.406-2.038-0.549-3.862-1.152-5.518c-0.912-2.503-2.008-4.966-3.296-7.296
			c-0.75-1.358-2.235-2.077-3.874-1.638c-1.697,0.454-3.673,3.35-3.548,4.943c0.131,1.679,1.627,3.643,3.042,3.971
			C147.835,185.106,148.421,184.002,148.962,182.409z"/>
		<path d="M152.132,274.598c0.433-1.925,1.603-2.579,3.13-2.961c7.396-1.848,14.376-4.749,21.072-8.367
			c4.028-2.176,5.356-1.739,7.233,2.501c1.658,3.747,2.159,3.103-1.57,5.785c-7.591,5.461-16.033,8.973-25.183,10.855
			c-1.137,0.234-1.909-0.011-2.29-1.01C153.668,279.156,152.922,276.868,152.132,274.598z"/>
		<path d="M166.158,215.726c3.467-1.024,6.393-1.836,9.286-2.756c2.96-0.942,5.469-0.213,6.878,2.534
			c1.504,2.934,2.93,5.958,3.928,9.09c1.75,5.487-0.243,10.025-5.304,13.031c-2.858,1.698-3.012,1.776-4.513-1.163
			C172.898,229.545,169.525,222.546,166.158,215.726z"/>
		<path d="M182.895,191.66c2.31-0.792,4.409-1.589,6.558-2.22c1.488-0.437,3.486,0.659,4.491,2.414
			c2.848,4.972,4.775,10.295,5.859,15.92c0.366,1.899,0.708,3.803,1.041,5.708c0.657,3.754,0.361,7.153-3.733,9.194
			c0.135-1.389,0.221-2.77,0.413-4.136c0.415-2.949-0.284-5.336-3.152-6.748c-0.557-0.274-1.078-0.645-1.565-1.034
			c-3.186-2.545-6.701-4.078-10.886-3.671c-0.398,0.039-0.816-0.131-1.362-0.229C182.353,201.951,184.553,197.222,182.895,191.66z"
			/>
		<path d="M152.456,282.988c-0.378,0.068-0.968,0.239-1.565,0.271c-9.573,0.51-19.05,0.179-28.176-3.233
			c-1.721-0.644-2.395-2.281-1.874-4.733c0.337-1.59,1.457-2.354,3.424-2.036c7.741,1.253,15.474,1.238,23.199-0.051
			c1.675-0.279,2.412,0.439,2.803,1.952C150.921,277.684,151.667,280.186,152.456,282.988z"/>
		<path d="M158.071,192.742c1.934-0.598,3.739-1.312,5.611-1.701c2.845-0.59,4.71,1.353,6.092,3.271
			c2.384,3.309,3.957,7.077,4.164,11.25c0.125,2.527-2.518,5.156-4.986,4.989c-0.399-0.027-0.829-0.487-1.134-0.842
			c-1.591-1.853-2.1-1.896-4.006-0.093C161.695,204.072,159.009,198.811,158.071,192.742z"/>
		<path d="M186.751,267.516c-1.083-1.95-2.258-3.856-3.215-5.866c-0.614-1.291-0.357-2.538,0.986-3.419
			c6.048-3.966,11.331-8.828,16.329-14.021c0.216-0.225,0.417-0.561,0.679-0.627c0.649-0.163,1.331-0.199,1.999-0.286
			c0.062,0.665,0.384,1.445,0.147,1.976c-3.06,6.853-7.274,12.932-12.435,18.38c-1.281,1.352-2.337,2.919-3.497,4.387
			C187.414,267.865,187.082,267.691,186.751,267.516z"/>
		<path d="M102.616,227.853c0,1.48-0.049,2.463,0.008,3.44c0.245,4.181,0.439,8.368,0.849,12.533
			c0.096,0.974,0.767,2.078,1.503,2.77c3.509,3.299,7.135,6.473,10.71,9.702c0.349,0.315,0.63,0.706,0.943,1.061
			c-0.026,0.2-0.052,0.4-0.078,0.601c-2.399,0-4.889,0.393-7.166-0.135c-1.574-0.365-3.217-1.741-4.2-3.116
			c-3.888-5.437-6.627-11.456-8.004-18.031c-0.519-2.476-0.142-4.737,2.147-6.325C100.3,229.679,101.215,228.923,102.616,227.853z"
			/>
	</g>
</g>
</svg>
