<?xml version="1.0" encoding="utf-8"?>
<!-- Generator: Adobe Illustrator 22.1.0, SVG Export Plug-In . SVG Version: 6.00 Build 0)  -->
<svg version="1.1" id="Layer_1" xmlns="http://www.w3.org/2000/svg" xmlns:xlink="http://www.w3.org/1999/xlink" x="0px" y="0px"
	 viewBox="0 0 292.641 291.745" enable-background="new 0 0 292.641 291.745" xml:space="preserve">
<path fill="#2C5726" d="M0,109.806c7.296,1.228,12.869,2.166,18.443,3.103c0.288-0.477,0.576-0.954,0.864-1.432
	C2.325,99.188-1.237,83.38,6.415,64.559c0.077,16.846,2.699,32.073,21.009,39.279c14.407,5.67,31.384,6.357,39.458-0.541
	c-15.061-9.964-24.382-24.274-30.69-40.71c-4.396-11.453-7.211-23.23-4.704-35.635C33.65,16.25,39.504,8.691,50.755,5.14
	C31.66,29.935,39.544,52.694,55.674,76.233c1.247-12.756,0.45-24.997,10.291-35.444c-4.109,16.231-1.75,30.319,5.797,43.533
	c6.493,11.367,15.228,20.019,28.449,23.438c4.292,1.11,8.311,3.342,12.386,5.209c3.831,1.755,7.117,0.413,8.257-3.741
	c1.132-4.125,2.063-8.306,3.092-12.504c0.598,0.229,1.028,0.264,1.095,0.438c4.016,10.43,4,10.18,15.114,9.6
	c6.27-0.327,12.67-0.187,18.86,0.746c3.728,0.562,5.231-0.574,6.366-3.556c0.987-2.595,2.004-5.178,3.328-8.592
	c1.256,4.956,2.31,9.048,3.327,13.149c1.245,5.018,4.062,6.321,8.588,4.35c5.32-2.317,10.731-4.448,16.183-6.437
	c14.088-5.14,22.069-16.103,27.723-29.146c4.829-11.138,6.131-22.721,3.334-34.76c8.859,9.007,8.001,20.899,9.543,33.526
	c7.877-11.515,13.746-22.638,15.761-35.34c2.118-13.349-4.654-24.336-11.049-36.027c10.988,3.734,16.93,11.112,19.091,21.584
	c3.262,15.801-1.326,30.35-7.964,44.381c-6.209,13.123-14.714,24.49-27.83,32.986c14.085,7.56,27.227,5.029,40.452-0.041
	c17.455-6.693,20.266-21.339,20.368-37.663c9.249,10.488,3.8,30.287-12.004,46.989c5.693-0.932,11.386-1.864,18.408-3.013
	c-2.19,2.717-3.689,5.681-6.09,7.333c-5.704,3.925-12.34,4.535-19.146,3.889c-18.538-1.76-37.005-4.818-55.749-2.523
	c-9.717,1.19-18.834,3.799-27.253,8.961c-3.146,1.929-3.602,3.634-1.83,6.777c3.181,5.644,6.176,11.408,8.943,17.266
	c4.695,9.942,4.157,19.689-1.86,28.984c-2.079,3.212-4.215,6.403-6.548,9.432c-13.599,17.658-18.218,37.704-16.302,59.983
	c-0.34-0.131-0.812-0.286-1.259-0.494c-0.576-0.268-1.133-0.578-2.313-1.189c-2.769,8.109-5.441,15.936-7.907,23.159
	c-3.143,1.23-6.09,2.383-9.107,3.563c-2.189-0.99-4.874-2.203-8.766-3.963c-2.16-6.322-4.875-14.267-7.732-22.626
	c-1.676,0.818-2.764,1.349-3.658,1.786c2.011-22.427-2.723-42.917-16.792-60.939c-6.302-8.072-12.521-16.477-10.707-27.522
	c0.845-5.145,3.151-10.089,5.098-15.003c1.834-4.629,4.027-9.119,6.141-13.633c1.324-2.826,0.407-4.459-2.183-6.079
	c-11.937-7.464-25.292-9.457-38.84-9.141c-14.449,0.336-28.87,2.03-43.296,3.221c-6.977,0.576-13.747-0.026-19.562-4.184
	C3.73,115.39,2.338,112.703,0,109.806z M145.649,243.023c0.452-0.085,0.904-0.17,1.356-0.255c0.766,5.61,1.532,11.221,2.421,17.74
	c9.079-11.624,10.969-35.197,4.273-43.746c-0.67,0.734-1.341,1.469-2.134,2.338c-2.035-5.222-2.035-5.222-8.301-4.738
	c-0.6,1.455-1.212,2.939-1.866,4.526c-1.055-0.855-1.861-1.508-2.725-2.209c-6.102,12.074-3.765,34.385,4.986,43.513
	C144.37,254.057,145.009,248.54,145.649,243.023z M115.278,145.755c-4.052,2.774-7.724,8.133-8.932,15.599
	c-0.681,4.211-0.268,8.891,0.943,12.978c0.513,1.731,4.272,3.255,6.683,3.474c2.881,0.261,5.863-0.816,6.634-4.662
	c0.26-1.299,1.478-2.709,2.647-3.469c4.973-3.236,5.687-9.175,1.629-13.304C121.553,152.982,118.492,149.329,115.278,145.755z
	 M178.049,145.247c-3.591,4.031-6.421,7.458-9.517,10.625c-4.758,4.867-4.304,10.124,1.341,13.853
	c0.879,0.581,2.155,1.44,2.212,2.244c0.374,5.264,4.165,5.958,8.095,6.084c4.658,0.149,6.382-3.468,6.926-7.117
	C188.603,160.89,184.578,152.684,178.049,145.247z"/>
<path fill="#2C5726" d="M289.997,123.858c7.978,36.538-3.098,97.163-53.495,136.832c-49.633,39.069-119.825,41.561-172.078,5.851
	C8.585,228.38-5.582,165.102,2.739,123.64c1.047,0.563,1.966,1.342,3.005,1.571c7.887,1.737,7.581,7.116,7.396,13.739
	c-1.56,55.984,22.079,98.813,71.263,124.96c80.409,42.748,176.525-4.668,193.535-94.431c2.138-11.285,1.467-23.149,1.562-34.749
	c0.033-4.032-0.069-7.043,4.746-8.036C286.254,126.28,288.052,124.852,289.997,123.858z"/>
<path fill="#2C5726" d="M50.141,53.144C45.485,40.91,45.815,39.64,55.09,32.196c54.415-43.671,132.132-42.769,185.195,1.815
	c5.064,4.254,6.466,8.247,4.218,14.047c-0.571,1.474-1.005,3-1.698,5.097c-26.99-26.951-59.095-41.081-96.594-41.026
	C108.895,12.185,76.962,26.318,50.141,53.144z"/>
<path fill="#2C5726" d="M22.413,94.601c-6.382-5.554-7.747-12.082-3.813-18.892c3.047-5.274,6.367-10.39,10.063-16.382
	c1.897,4.878,3.511,8.756,4.867,12.722c0.305,0.893-0.03,2.23-0.51,3.129C29.597,81.596,26.061,87.954,22.413,94.601z"/>
<path fill="#2C5726" d="M264.217,58.91c4.527,7.747,9.26,14.087,12.046,21.191c2.075,5.292-1.606,10.297-5.536,14.961
	c-3.959-7.282-7.949-14.045-11.243-21.131c-0.721-1.551,0.979-4.275,1.675-6.423C261.922,65.149,262.813,62.831,264.217,58.91z"/>
</svg>
