<?xml version="1.0" encoding="utf-8"?>
<!-- Generator: Adobe Illustrator 22.1.0, SVG Export Plug-In . SVG Version: 6.00 Build 0)  -->
<svg version="1.1" id="Layer_1" xmlns="http://www.w3.org/2000/svg" xmlns:xlink="http://www.w3.org/1999/xlink" x="0px" y="0px"
	 viewBox="0 0 292.71 292.836" enable-background="new 0 0 292.71 292.836" xml:space="preserve">
<path fill="#396AB1" d="M146.059,292.836C67.133,292.173,0.096,230.304,0,146.445C-0.093,64.654,64.346,0.009,146.358,0
	c83.631-0.009,147.696,67.381,146.331,148.985C291.361,228.325,227.37,292.313,146.059,292.836z M281.587,146.6
	c-0.663-74.714-59.574-135.083-134.873-135.289C71.493,11.104,11.527,71.02,11.302,145.881
	c-0.227,75.725,60.274,135.523,134.95,135.533C221.362,281.423,280.603,221.539,281.587,146.6z"/>
<path fill="#396AB1" d="M159.497,67.985c-13.863,11.676-27.311,23.001-41.276,34.762c4.554,5.409,8.709,10.538,13.067,15.487
	c28.057,31.868,56.157,63.698,84.246,95.538c7.047,7.989,7.035,9.592-0.291,17.372c-1.023,1.087-2.117,2.138-3.309,3.031
	c-8.942,6.692-11.83,6.393-18.723-2.213c-28.414-35.476-56.783-70.99-85.181-106.479c-6.703-8.377-6.758-8.397-15.08-1.605
	c-5.526,4.511-10.945,9.153-16.898,14.144c-9.779-11.642-19.343-23.027-29.253-34.824c7.167-6.04,13.978-11.832,20.854-17.544
	c2.131-1.77,3.483-3.055,2.24-6.528c-1.792-5.008,2.021-8.383,5.681-11.165c3.339-2.539,6.766-4.837,11.365-2.347
	c1.191,0.645,3.895,0.628,4.541-0.178c6.976-8.702,15.47-8.408,25.368-6.032c13.363,3.208,27.058,5.032,40.605,7.477
	C157.913,66.964,158.32,67.337,159.497,67.985z"/>
<path fill="#396AB1" d="M260.111,119.721c-8.136,9.721-16.101,19.237-24.516,29.291c-14.757-10.513-29.192-20.797-44.197-31.487
	c-8.087,9.88-16.247,19.849-24.698,30.175c-5.214-5.956-10.112-11.552-15.341-17.526c7.792-9.134,15.416-18.071,22.554-26.438
	c-6.763-7.381-13.123-14.32-19.805-21.612c6.831-5.831,13.855-11.827,22.171-18.927c-10.84-2.088-20.27-3.904-30.676-5.908
	c5.644-6.791,10.88-13.09,16.387-19.716C198.281,60.505,230.525,87.794,260.111,119.721z"/>
<path fill="#396AB1" d="M125.758,158.893c5.005,6.282,9.666,11.914,14.006,17.783c0.771,1.042,0.896,3.621,0.15,4.569
	c-14.525,18.457-29.156,36.833-44.016,55.021c-1.2,1.469-4.519,2.492-6.327,1.954c-7.48-2.224-13.256-6.999-16.59-14.143
	c-0.708-1.518-0.482-4.458,0.561-5.662C90.659,198.665,107.976,179.088,125.758,158.893z"/>
</svg>
