<?xml version="1.0" encoding="utf-8"?>
<!-- Generator: Adobe Illustrator 22.1.0, SVG Export Plug-In . SVG Version: 6.00 Build 0)  -->
<svg version="1.1" id="Layer_1" xmlns="http://www.w3.org/2000/svg" xmlns:xlink="http://www.w3.org/1999/xlink" x="0px" y="0px"
	 viewBox="0 0 433.02 432.601" enable-background="new 0 0 433.02 432.601" xml:space="preserve">
<path fill="#7F1716" d="M196.188,309.543c2.412-0.151,3.866-0.241,5.909-0.369c0.134-2.703,0.373-5.283,0.374-7.863
	c0.02-42.304,0.01-84.609,0.008-126.913c0-6.888-0.029-7.246,6.948-7.884c5.245-0.48,10.587,0.106,15.886,0.222
	c4.39,0.096,5.714,2.245,5.672,6.657c-0.218,22.816-0.094,45.635-0.092,68.452c0.002,20.653-0.012,41.305,0.017,61.958
	c0.004,2.532-0.813,5.582,3.272,6.062c0.539,0.063,1.414,1.198,1.359,1.762c-0.498,5.162,3.083,4.518,6.229,4.518
	c11.992,0.001,23.984,0.027,35.975-0.032c2.738-0.013,4.769,0.161,5.02,3.781c2.048,29.538-3.326,57.09-21.804,81.028
	c-11.148,14.441-25.633,24.6-42.52,31.309c-1.578,0.627-3.915,0.407-5.53-0.283c-37.33-15.956-57.929-44.563-62.87-84.509
	c-1.096-8.859-0.425-17.933-0.625-26.907c-0.077-3.452,1.508-4.515,4.894-4.464c11.656,0.176,23.317,0.004,34.975,0.117
	C193.667,316.228,197.759,316.337,196.188,309.543z"/>
<path fill="#7F1716" d="M61.266,95.994c5.053,3.334,9.834,6.302,14.419,9.549c16.331,11.566,32.392,23.524,48.933,34.778
	c22.449,15.273,45.224,30.069,67.925,44.97c2.744,1.801,4.172,3.648,4.12,7.196c-0.219,14.993-0.177,29.992-0.017,44.987
	c0.034,3.218-0.89,5.3-3.702,6.91c-3.318,1.899-6.283,4.442-9.674,6.17c-1.236,0.63-3.299-0.122-4.898-0.559
	c-0.666-0.182-1.123-1.175-1.646-1.823c-10.087-12.505-9.814-14.152,3.45-22.669c5.011-3.218,9.924-6.59,15.395-10.234
	c-1.476-1.238-2.363-2.137-3.391-2.823c-36.461-24.297-72.505-49.264-109.675-72.423c-10.819-6.741-22.09-13.07-32.999-19.846
	c-3.682-2.287-4.502,0.917-5.389,2.882c-5.746,12.735-11.946,25.322-16.741,38.418c-8.612,23.521-14.078,47.888-16.956,72.803
	c-0.165,1.43-0.504,2.84-1.946,4.566c-0.694-1.451-1.581-2.842-2.053-4.362c-7.745-24.905-8.046-50.156-3.239-75.591
	c3.48-18.417,9.184-36.136,17.633-52.891c1.503-2.98,0.949-4.644-1.758-5.993c-2.885-1.438-3.785-3.784-2.627-6.626
	c1.554-3.813,2.872-7.928,5.316-11.132c5.394-7.07,7.037-7.151,15.095-2.849c30.998-36.34,67.693-63.189,117.27-67.305
	c-16.607,12.482-33.581,24.512-49.719,37.574C88.077,62.877,73.659,78.083,61.266,95.994z"/>
<path fill="#7F1716" d="M237.344,215.074c8.373,5.607,15.872,10.821,23.588,15.693c2.837,1.791,3.677,3.642,1.969,6.441
	c-2.591,4.247-5.255,8.451-7.976,12.616c-1.487,2.276-3.199,2.134-5.486,0.716c-12.852-7.97-12.885-7.915-12.884-22.996
	c0.001-11.329,0.177-22.662-0.093-33.985c-0.095-3.991,1.227-6.405,4.515-8.569c32.14-21.151,64.339-42.218,96.197-63.787
	c11.707-7.926,22.549-17.128,34.231-26.089c-24.736-34.036-57.236-59.808-92.614-82.703c23.969,0.408,45.295,8.796,65.325,20.954
	c19.969,12.121,36.955,27.738,51.485,45.652c0.738,0,1.124,0.117,1.377-0.017c7.246-3.836,9.284-3.627,14.246,3.059
	c2.322,3.129,3.775,6.958,5.307,10.602c1.313,3.123,0.742,5.849-2.731,7.438c-2.635,1.206-2.924,2.9-1.599,5.616
	c12.882,26.395,20.238,54.228,20.791,83.665c0.296,15.74-1.813,31.231-6.591,46.289c-0.367,1.157-1.181,2.172-2.85,3.126
	c-0.263-1.545-0.574-3.084-0.781-4.637c-5.033-37.739-14.562-74.151-32.181-108.129c-4.646-8.96-3.713-8.017-11.241-3.063
	c-4.591,3.022-8.941,6.477-13.754,9.083c-43.334,23.463-82.45,53.452-123.853,79.895
	C240.506,212.734,239.347,213.644,237.344,215.074z"/>
<path fill="#7F1716" d="M230.606,112.929c-9.444,0-18.352,0-27.786,0c-0.112-1.724-0.321-3.49-0.326-5.256
	c-0.03-9.49-0.13-18.982,0.059-28.468c0.064-3.23-1.091-5.077-3.794-6.82c-17.733-11.441-28.562-27.514-31.894-48.482
	c-0.233-1.464-0.166-3.563-1.077-4.239c-6.585-4.891-1.894-11.599-2.958-17.332c-0.103-0.553,1.328-1.756,2.24-2.041
	c1.223-0.382,2.635-0.198,3.965-0.199c31.467-0.007,62.933,0.07,94.399-0.091c4.478-0.023,6.539,1.115,5.982,5.87
	c-0.327,2.794,0.13,5.682-0.21,8.473c-0.187,1.534-1.282,2.961-1.99,4.425c-0.547,1.131-1.484,2.197-1.642,3.374
	c-2.911,21.649-13.962,38.053-31.8,50.304c-1.542,1.059-2.702,3.748-2.757,5.716c-0.275,9.815-0.106,19.642-0.131,29.465
	C230.882,109.398,230.703,111.17,230.606,112.929z M216.322,18.656c0-0.008,0-0.016,0-0.024c-8.983,0-17.966-0.012-26.948,0.004
	c-5.782,0.011-6.282,0.627-4.872,6.443c3.901,16.083,14.259,26.68,28.87,33.514c1.342,0.628,3.416,0.826,4.712,0.246
	c15.639-6.996,26.284-18.314,30.05-35.438c0.727-3.308,0.003-4.906-3.867-4.816C234.956,18.802,225.637,18.656,216.322,18.656z"/>
<path fill="#7F1716" d="M297.375,282.178c2.813-3.953,5.076-7.441,7.663-10.669c2.025-2.528,1.546-4.254-0.688-6.313
	c-2.919-2.69-5.541-5.702-8.291-8.575c0.354-0.4,0.708-0.8,1.061-1.201c1.072,0.529,2.218,0.949,3.207,1.604
	c34.556,22.915,69.052,45.923,103.704,68.692c3.998,2.627,5.154,5.185,3.022,9.317c-0.839,1.625-1.521,3.352-2.527,4.865
	c-5.527,8.314-7.504,8.701-15.715,3.243c-28.707-19.084-57.412-38.169-86.113-57.261
	C301.054,284.788,299.455,283.628,297.375,282.178z"/>
<path fill="#7F1716" d="M137.141,256.647c-2.846,2.874-5.568,5.888-8.579,8.578c-2.347,2.097-2.53,3.783-0.498,6.27
	c2.62,3.207,4.828,6.751,7.472,10.519c-1.217,0.976-2.272,1.964-3.459,2.752c-30.384,20.197-60.818,40.318-91.126,60.628
	c-3.314,2.221-5.68,2.136-8.214-0.657c-1.23-1.355-2.583-2.622-3.654-4.093c-5.986-8.217-5.51-10.998,2.767-16.504
	c33.289-22.146,66.583-44.283,99.882-66.414c1.333-0.886,2.733-1.67,4.101-2.501C136.268,255.7,136.704,256.174,137.141,256.647z"/>
<path fill="#7F1716" d="M250.998,430.443c5.286-6.231,11.885-14.112,18.642-21.855c0.895-1.026,2.533-1.542,3.925-1.976
	c36.478-11.366,67.41-31.262,92.487-60.137c1.839-2.118,3.299-2.787,5.798-0.913c3.708,2.78,7.685,5.2,11.504,7.745
	C368.481,384.456,286.879,430.723,250.998,430.443z"/>
<path fill="#7F1716" d="M184.999,431.019c-55.194-9.016-99.935-34.337-136.135-76.902c4.871-3.299,9.213-6.518,13.888-9.145
	c0.832-0.467,3.45,1.169,4.56,2.433c17.123,19.518,37.306,35.124,60.538,46.582c9.51,4.69,19.715,7.955,29.495,12.123
	c2.629,1.12,5.134,2.885,7.222,4.856C171.167,417.196,177.543,423.664,184.999,431.019z"/>
<path fill="#7F1716" d="M142.383,193.245c4.56,2.971,8.279,5.137,11.647,7.755c0.942,0.732,1.362,2.876,1.152,4.239
	c-4.331,28.043,7.462,52.311,32.178,66.497c1.59,0.912,2.894,3.413,3.147,5.331c0.492,3.736,0.144,7.582,0.144,12.633
	c-4.397-2.002-8.226-3.166-11.369-5.328c-3.757-2.584-6.279-1.884-8.795,1.405c-1.821,2.379-3.75,4.676-5.754,7.163
	c-9.716-6.291-16.719-13.501-22.635-21.775c-0.539-0.754,0.153-3.39,1.06-4.02c7.49-5.206,8.442-10.946,3.04-18.497
	c-2.329-3.256-3.268-7.637-4.305-11.645c-0.808-3.121-2.191-4.307-5.471-4.354c-11.068-0.161-11.295-0.267-11.975-11.363
	c-0.344-5.616,0.313-11.292,0.514-16.942c0.101-2.823,1.358-4.338,4.378-4.011c0.988,0.107,1.999-0.02,2.998,0.019
	C137.183,200.539,142.478,201.543,142.383,193.245z"/>
<path fill="#7F1716" d="M290.561,193.25c0.347,7.298,4.606,7.35,9.495,7.164c7.769-0.295,8.124-0.098,8.45,7.649
	c0.292,6.945-0.293,13.927-0.489,20.893c-0.073,2.609-1.269,4.29-4.009,3.712c-9.278-1.957-13.489,2.215-15.09,11.098
	c-0.711,3.946-3.059,7.726-5.218,11.241c-1.784,2.905-1.178,4.625,1.031,6.86c8.048,8.143,8.078,8.306,0.303,16.836
	c-3.235,3.549-6.97,6.65-10.548,9.877c-1.454,1.312-3.095,2.417-6.003,4.658c-2.514-3.107-4.937-6.051-7.302-9.042
	c-1.644-2.079-3.298-2.101-5.589-0.795c-3.842,2.19-7.906,3.993-13.047,6.539c0-5.871-0.182-10.597,0.14-15.289
	c0.072-1.05,1.762-2.234,2.956-2.927c25.197-14.623,36.579-38.332,32.137-66.779c-0.205-1.316,0.471-3.384,1.469-4.159
	C282.496,198.259,286.086,196.17,290.561,193.25z"/>
<path fill="#7F1716" d="M155.801,147.109c2.824-2.298,5.079-4.133,9.093-7.398c2.248,3.013,4.404,5.956,6.618,8.855
	c1.775,2.324,3.56,2.542,6.409,1.109c5.761-2.898,11.76-5.431,17.874-7.476c3.647-1.22,4.864-2.9,4.779-6.718
	c-0.24-10.706-0.069-10.878,10.859-11.086c5.801-0.111,11.614,0.5,17.424,0.743c2.886,0.121,3.857,1.439,3.9,4.415
	c0.153,10.671,0.314,10.565,10.331,14.338c4.032,1.519,8.012,3.332,11.715,5.52c2.836,1.676,4.834,1.605,6.866-0.946
	c2.172-2.728,4.445-5.376,6.868-8.291c3.402,2.613,5.722,4.394,8.825,6.777c-5.123,3.483-10.021,6.233-14.226,9.8
	c-7.336,6.222-13.622,7.235-23.233,2.595c-17.935-8.659-36.64-6.659-54.088,3.274c-2.756,1.569-4.6,1.528-7.121-0.221
	C171.352,157.305,163.844,152.455,155.801,147.109z"/>
<path fill="#7F1716" d="M409.689,315.531c-4.623-3.09-8.854-5.717-12.808-8.71c-0.929-0.703-1.691-3.007-1.237-3.955
	c8.828-18.443,14.663-37.778,17.787-57.96c0.039-0.254,0.434-0.453,0.972-0.981c2.091,2.54,3.712,6.092,6.39,7.302
	c2.507,1.132,6.135-0.217,9.942-0.53C427.522,273.23,420.22,294.622,409.689,315.531z"/>
<path fill="#7F1716" d="M24.406,315.534c-10.852-20.84-17.692-42.142-21.405-66.173c8.752,6.366,12.637,0.517,17.091-6.138
	c1.009,5.176,1.381,9.122,2.565,12.808c4.819,15.002,9.684,29.997,15.006,44.825c1.316,3.665,1.362,5.592-2.225,7.511
	C31.809,310.307,28.495,312.84,24.406,315.534z"/>
</svg>
