<?xml version="1.0" encoding="utf-8"?>
<!-- Generator: Adobe Illustrator 22.1.0, SVG Export Plug-In . SVG Version: 6.00 Build 0)  -->
<svg version="1.1" id="Layer_1" xmlns="http://www.w3.org/2000/svg" xmlns:xlink="http://www.w3.org/1999/xlink" x="0px" y="0px"
	 viewBox="0 0 292.447 292.372" enable-background="new 0 0 292.447 292.372" xml:space="preserve">
<path d="M146.509,292.369C67.236,292.87,1.127,227.543,0.015,148.945C-1.134,67.739,63.941,1.161,144.001,0.015
	c80.926-1.158,145.619,63.51,148.354,140.91C295.242,222.623,229.714,292.202,146.509,292.369z M280.164,146.378
	c0.008-73.669-59.769-133.677-133.721-134.239C73.52,11.585,12.566,72.376,12.229,145.993
	c-0.333,72.762,60.384,134.043,132.841,134.077C219.743,280.104,280.156,220.318,280.164,146.378z"/>
<path d="M132.652,223.8c-5.083,0-10.048,0-15.013,0c-17.997,0-35.994-0.005-53.991,0.005c-2.333,0.001-4.597,0.393-5.174-3.035
	c-2.51-14.925-5.201-29.819-7.821-44.702c7.371-2.064,8.026-1.745,10.808,4.931c0.767,1.841,1.627,3.644,2.425,5.472
	c4.65,10.656,11.88,16.798,24.413,15.468c7.043-0.747,14.231-0.135,22.98-0.135c-1.7-3.167-2.5-5.36-3.873-7.104
	c-9.267-11.767-19.285-23-27.847-35.252c-11.023-15.775-15.601-33.86-13.824-53.056c2.143-23.154,14.548-40.383,34.305-51.552
	c29.885-16.894,60.944-17.468,91.114-1.084c34.851,18.926,44.615,55.501,29.468,92.622c-5.353,13.119-14.117,24.074-23.263,34.708
	c-4.126,4.798-8.435,9.444-12.439,14.34c-1.193,1.459-1.634,3.533-2.653,5.858c11.398,0,21.722,0.646,31.886-0.348
	c3.595-0.352,7.671-4.09,9.985-7.369c3.888-5.51,6.542-11.891,9.876-18.211c2.167,0,4.804,0,7.973,0
	c-2.492,14.076-5.235,27.871-7.246,41.773c-0.788,5.446-2.751,6.914-8.189,6.815c-20.157-0.367-40.324-0.146-60.487-0.146
	c-1.798,0-3.596,0-5.519,0c-1.208-5.006-0.716-8.962,2.17-13.033c10.2-14.389,20.526-28.724,27.156-45.285
	c10.881-27.179,9.827-54.634,0.127-81.53c-13.684-37.944-56.676-35.97-74.275-19.334c-10.005,9.457-14.785,21.567-17.484,34.654
	c-6.878,33.35-0.744,64.129,18.569,92.233c4.244,6.176,8.213,12.563,12.787,18.483C132.705,214.011,133.812,218.119,132.652,223.8z"
	/>
</svg>
