<?xml version="1.0" encoding="utf-8"?>
<!-- Generator: Adobe Illustrator 22.1.0, SVG Export Plug-In . SVG Version: 6.00 Build 0)  -->
<svg version="1.1" id="Layer_1" xmlns="http://www.w3.org/2000/svg" xmlns:xlink="http://www.w3.org/1999/xlink" x="0px" y="0px"
	 viewBox="0 0 75.35 75.329" enable-background="new 0 0 75.35 75.329" xml:space="preserve">
<path fill="#FFFFFF" d="M36.47,75.329c-12.153,0-24.307,0-36.47,0C0,50.23,0,25.13,0,0c25.11,0,50.23,0,75.35,0
	c0,10.541,0,21.095,0,31.649c-0.434-1.318-0.775-2.676-1.323-3.945c-1.18-2.735-2.465-5.423-3.697-8.108
	c0.074-0.006,0.284-0.022,0.602-0.047c-1.985-3.524-4.838-6.091-7.951-8.434c0.124-0.115,0.179-0.212,0.238-0.214
	c0.387-0.014,0.774-0.007,1.399-0.007c-3.402-3.616-7.677-5.288-11.915-7.038c0.565-0.065,1.13-0.131,1.696-0.196
	c-0.451-0.421-0.908-0.679-1.396-0.775c-3.401-0.666-6.802-1.344-10.218-1.922c-1.86-0.315-3.789-0.781-5.622-0.58
	c-3.44,0.378-6.832,1.192-10.244,1.822c-0.302,0.056-0.831,0.206-0.878,0.116c-0.407-0.782-0.953-0.324-1.416-0.186
	c-2.948,0.882-5.578,2.362-7.964,4.295c-0.275,0.223-0.822,0.601-0.839,0.58c-0.704-0.871-0.855,0.137-1.055,0.371
	c-2.356,2.761-3.673,6.046-4.707,9.475c-0.132,0.439-0.427,0.985-0.798,1.16c-0.634,0.299-0.554,0.67-0.568,1.224
	c-0.029,1.173-0.225,2.343-0.353,3.514c-0.136-0.014-0.272-0.029-0.408-0.043c0.59-1.83,0.798-3.662,0.103-5.498
	c-0.696-1.84-2.184-3.119-3.503-3.012c-1.266,0.103-2.451,1.555-2.883,3.463c-0.486,2.15,0.005,4.202,0.53,6.263
	c0.113,0.445,0.219,0.958,0.111,1.385c-2.105,8.349-0.087,15.884,4.463,22.932c0.129,0.2,0.217,0.426,0.321,0.636
	c0.608-0.409,0.997-0.622,1.329-0.901c5.183-4.348,8.901-9.681,10.775-16.219c0.263-0.918,0.417-1.779,1.687-1.699
	c-0.318-2.183-0.174-4.194,1.091-5.978c0.038,0.159,0.007,0.302-0.044,0.439c-1.224,3.316-1.083,6.492,0.918,9.505
	c0.173,0.26,0.26,0.703,0.168,0.991c-0.579,1.82-1.391,3.605-3.058,4.595c-1.295,0.769-1.321,1.753-1.188,2.92
	c0.28,2.458,2.16,3.784,4.255,3.19c-0.666-0.578-1.395-1.21-2.124-1.842c0.115-0.114,0.231-0.227,0.346-0.341
	c0.821,0.128,1.641,0.256,2.392,0.373c-0.469-1.051-0.89-1.993-1.311-2.935c0.091-0.053,0.183-0.105,0.274-0.158
	c0.52,0.299,1.041,0.598,1.561,0.897c-1.092-2.559,0.022-4.349,1.688-6.003c0.234-0.232,0.48-0.563,0.511-0.869
	c0.263-2.562,1.455-4.708,2.965-6.703c0.267-0.353,0.719-0.659,1.145-0.783c5.933-1.721,11.923-3.035,18.176-2.484
	c0.492,0.043,1.151-0.243,1.516-0.598c1.476-1.433,3.175-2.408,5.174-2.866c2.06-0.472,4.074-0.247,5.367,0.69
	c-0.405-0.101-0.627-0.162-0.851-0.211c-6.368-1.368-11.627,2.823-11.077,8.927c0.122,1.359,0.604,2.729,1.146,3.998
	c1.085,2.54,2.92,4.48,5.4,5.86c-2.509,1.324-10.501,3.566-13.567,3.836c-2.075,0.183-3.427,1.374-3.758,3.418
	c-0.159,0.981-0.163,1.984,0.793,2.765c0.08-1.349,0.648-2.23,1.866-2.58c0.242,0.618,0.457,1.166,0.64,1.636
	c0.656-0.779,1.246-1.48,1.99-2.364c0.196,0.627,0.287,0.922,0.382,1.216c0.095,0.292,0.194,0.583,0.375,1.123
	c0.624-2.653,2.406-3.821,4.462-4.666c2.924-1.202,6.01-1.604,9.146-1.665c1.662-0.032,3.326-0.006,4.978-0.006
	c-0.579-5.076,3.425-10.073,8.322-10.166c0.04,0.222,0.094,0.451,0.122,0.683c0.562,4.716-0.045,9.339-1.242,13.888
	c-1.937,7.36-5.246,14.047-11.403,18.704c-11.586,8.764-24.201,9.202-36.918,2.94C11.695,64.614,5.694,56.205,2.173,45.993
	c-0.674-1.954-1.109-3.99-1.655-5.989c-0.069,0.482-0.071,0.956-0.021,1.425c0.089,0.834,0.162,1.674,0.324,2.495
	c3.062,15.541,12.449,25.34,27.422,29.922C30.889,74.657,33.723,74.851,36.47,75.329z"/>
<path d="M36.47,75.329c-2.747-0.478-5.581-0.673-8.226-1.482C13.271,69.265,3.884,59.466,0.822,43.925
	c-0.162-0.821-0.235-1.661-0.324-2.495c-0.05-0.469-0.049-0.943,0.021-1.425c0.545,1.998,0.981,4.034,1.655,5.989
	c3.521,10.212,9.522,18.621,19.323,23.447c12.717,6.262,25.331,5.824,36.918-2.94c6.157-4.657,9.466-11.344,11.403-18.704
	c1.197-4.549,1.804-9.172,1.242-13.888c-0.028-0.232-0.081-0.461-0.122-0.683c-4.897,0.093-8.901,5.09-8.322,10.166
	c-1.652,0-3.316-0.027-4.978,0.006c-3.136,0.061-6.222,0.463-9.146,1.665c-2.055,0.845-3.838,2.012-4.462,4.666
	c-0.18-0.54-0.28-0.831-0.375-1.123c-0.095-0.294-0.185-0.589-0.382-1.216c-0.744,0.884-1.334,1.585-1.99,2.364
	c-0.184-0.47-0.398-1.017-0.64-1.636c-1.217,0.35-1.786,1.231-1.866,2.58c-0.956-0.781-0.952-1.784-0.793-2.765
	c0.331-2.045,1.683-3.235,3.758-3.418c3.066-0.27,11.058-2.512,13.567-3.836c-2.48-1.38-4.315-3.32-5.4-5.86
	c-0.542-1.269-1.023-2.639-1.146-3.998c-0.55-6.105,4.709-10.295,11.077-8.927c0.225,0.048,0.446,0.11,0.851,0.211
	c-1.293-0.937-3.307-1.161-5.367-0.69c-1.999,0.458-3.698,1.433-5.174,2.866c-0.366,0.355-1.024,0.641-1.516,0.598
	c-6.253-0.551-12.242,0.763-18.176,2.484c-0.426,0.124-0.878,0.43-1.145,0.783c-1.51,1.995-2.702,4.141-2.965,6.703
	c-0.031,0.307-0.278,0.637-0.511,0.869c-1.666,1.654-2.78,3.444-1.688,6.003c-0.52-0.299-1.041-0.598-1.561-0.897
	c-0.091,0.053-0.183,0.105-0.274,0.158c0.421,0.942,0.841,1.884,1.311,2.935c-0.751-0.117-1.572-0.245-2.392-0.373
	c-0.115,0.114-0.231,0.227-0.346,0.341c0.729,0.632,1.458,1.264,2.124,1.842c-2.095,0.594-3.975-0.732-4.255-3.19
	c-0.133-1.167-0.107-2.151,1.188-2.92c1.667-0.99,2.479-2.775,3.058-4.595c0.092-0.288,0.004-0.731-0.168-0.991
	c-2.001-3.012-2.142-6.188-0.918-9.505c0.05-0.136,0.082-0.28,0.044-0.439c-1.265,1.784-1.409,3.795-1.091,5.978
	c-1.27-0.08-1.424,0.781-1.687,1.699c-1.875,6.538-5.592,11.872-10.775,16.219c-0.333,0.279-0.721,0.492-1.329,0.901
	c-0.105-0.21-0.192-0.436-0.321-0.636c-4.55-7.048-6.568-14.583-4.463-22.932c0.108-0.427,0.003-0.939-0.111-1.385
	c-0.525-2.061-1.016-4.114-0.53-6.263c0.431-1.907,1.617-3.36,2.883-3.463c1.319-0.107,2.807,1.172,3.503,3.012
	c0.694,1.836,0.487,3.668-0.103,5.498c0.136,0.014,0.272,0.029,0.408,0.043c0.128-1.171,0.324-2.34,0.353-3.514
	c0.013-0.554-0.066-0.925,0.568-1.224c0.371-0.175,0.666-0.722,0.798-1.16c1.034-3.429,2.351-6.713,4.707-9.475
	c0.199-0.233,0.35-1.242,1.055-0.371c0.017,0.021,0.564-0.358,0.839-0.58c2.385-1.932,5.016-3.413,7.964-4.295
	c0.463-0.138,1.009-0.596,1.416,0.186c0.047,0.09,0.576-0.06,0.878-0.116c3.412-0.63,6.804-1.444,10.244-1.822
	c1.832-0.201,3.761,0.265,5.622,0.58c3.417,0.578,6.817,1.256,10.218,1.922c0.488,0.095,0.944,0.354,1.396,0.775
	c-0.565,0.065-1.13,0.131-1.696,0.196c4.238,1.749,8.513,3.422,11.915,7.038c-0.625,0-1.012-0.007-1.399,0.007
	c-0.059,0.002-0.114,0.099-0.238,0.214c3.113,2.343,5.966,4.909,7.951,8.434c-0.319,0.025-0.528,0.041-0.602,0.047
	c1.232,2.685,2.518,5.374,3.697,8.108c0.547,1.269,0.888,2.627,1.323,3.945c0,0.08,0,0.16,0,0.24
	c-0.913,0.076-1.229,0.472-1.178,1.472c0.158,3.097,0.448,6.226,0.191,9.3C73.069,58.118,62.13,70.649,47.009,74.124
	c-2.437,0.56-4.944,0.811-7.419,1.205C38.55,75.329,37.51,75.329,36.47,75.329z M4.881,36.644c0.426-0.875,0.829-1.606,1.143-2.372
	c0.482-1.177,0.084-2.338-0.962-3.003c-1.055-0.671-1.71-0.417-1.942,0.829C2.78,33.917,3.637,35.302,4.881,36.644z"/>
<path fill="#FFFFFF" d="M39.59,75.329c2.475-0.394,4.982-0.645,7.419-1.205c15.121-3.475,26.06-16.007,27.355-31.463
	c0.257-3.075-0.033-6.203-0.191-9.3c-0.051-1,0.265-1.396,1.178-1.472c0,14.458,0,28.916,0,43.44
	C63.43,75.329,51.51,75.329,39.59,75.329z"/>
<path fill="#FFFFFF" d="M4.881,36.644c-1.244-1.343-2.101-2.728-1.762-4.547c0.232-1.246,0.887-1.499,1.942-0.829
	c1.047,0.665,1.444,1.827,0.962,3.003C5.71,35.039,5.307,35.769,4.881,36.644z"/>
</svg>
