<?xml version="1.0" encoding="utf-8"?>
<!-- Generator: Adobe Illustrator 22.1.0, SVG Export Plug-In . SVG Version: 6.00 Build 0)  -->
<svg version="1.1" id="Layer_1" xmlns="http://www.w3.org/2000/svg" xmlns:xlink="http://www.w3.org/1999/xlink" x="0px" y="0px"
	 viewBox="0 0 298.772 292.069" enable-background="new 0 0 298.772 292.069" xml:space="preserve">
<g>
	<path fill="#8E9EA7" d="M157.036,221.225c-20.165,0-40.331,0.101-60.494-0.135c-2.362-0.028-6.416,2.539-7.187-2.499
		c-1.091-7.128-0.438-8.239,5.036-10.346c10.944-4.213,19.853-10.796,24.937-21.743c3.188-6.864,4-14.129,2.831-21.485
		c-1.808-11.378-9.791-16.888-20.075-19.744c-8.683-2.411-17.678-3.028-26.575-4.19c-26.561-3.469-50.613-12.601-70.242-31.484
		c-2.306-2.218-6.25-4.713-5.042-7.838c0.795-2.056,5.458-0.717,8.373-0.725c24.831-0.067,49.663-0.059,74.494-0.012
		c3.166,0.006,6.242,0.342,5.505-4.437c-0.256-1.664,0.798-2.391,2.431-2.35c1.166,0.029,2.333-0.01,3.499-0.01
		c56.662-0.001,113.325-0.015,169.987,0.047c2.431,0.003,5.8-1.527,5.893,3.512c0.175,9.49,0.315,9.46-5.263,10.308
		c-18.22,2.769-35.864,7.489-51.782,17.105c-12.206,7.374-22.269,16.821-23.916,31.979c-2.105,19.377,5.714,34.701,20.64,46.688
		c3.64,2.923,7.477,5.747,11.877,7.286c4.563,1.596,3.691,5.056,3.325,8.148c-0.4,3.389-3.443,1.844-5.259,1.854
		C199.033,221.267,178.034,221.225,157.036,221.225z"/>
	<path fill="#8E9EA7" d="M8.982,121.247c3.659,2.42,6.769,4.587,9.992,6.569c2.123,1.305,1.421,3.236,1.258,4.924
		c-4.034,41.747,9.166,77.619,38.163,107.341c21.21,21.741,47.414,34.553,77.812,38.176c57.282,6.828,111.062-22.32,136.535-73.983
		c31.404-63.69,5.762-142.629-57.083-175.726C165.482,2.123,106.526,9.124,64.416,46.356C50.213,58.914,39.312,73.818,31.392,90.981
		c-1.551,3.362-11.36,6.054-14.179,3.866c-1.52-1.18-0.201-2.448,0.237-3.534c5.903-14.64,13.979-27.995,24.294-39.93
		C65.794,23.557,96.044,6.51,132.443,1.515c41.271-5.663,78.723,4.552,111.357,30.577c29.633,23.632,47.72,54.526,53.22,91.996
		c6.126,41.732-3.79,79.795-30.22,112.91c-24.35,30.509-56.253,48.657-94.917,53.781c-73.924,9.798-140.516-37.314-159.544-105.002
		C6.441,164.795,5.08,143.596,8.982,121.247z"/>
</g>
</svg>
