<?xml version="1.0" encoding="utf-8"?>
<!-- Generator: Adobe Illustrator 22.1.0, SVG Export Plug-In . SVG Version: 6.00 Build 0)  -->
<svg version="1.1" id="Layer_1" xmlns="http://www.w3.org/2000/svg" xmlns:xlink="http://www.w3.org/1999/xlink" x="0px" y="0px"
	 viewBox="0 0 294.709 294.796" enable-background="new 0 0 294.709 294.796" xml:space="preserve">
<path fill="#D9B81D" d="M149.669,0.01C67.788-0.939,1.167,65.36,0.015,145.308c-1.172,81.367,65.275,149.738,147.391,149.487
	c81.626-0.25,147.317-65.789,147.302-147.471C294.694,66.776,229.102,0.931,149.669,0.01z M146.023,282.199
	c-72.875-0.033-133.329-61.132-133.335-134.757C12.682,73.091,72.992,12.962,147.572,12.962
	c74.839,0,134.613,60.292,134.597,135.765C282.155,222.246,220.966,282.232,146.023,282.199z"/>
<path fill="#E8D479" d="M125.454,66.321c-1.17,0.239-2.586,1.58-3.435-0.127c-1.161-2.337,1.928-2.899,1.558-5.557
	c2.187,1.819,0.067,4.561,2.775,4.836C126.483,66.211,126.249,66.563,125.454,66.321z"/>
<path fill="#DEC240" d="M132.617,64.162c-0.443,0.414-0.886,0.829-1.329,1.243c-2.028,0.067-3.049-0.893-2.922-2.94
	c0.059-0.95,0.802-1.569,1.58-1.613C132.237,60.722,132.368,62.532,132.617,64.162z"/>
<path fill="#DEC23F" d="M153.376,50.298c-2.469,1.337-4.51,1.593-5.033-1.99l-0.066,0.07c2.774-2.094,4.39-1.259,5.05,1.995
	C153.327,50.371,153.376,50.298,153.376,50.298z"/>
<path fill="#DEC342" d="M170.424,55.54c-0.061-0.479-0.121-0.958-0.182-1.438c-0.208-1.663,0.043-3.001,2.171-2.879
	c0.898,0.051,1.655,0.547,1.689,1.448C174.198,55.232,172.223,55.311,170.424,55.54z"/>
<path fill="#EBDA8A" d="M154.338,81.329c2.938,1.112,6.65-1.703,9.116,1.799C160.068,84.291,157.335,82.143,154.338,81.329z"/>
<path fill="#E1C850" d="M151.483,42.817c-0.142,1.236-0.622,1.74-1.6,1.604c-0.726-0.101-1.219-0.615-1.137-1.277
	c0.101-0.81,0.641-1.563,1.581-1.34C150.82,41.921,151.193,42.547,151.483,42.817z"/>
<path fill="#DDC038" d="M170.205,48.605c-0.244,0.8-0.689,1.54-1.599,1.275c-0.477-0.139-1.073-0.829-1.11-1.309
	c-0.072-0.927,0.652-1.34,1.567-1.245C169.802,47.403,170.112,47.918,170.205,48.605z"/>
<path fill="#DEC240" d="M125.454,66.321c0.299-0.283,0.599-0.565,0.898-0.848c1.072-0.208,1.925,0,1.947,1.286
	c0.011,0.639-0.311,1.285-1.062,1.31C126.098,68.107,125.598,67.365,125.454,66.321z"/>
<path fill="#DFC344" d="M148.343,48.307c-1.105-0.127-2.724,0.998-2.98-1.155c-0.039-0.329,0.431-0.976,0.761-1.049
	c1.891-0.423,2.096,0.883,2.153,2.274C148.277,48.377,148.343,48.307,148.343,48.307z"/>
<path fill="#D9B81D" d="M266.016,149.837c-2.328-10.729-4.719-21.405-8.635-31.722c-7.433-19.579-17.707-36.899-36.32-47.978
	c-2.662-1.585-5.732-2.782-6.521-6.386c-0.285-1.3-1.484-1.905-2.737-1.574c-5.276,1.394-9.455,4.74-13.762,7.871
	c-2.393,1.74-1.696,4.151-1.556,6.398c0.24,3.846-2.639,4.565-5.296,5.552c-2.596,0.965-4.389,0.166-5.766-2.279
	c-1.617-2.871-3.52-5.58-5.394-8.507c-2.111,1.542-2.126,3.67-2.781,5.472c-3.073,8.458-12.414,14.662-20.145,13.369
	c-7.317-1.224-11.626,0.744-15.114,6.925c-1.351,2.393-3.183,4.305-5.742,5.338c-3.729,1.506-6.137,4.438-8.201,7.629
	c-1.958,3.027-4.194,5.826-7.644,6.857c-3.543,1.059-2.752,2.549-1.492,4.946c18.038,34.305,35.991,68.654,53.988,102.981
	c4.03,7.686,6.873,9.42,15.538,7.972c20.691-3.457,37.75-14.254,53.507-27.425c3.846-3.215,7.12-6.999,9.337-11.588
	c1.857-3.846,2.242-7.444-0.543-11.218c-2.86-3.874-5.068-8.227-7.887-12.135c-2.019-2.799-1.377-4.298,1.082-6.487
	c5.353-4.765,11.148-8.323,18.294-9.567C264.527,153.882,266.783,153.372,266.016,149.837z M233.489,152.298
	c-1.694,0.189-2.394-0.647-3.135-1.819c-10.394-16.431-20.913-32.784-31.132-49.323c-2.938-4.754,0.549-8.981,2.788-12.852
	c2.29-3.959,6.093-6.053,10.907-5.421c3.395,0.445,6.421,1.912,8.844,4.273c13.148,12.809,22.545,27.777,26.106,46.036
	c0.159,0.813,0.236,1.642,0.285,1.986C248.31,144.603,242.326,151.312,233.489,152.298z"/>
<path fill="#D9B81D" d="M142.281,178.818c-10.072-18.955-19.984-37.995-29.889-57.038c-1.192-2.291-2.499-3.843-5.238-4.734
	c-5.884-1.915-10.052-6.427-9.578-12.589c0.499-6.476,1.235-13.251,4.455-19.184c1.116-2.057,2.119-3.333-0.923-4.339
	c-2.453-0.811-3.187-2.908-2.745-5.24c0.671-3.538-1-5.708-3.791-7.376c-2.853-1.706-5.701-3.421-8.573-5.095
	c-2.985-1.74-5.422-1.66-6.497,2.201c-0.571,2.051-2.385,2.663-3.928,3.576c-14.321,8.474-25.02,20.221-32.127,35.278
	c-6.709,14.215-11.615,28.963-14.355,44.49c-0.646,3.658,0.268,5.015,3.427,5.503c7.566,1.169,13.499,5.219,19.098,10.149
	c2.097,1.846,2.257,3.094,0.736,5.288c-2.749,3.965-4.997,8.29-7.882,12.144c-3.292,4.398-2.842,8.546-0.341,12.962
	c2.244,3.964,5.123,7.41,8.533,10.369c13.097,11.366,27.838,19.918,44.258,25.541c4.125,1.413,8.381,2.094,12.716,2.24
	c5.522,0.261,9.257-1.724,11.876-7.052c6.604-13.435,13.712-26.625,20.804-39.813C143.739,183.446,143.686,181.463,142.281,178.818z
	 M95.551,101.405c-10.211,16.157-20.459,32.292-30.62,48.48c-1.367,2.178-2.667,2.734-5.277,1.888
	c-9.691-3.142-12.855-7.022-12.72-16.404c0.066-4.027,0.868-7.911,2.272-11.679c4.522-12.132,11.235-22.946,19.717-32.685
	c0.978-1.123,2.111-2.122,3.237-3.104c4.448-3.877,9.335-6.8,15.386-4.23c6.05,2.569,7.541,8.427,9.131,14.083
	C97.105,99.275,96.248,100.302,95.551,101.405z"/>
<g>
	<path fill="#D9B81D" d="M170.424,55.54c0.349-0.531,0.289-1.01-0.182-1.438c-4.773-5.09-10.838-4.322-16.862-3.736
		c0.214,1.791-0.835,2.838-2.375,3.101c-4.313,0.735-6.481,5.083-9.945,6.276c-3.189,1.098-5.965,2.273-8.443,4.419
		c-1.089-0.276-1.46,0.215-1.329,1.243c-0.595,2.951-1.717,5.009-5.33,5.307c-6.751,0.558-10.141,5.082-11.46,11.273
		c-0.352,1.651-0.531,2.575-2.465,2.914c-4.758,0.835-6.362,4.41-6.604,8.725c-0.112,2-0.239,3.897-0.955,5.825
		c-2.031,5.474-0.882,9.221,3.286,11.578c4.37,2.471,10.826,1.711,13.697-2.138c3.769-5.053,6.626-10.896,13.476-12.694
		c0.777-0.204,1.605-1.342,1.865-2.209c2.62-8.742,11.4-8.862,17.54-12.658c2.969,0.953,6.283,0.158,9.116,1.799
		c5.08-1.957,7.903-5.748,8.812-11.015c0.199-1.151,0.499-2.046,1.271-3.043C177.677,63.716,176.41,58.534,170.424,55.54z
		 M126.911,77.775c-0.782,0.027-1.521-0.499-1.512-2.042c0.022-0.393,0.543-0.96,1.387-1.169c0.991-0.245,1.574,0.403,1.702,1.228
		C128.659,76.897,128.001,77.737,126.911,77.775z M165.087,55.404c-0.221,0.699-0.809,1.152-1.728,1.081
		c-0.934-0.072-1.628-0.732-1.569-1.532c0.076-1.034,0.873-1.809,2.026-1.516C164.595,53.636,165.207,54.244,165.087,55.404z"/>
	<path fill="#D9B81D" d="M153.327,50.371c0.017-0.002,0.035-0.003,0.052-0.005c-0.003-0.024,0-0.044-0.004-0.068L153.327,50.371z"/>
</g>
</svg>
