<?xml version="1.0" encoding="utf-8"?>
<!-- Generator: Adobe Illustrator 22.1.0, SVG Export Plug-In . SVG Version: 6.00 Build 0)  -->
<svg version="1.1" id="Layer_1" xmlns="http://www.w3.org/2000/svg" xmlns:xlink="http://www.w3.org/1999/xlink" x="0px" y="0px"
	 viewBox="0 0 293.834 293.834" enable-background="new 0 0 293.834 293.834" xml:space="preserve">
<g>
	<path fill="#CA1518" d="M148.889,0C66.608-0.05,0.017,65.108,0,145.685c-0.018,82.185,65.411,148.152,146.941,148.149
		c80.716-0.003,146.842-65.809,146.893-146.184C293.886,66.81,228.347,0.048,148.889,0z M144.862,281.19
		C72.827,280.3,12.885,220.283,12.669,147.105C12.452,73.257,72.971,12.674,146.965,12.669C220.829,12.664,281,72.844,281,146.723
		C281.859,220.52,219.702,282.115,144.862,281.19z"/>
	<path fill="#C91518" d="M62.109,49.609c6.431,9.545,12.419,18.268,18.238,27.102c18.007,27.339,41.046,50.161,64.74,72.41
		c8.006,7.518,14.998,16.573,24.076,22.397c19.424,12.463,34.853,29.708,53.732,42.688c1.093,0.752,2.146,1.576,3.146,2.449
		c6.117,5.34,7.977,11.148,5.548,17.21c-2.43,6.066-9.935,10.704-16.792,10.49c-4.669-0.145-6.712-3.247-6.798-7.123
		c-0.146-6.593-3.512-10.296-9.101-12.908c-10.542-4.927-19.475-12.129-27.404-20.529c-4.183-4.431-8.557-7.183-14.917-5.293
		c-1.464,0.435-4.693,0.615-2.65-2.404c2.181-3.223,0.093-4.317-1.683-5.967c-22.932-21.309-44.763-43.701-66.481-66.247
		C65.708,103.065,59.006,78.626,62.109,49.609z"/>
	<path fill="#C91518" d="M123.606,171.338c-0.527,0.809-1.041,1.638-1.593,2.442c-15.522,22.599-31.093,45.166-46.517,67.833
		c-1.867,2.744-3.805,3.323-6.651,2.099c-5.237-2.253-10.021-5.196-14.134-9.172c-1.826-1.765-2.061-3.255-0.098-5.43
		c19.496-21.598,38.771-43.389,56.531-66.465c0.941-1.223,1.691-2.568,3.408-0.735c2.614,2.791,5.393,5.428,8.086,8.145
		C122.985,170.404,123.238,170.844,123.606,171.338z"/>
	<g>
		<g>
			<path fill="#C91518" d="M238.091,69.76c-14.772-5.971-29.39-12.321-44.107-18.428c-2.428-1.008-5.073-1.494-6.676-1.953
				c-4.406-0.036-6.501,1.914-8.163,4.62c-14.704,23.94-29.397,47.885-44.182,71.774c-1.502,2.427-1.92,3.909,0.622,6.153
				c14.694,12.976,27.096,28.514,44.069,38.977c2.497,1.539,3.359,1.448,4.866-0.796c2.316-3.448,4.892-6.727,7.447-10.008
				c20.182-25.911,35.324-54.64,47.542-85C240.322,73.08,241.642,71.195,238.091,69.76z M187.441,64.971
				c-2.754,0.094-4.384-1.407-4.564-4.079c-0.185-2.759,1.533-4.392,4.118-4.556c2.659-0.169,4.183,1.527,4.718,4.185
				C191.331,62.963,190.284,64.874,187.441,64.971z"/>
		</g>
	</g>
</g>
</svg>
