<?xml version="1.0" encoding="utf-8"?>
<!-- Generator: Adobe Illustrator 22.1.0, SVG Export Plug-In . SVG Version: 6.00 Build 0)  -->
<svg version="1.1" id="Layer_1" xmlns="http://www.w3.org/2000/svg" xmlns:xlink="http://www.w3.org/1999/xlink" x="0px" y="0px"
	 viewBox="0 0 293.287 292.848" enable-background="new 0 0 293.287 292.848" xml:space="preserve">
<g>
	<path fill="#E31D1A" d="M173.565,99.878c0.828-14.162-4.482-28.3,3.548-41.906c-0.884-0.101-1.768-0.202-2.652-0.304
		c-3.56,6.508-7.085,13.038-5.552,21.071c0.499,2.612,1.523,5.174,1.665,7.793c0.232,4.284-0.061,8.596-0.139,13.281
		c-5.285-0.425-9.21-0.741-11.558-0.929c-1.344-5.856-1.719-11.373-3.883-16.065c-3.908-8.476-4.117-16.117,1.126-24.071
		c3.522-5.342,2.963-8.048-0.566-10.67c-0.772,2.974-1.065,6.366-2.495,9.179c-3.964,7.799-3.98,15.651-1.453,23.745
		c0.545,1.745,1.329,3.435,1.695,5.213c0.962,4.677-0.398,9.508-4.246,11.414c-3.283,1.627-8.071,1.026-11.952,0.23
		c-1.494-0.307-3.226-3.85-3.286-5.962c-0.218-7.791-0.175-15.638,0.567-23.388c0.395-4.122,2.424-8.088,3.698-12.069
		c-5.043-0.42-7.875,2.449-7.832,8.434c0.037,5.158,0.622,10.346,0.224,15.463c-0.473,6.09-1.737,12.118-2.772,18.92
		c-3.625,0.44-7.812,0.948-12.951,1.572c-0.333-9.354-0.731-18.422-0.958-27.494c-0.217-8.665-0.257-17.334-1.179-25.995
		c-4.209,4.848-3.432,10.402-3.156,15.772c0.519,10.092,1.342,20.167,1.958,30.254c0.161,2.634,0.024,5.286,0.024,8.206
		c-1.594,0.54-3.435,1.164-5.734,1.943c-2.717-16.993-5.286-33.751-8.127-50.462c-1.032-6.071-1.405-11.891,1.844-17.431
		c2.843-4.848,6.547-8.137,12.591-8.548c2.887-0.197,5.653-2.314,8.532-2.467c9.382-0.499,18.637-4.399,28.174-1.233
		c0.44,0.146,1.114,0.256,1.423,0.032c8.181-5.944,16.158-0.726,23.209,1.855c4.992,1.828,10.298,3.486,15.236,5.772
		c5.522,2.555,8.847,9.28,7.677,16.916c-2.82,18.411-5.877,36.787-8.86,55.313C182.619,102.094,178.052,100.976,173.565,99.878z"/>
	<path fill="#E31D1A" d="M6.637,110.316c9.578,8.751,19.327,17.324,28.653,26.336c3.888,3.758,7.534,4.333,12.079,1.928
		c7.714-4.082,11.884-10.452,12.333-19.156c0.24-4.642-1.74-7.591-6.29-9.559c-11.871-5.135-23.521-10.779-35.259-16.22
		c0.153-0.375,0.305-0.75,0.458-1.125c10.091,3.109,20.187,6.201,30.268,9.339c2.539,0.79,5.072,1.625,7.538,2.614
		c9.59,3.847,11.915,8.275,9.72,18.29c-1.758,8.022-1.715,7.958,4.915,12.357c43.001,28.53,85.981,57.092,128.971,85.639
		c1.521,1.01,3.071,1.977,4.607,2.963c0.12-0.452,0.24-0.905,0.36-1.357c2.108,0.291,4.586-0.038,6.269,0.965
		c24.874,14.825,49.655,29.808,74.43,44.798c7.131,4.314,9.275,12.502,5.068,18.816c-4.275,6.417-12.354,7.614-19.278,2.593
		c-24.394-17.69-48.727-35.465-73.445-53.471c2.488-3.438,0.027-4.84-2.555-6.551c-44.405-29.425-88.792-58.876-133.085-88.467
		c-3.103-2.073-5.008-1.949-7.624,0.523c-2.013,1.901-4.585,3.301-7.086,4.576c-4.813,2.454-9.523,2.026-13.231-2.024
		c-6.738-7.36-13.22-14.955-19.793-22.466c-3.038-3.472-6.038-6.979-9.055-10.47C5.948,110.898,6.293,110.607,6.637,110.316z"/>
	<path fill="#E31D1A" d="M154.343,209.901c-12.866,8.09-24.9,15.815-37.118,23.237c-3.469,2.107-6.01,4.059-3.707,8.597
		c-1.38,0.178-2.416,0.587-3.317,0.386c-9.08-2.026-16.367,1.526-23.628,6.582c-13.568,9.448-28.209,17.011-43.81,22.59
		c-6.547,2.341-11.306,6.162-14.557,12.656c-5.085,10.156-16.118,11.715-24.666,4.185c-3.825-3.369-4.998-10.139-1.266-15.059
		c3.328-4.386,7.61-8.534,12.343-11.289c27.039-15.739,53.853-31.997,81.781-46.011c11.695-5.868,22.373-13.103,33.798-19.198
		c1.05-0.56,2.96-0.699,3.887-0.112C140.679,200.647,147.123,205.069,154.343,209.901z"/>
	<path fill="#E31D1A" d="M277.168,80.736c-2.879,2.58-5.831,5.225-8.934,8.006c-26.087-48.195-65.707-76.025-120.887-76.355
		c-55.29-0.331-95.206,27.106-122.079,75.421c-3.278-1.239-6.77-2.559-10.207-3.858C22.343,49.406,80.288,6.896,126.353,1.22
		C197.966-7.604,253.665,32.732,277.168,80.736z"/>
	<path fill="#E31D1A" d="M290.479,78.379c-7.69,26.571-20.444,49.895-42.272,66.582c-22.853,17.471-47,33.253-70.696,49.608
		c-1.217,0.84-3.923,0.814-5.223,0.021c-6.243-3.804-12.24-8.01-18.364-12.1c23.551-16.372,47.53-31.852,70.159-49.105
		C246.811,116.057,268.192,96.963,290.479,78.379z"/>
	<path fill="#E31D1A" d="M182.287,144.075c-23.861-6.522-47.389-6.644-71.425-0.003c-1.612-10.597-3.423-21.501-4.743-32.464
		c-0.165-1.366,2.003-3.957,3.551-4.413c5.224-1.539,10.611-2.943,16.017-3.369c17.1-1.349,34.225-1.749,51.231,1.323
		c1.14,0.206,2.267,0.511,3.381,0.835c6.652,1.932,7.099,2.432,6.176,9.353C185.185,125.011,183.67,134.658,182.287,144.075z"/>
	<path fill="#E31D1A" d="M66.21,268.336c3.453-1.972,6.34-4.001,9.529-5.275c1.516-0.606,3.907-0.32,5.393,0.493
		c22.611,12.366,46.7,18.049,72.477,16.756c22.422-1.124,43.097-7.749,62.325-19.168c0.993-0.59,1.963-1.218,3.142-1.952
		c3.339,2.479,6.618,4.913,10.003,7.426C185.175,299.08,116.548,302.675,66.21,268.336z"/>
	<path fill="#E31D1A" d="M255.981,242.799c-3.372-2.06-6.485-3.961-10.055-6.142c1.478-1.812,2.805-3.412,4.102-5.034
		c25.029-31.297,34.958-66.686,29.09-106.463c-0.372-2.524,0.489-5.491,1.555-7.907c1.657-3.753,3.984-7.211,6.097-10.917
		C303.172,142.771,287.036,214.408,255.981,242.799z"/>
	<path fill="#E31D1A" d="M46.445,236.555c-9.803,6.917-9.888,6.981-16.672-2.097C11.857,210.48,1.6,183.614,0.621,153.613
		c-0.376-11.523,0.714-23.093,1.137-34.642c0.609-0.128,1.218-0.256,1.828-0.384c2.976,3.484,6.004,6.926,8.884,10.488
		c0.548,0.677,0.791,1.858,0.7,2.758c-4.033,39.459,7.696,73.869,33.157,103.909C46.415,235.847,46.378,236.061,46.445,236.555z"/>
	<path fill="#E31D1A" d="M111.423,148.909c2.422-1.097,4.743-2.698,7.283-3.21c18.49-3.728,37.039-3.743,55.532-0.015
		c2.587,0.522,4.971,2.054,7.449,3.119c0.016,0.562,0.033,1.123,0.049,1.685c-2.434,1.11-4.766,2.741-7.319,3.245
		c-18.666,3.688-37.387,3.635-56.049-0.047c-2.409-0.475-4.613-1.993-6.912-3.027C111.445,150.076,111.434,149.492,111.423,148.909z
		"/>
	<path fill="#E31D1A" d="M9.533,95.682c13.011,6.989,10.912,3.704,7.479,14.698C7.222,105.883,6.017,103.618,9.533,95.682z"/>
</g>
</svg>
