<?xml version="1.0" encoding="utf-8"?>
<!-- Generator: Adobe Illustrator 22.1.0, SVG Export Plug-In . SVG Version: 6.00 Build 0)  -->
<svg version="1.1" id="Layer_1" xmlns="http://www.w3.org/2000/svg" xmlns:xlink="http://www.w3.org/1999/xlink" x="0px" y="0px"
	 viewBox="0 0 291.929 291.929" enable-background="new 0 0 291.929 291.929" xml:space="preserve">
<g>
	<path fill="#7F1715" d="M291.929,146.167c-0.038,80.777-65.429,145.832-146.514,145.763C64.488,291.859-0.105,226.171,0,144.049
		C0.102,64.512,66.372-0.077,147.8,0C226.848,0.075,291.966,66.114,291.929,146.167z M279.855,145.738
		c-0.444-73.676-61.323-134.183-134.37-133.546C71.84,12.834,11.903,73.111,12.192,146.24
		c0.29,73.409,60.547,133.577,133.807,133.612C219.305,279.885,280.295,218.778,279.855,145.738z"/>
	<path fill="#7F1715" d="M198.894,65.128c3.274-3.728,7.218-8.221,11.374-12.954c11.947,8.033,21.103,17.409,29.222,28.856
		c-4.651,4.129-9.109,8.085-13.221,11.735c3.594,7.997,6.766,14.89,9.788,21.848c1.604,3.694,1.944,8.923,4.689,10.854
		c2.693,1.895,7.708,0.494,11.704,0.53c1.654,0.015,3.308,0.002,4.801,0.002c3.425,6.076,3.331,33.35,0.097,39.933
		c-4.77,0-9.76-0.188-14.719,0.124c-1.346,0.085-3.285,1.399-3.781,2.624c-3.915,9.658-7.545,19.43-11.906,30.85
		c3.42,2.919,8.072,6.891,13.841,11.816c-10.046,10.083-19.233,19.304-29.221,29.328c-4.441-4.707-7.804-8.594-11.567-12.045
		c-1.025-0.94-3.513-1.22-4.894-0.683c-8.653,3.364-17.111,7.233-25.797,10.501c-2.476,0.932-3.524,1.822-3.415,4.443
		c0.166,3.992,0.229,8.011-0.075,11.987c-0.096,1.254-1.358,3.311-2.335,3.47c-12.394,2.014-24.798,2.216-37.478-0.513
		c0-5.019-0.135-9.84,0.052-14.649c0.107-2.765-0.803-3.819-3.546-4.826c-8.552-3.14-16.978-6.677-25.242-10.514
		c-2.63-1.221-4.061-1.175-5.904,0.944c-3.155,3.629-6.54,7.059-10.044,10.804c-11.606-7.922-20.684-17.23-28.939-28.735
		c4.697-3.955,9.37-7.889,12.883-10.846c-4.526-11.879-8.266-21.929-12.272-31.872c-0.426-1.057-2.379-2.045-3.671-2.108
		c-4.963-0.244-9.946-0.099-15.156-0.099c-2.825-13.398-2.748-26.387-0.054-39.895c6.129,0,12.228,0,17.408,0
		c4.616-11.139,8.921-21.528,13.583-32.777c-3.744-3.322-8.219-7.291-12.938-11.478c7.974-11.994,17.411-21.123,29.16-29.505
		c3.895,4.71,7.796,9.427,10.948,13.238c12.08-5.011,22.461-9.318,33.637-13.954c0-5.052,0-11.155,0-17.39
		c13.488-2.85,26.486-2.715,39.926-0.126c0,6.094,0,12.047,0,17.46C176.762,56.01,187.141,60.286,198.894,65.128z M222.867,146.121
		c0.037-42.033-34.541-76.811-76.488-76.93c-42.39-0.12-77.156,34.408-77.188,76.661c-0.032,42.307,34.654,77.044,76.903,77.015
		C188.017,222.838,222.829,188.038,222.867,146.121z"/>
	<path fill="#7F1715" d="M145.859,215.188c-38.88-0.137-69.15-30.999-68.991-70.34c0.153-37.899,31.376-68.106,70.268-67.981
		c37.535,0.121,68.089,31.226,68.053,69.28C215.152,184.475,184.175,215.323,145.859,215.188z M171.619,102.731
		c-3.81-1.542-7.39-2.877-10.854-4.464c-1.015-0.465-2.522-1.78-2.409-2.48c0.915-5.658-2.653-6.314-6.781-6.453
		c-3.154-0.106-6.334-0.398-9.463-0.139c-7.782,0.646-7.773,0.753-8.703,8.163c-4.315,1.789-8.59,3.561-13.018,5.396
		c-1.654-1.437-3.365-2.923-5.846-5.078c-5.737,5.795-11.258,11.372-16.852,17.022c2.215,2.46,3.647,4.051,5.051,5.611
		c-1.425,3.509-2.994,6.808-4.087,10.258c-0.775,2.445-1.898,3.668-4.543,3.243c-2.863-0.461-4.414,0.637-4.377,3.736
		c0.068,5.628,0.054,11.258,0.024,16.886c-0.014,2.673,1.063,4.199,3.893,3.742c3.149-0.508,4.422,1.103,5.17,3.866
		c0.561,2.071,1.284,4.2,2.43,5.985c1.622,2.526,1.491,4.251-0.716,6.45c-0.913,0.909-1.19,3.934-0.414,4.816
		c4.57,5.191,9.536,10.034,14.433,15.06c2.593-2.258,4.32-3.762,5.901-5.138c4.506,1.896,8.762,3.687,13.115,5.519
		c0.173,2.263,0.346,4.532,0.555,7.273c8.159,0,15.957,0,22.74,0c1.341-3.484,1.574-6.783,3.239-7.854
		c3.521-2.265,7.79-3.367,11.617-4.892c1.78,1.588,3.351,2.99,5.715,5.099c5.774-5.829,11.302-11.409,16.889-17.048
		c-2.245-2.477-3.685-4.066-5.648-6.233c5.249-3.609,1.359-15.064,13.419-12.875c0-8.374,0-16.18,0-24.106
		c-3.16-0.236-5.441-0.406-8.339-0.622c1.335-6.218-9.607-11.601,0.137-17.973c-1.342-1.869-2.365-3.582-3.667-5.046
		c-2.32-2.607-4.656-5.237-7.259-7.548C177.308,97.882,177.237,97.962,171.619,102.731z"/>
</g>
</svg>
