<?xml version="1.0" encoding="utf-8"?>
<!-- Generator: Adobe Illustrator 22.1.0, SVG Export Plug-In . SVG Version: 6.00 Build 0)  -->
<svg version="1.1" id="Layer_1" xmlns="http://www.w3.org/2000/svg" xmlns:xlink="http://www.w3.org/1999/xlink" x="0px" y="0px"
	 viewBox="0 0 294.161 294.161" enable-background="new 0 0 294.161 294.161" xml:space="preserve">
<g>
	<path fill="#6B6B6B" d="M148.803,0C66.696-0.061,0.043,65.064,0,145.394c-0.044,82.779,65.045,148.699,146.891,148.767
		c81.334,0.068,147.261-65.677,147.27-146.861C294.169,66.594,228.511,0.06,148.803,0z M27.034,86.905
		C51.35,40.69,90.283,16.609,142.082,12.419c0.62,2.294-0.939,3.206-1.337,4.541c-0.006,1.101-0.757,1.634-1.6,2.097
		c-13.227,18.417-23.787,38.465-35.325,57.912c-12.9,21.743-26.005,43.38-38.266,65.482c-12.16,21.92-24.909,43.474-37.746,65.129
		C10.747,179.281,4.919,128.934,27.034,86.905z M194.892,106.039c-0.484,6.234-0.64,12.493-0.982,19.77
		c-7.616-11.447-18.157-16.683-30.715-18.762c0.042,2.318,2.851,2.102,2.872,4.51c-3.461-1.001-6.66,0.571-10.018,0.541
		c-3.039,0.7-3.039,0.7-2.88,1.718c9.231,3.001,18.341,6.293,24.791,14.1c9.181,11.111,13.109,23.877,7.838,37.541
		c-6.082,15.765-17.901,25.546-35.379,26.442c-16.494,0.845-28.784-6.718-37.195-20.696c-6.134-10.194-6.935-20.935-2.912-32.136
		c0.996-2.772,1.457-5.742,2.095-8.636c1.841-8.35,8.522-13.497,13.356-19.806c2.512-3.278,6.438-4.945,10.911-5.262
		c12.938-0.916,25.742-2.932,38.573-4.805c4.625-0.675,9.005-0.721,12.834-3.756c1.04-0.825,2.588-0.981,3.405,0.639
		C192.875,100.195,195.167,102.496,194.892,106.039z M198.132,174.139c0.739,9.581,2.031,18.794,9.726,26.8
		c-12.93,0-24.55,0-37.629,0C183.207,194.69,192.016,186.074,198.132,174.139z M106.998,182.983
		c5.877,7.772,13.333,13.635,21.933,18.604c-6.73,0-13.46-0.058-20.189,0.033c-2.231,0.03-2.888-0.899-2.785-2.985
		c0.156-3.157,0.122-6.323,0.169-9.486C107.144,187.197,105.826,184.914,106.998,182.983z M102.605,131.093
		c-1.907-3.305-1.41-6.331-1.42-9.267c-0.005-1.662,0.168-3.231-1.035-4.685c-1.685-2.035-1.18-4.029-0.153-6.426
		c1.981-4.623,4.82-6.295,9.955-5.701c5.453,0.631,11.035,0.142,16.815,0.602C116.291,111.79,107.879,119.775,102.605,131.093z
		 M92.659,193.627c0.264,2.807,3.282,6.247,1.55,7.661c-1.833,1.497-5.723,0.535-8.714,0.541
		c-12.313,0.025-24.626,0.011-37.954,0.011c14.567-25.084,28.628-49.297,42.688-73.509c0.343,0.062,0.687,0.124,1.03,0.185
		c0.301,10.382,0.6,20.764,0.903,31.147C92.491,170.979,91.594,182.306,92.659,193.627z M167.895,279.805
		c-61.59,9.728-112.116-23.21-135.929-63.858c77.594-0.707,154.606-2.064,232.859-3.775
		C242.261,249.915,210.504,273.075,167.895,279.805z M208.858,129.535c0.003-0.067,0.259-0.122,0.972-0.437
		c13.74,23.604,27.515,47.268,41.939,72.045c-14.041,0-26.93-0.01-39.82,0.012c-1.666,0.003-2.393-0.694-2.373-2.371
		C209.861,175.696,207.835,152.631,208.858,129.535z M268.347,204.847c-0.143,0.276-0.475,0.455-0.776,0.729
		c-16.8-26.356-32.585-53.292-48.322-80.273c-6.369-10.919-13.515-21.559-22.289-30.885c-0.408-0.433-0.53-1.136-0.763-1.663
		c1.629-1.525,3.681,0.045,6.642-2.14c-9.781,1.476-11.025-5.76-14.451-10.676c-7.968-11.433-17.428-21.792-24.457-33.906
		c-1.08-0.497-1.775-1.346-2.407-2.252c0.604,1.077,1.085,2.21,1.303,3.463c7.996,14.105,15.991,28.21,24.224,42.734
		c-25.635,1.015-50.657,1.571-75.83,1.429c8.982-17.781,17.992-35.619,27.002-53.456c-0.248-0.183-0.496-0.366-0.744-0.548
		c-1.872,2.21-3.744,4.421-5.616,6.631c-0.396-0.211-0.792-0.421-1.187-0.632c3.693-4.622,4.129-10.435,6.661-15.503
		c1.225-2.452,3.367-4.651,2.736-7.779c0.27-1.213,0.71-2.341,1.615-3.237c1.492-0.514,1.513-2.686,3.269-2.902
		c4.532-2.445,9.376-1.161,13.992-0.787c61.675,4.991,112.944,53.886,121.234,115.388c3.394,25.175,0.142,49.412-10.104,72.682
		C269.545,202.478,268.956,203.669,268.347,204.847z"/>
	<path fill="#6B6B6B" d="M158.588,38.695c-0.964-1.136-1.528-2.496-2.149-3.823c-0.61-1.122-1.161-2.279-1.942-3.301
		c-1.225-1.545-1.861-3.428-2.907-5.077c-1.661-2.356-3.062-4.833-3.589-7.718c-1.015-1.598-2.029-3.197-3.044-4.795
		c0.013,2.145,1.281,3.768,2.301,5.492c1.485,2.183,2.414,4.682,3.924,6.851c1.137,1.569,1.899,3.364,3.015,4.947
		c0.747,1.026,1.331,2.144,1.875,3.284c0.653,1.333,1.358,2.638,2.212,3.856c0.879,1.202,1.449,2.577,2.188,3.856
		c0.367,0.49,0.7,1.011,1.052,1.515c-0.336-0.599-0.71-1.182-1.1-1.756C159.906,40.864,159.349,39.723,158.588,38.695z"/>
	<path fill="#6B6B6B" d="M162.828,47.245c-1.497-1.441-2.474-3.172-2.903-5.208c0.408-0.468,0.844-0.497,1.31-0.087
		c1.432,1.009,2.081,2.535,2.697,4.083C163.564,46.438,163.196,46.841,162.828,47.245z"/>
	<path fill="#6B6B6B" d="M106.998,182.983c-0.515,2.024,0.44,4.255-0.872,6.166c-0.143-2.24-0.288-4.48-0.43-6.72
		c-0.044-0.689-0.018-1.419,0.918-0.752C106.904,181.884,106.879,182.535,106.998,182.983z"/>
	<path fill="#6B6B6B" d="M153.169,113.817c-0.953-0.106-2.19-0.294-2.067-1.385c0.102-0.904,1.322-0.402,2.053-0.416
		c0.964-0.018,1.929,0.051,2.894,0.082C155.089,112.671,154.129,113.244,153.169,113.817z"/>
	<path fill="#6B6B6B" d="M141.689,16.883c0.276,1.485-0.623,2.384-1.615,3.237c-0.31-0.354-0.619-0.709-0.929-1.063
		c0.221-0.938,0.634-1.73,1.601-2.097C141.054,16.868,141.369,16.842,141.689,16.883z"/>
	<path fill="#6B6B6B" d="M151.056,26.99c-1.938-2.396-3.892-4.785-3.054-8.213c2.066,1.954,2.681,4.741,4.065,7.086
		C152.566,26.989,151.964,27.126,151.056,26.99z"/>
	<path fill="#6B6B6B" d="M151.056,26.99c0.337-0.376,0.673-0.751,1.01-1.127c0.965,1.718,1.93,3.436,2.895,5.155
		c-0.182,0.45-0.498,0.768-0.947,0.953C152.614,30.556,151.734,28.833,151.056,26.99z"/>
	<path fill="#6B6B6B" d="M158.047,38.863c-1.069-1.025-1.785-2.253-2.119-3.699c-0.535-0.912-0.094-1.152,0.762-1.107
		c0.739,1.324,1.478,2.648,2.217,3.972C158.75,38.442,158.463,38.72,158.047,38.863z"/>
	<path fill="#6B6B6B" d="M158.047,38.863c0.286-0.278,0.573-0.555,0.86-0.833c0.776,1.307,1.552,2.613,2.328,3.92
		c-0.437,0.029-0.873,0.058-1.31,0.087C158.874,41.231,158.35,40.112,158.047,38.863z"/>
	<path fill="#6B6B6B" d="M156.689,34.058c-0.254,0.369-0.508,0.738-0.762,1.106c-0.638-1.065-1.276-2.129-1.914-3.194
		c0.316-0.318,0.631-0.635,0.947-0.953C155.537,32.031,156.113,33.044,156.689,34.058z"/>
</g>
</svg>
