<?xml version="1.0" encoding="utf-8"?>
<!-- Generator: Adobe Illustrator 22.1.0, SVG Export Plug-In . SVG Version: 6.00 Build 0)  -->
<svg version="1.1" id="Layer_1" xmlns="http://www.w3.org/2000/svg" xmlns:xlink="http://www.w3.org/1999/xlink" x="0px" y="0px"
	 viewBox="0 0 392.635 289.938" enable-background="new 0 0 392.635 289.938" xml:space="preserve">
<g>
	<path fill="#41693D" d="M165.409,280.275c-0.75-3.571-1.634-6.612-1.97-9.714c-0.32-2.953-0.069-5.968-0.069-10.02
		c-6.781,5.425-12.84,10.734-22.205,9.385c1.433-6.048,2.807-11.851,4.445-18.765c-8.556,6.232-16.001,12.238-26.808,10.073
		c4.612-6.398,8.862-12.295,13.113-18.192c-9.982,3.686-18.491,11.144-31.294,8.465c7.85-6.102,14.879-11.566,21.908-17.03
		c-8.787,2.083-16.854,6.444-26.67,3.59c11.746-6.14,23.102-11.638,34.012-17.911c9.652-5.55,19.058-11.614,28.111-18.096
		c8.961-6.416,8.707-6.77,1.776-15.463c-7.602,2.11-7.679,2.043-8.16-7.553c-2.438,0.632-4.802,1.742-7.137,1.685
		c-1.735-0.042-3.434-1.598-5.149-2.48c0.164-0.454,0.327-0.909,0.491-1.363c-2.561,0.546-5.216,1.764-7.653,1.423
		c-1.935-0.27-3.604-2.448-5.944-4.191c-1.797,0.474-4.492,1.184-7.441,1.962c-0.66-1.475-1.242-2.774-1.912-4.271
		c-1.929,0-3.876,0-6.043,0c-0.297-1.637-0.553-3.048-0.808-4.452c-3.514-0.816-7.853-0.01-8.325-5.401
		c-0.053-0.605-2.487-1.334-3.856-1.428c-3.851-0.264-6.655-1.234-5.276-5.915c-10.275-2.084-10.275-2.084-10.19-8.066
		c-1.782-0.549-3.734-0.941-5.486-1.76c-1.277-0.597-3.316-1.834-3.254-2.653c0.389-5.168-3.512-6.097-7.312-7.513
		c2.195-4.27-0.613-5.802-3.446-7.82c-3.092-2.202-7.944-3.683-6.062-9.034c-3.675-4.989-13.241-4.733-11.839-13.934
		c-4.665-3.638-9.453-7.372-14.722-11.482c2.045-1.638,3.291-2.635,4.789-3.835c-4.993-4.392-10.005-8.8-15.997-14.069
		c3.689-0.61,5.873-0.972,8.244-1.364c-5.382-4.955-10.538-9.702-16.63-15.311c3.648-0.337,5.689-0.525,8.259-0.762
		c-5.139-5.504-9.934-10.639-14.728-15.773c0.225-0.438,0.451-0.877,0.676-1.315c2.96,0.448,5.92,0.896,9.546,1.445
		C9.293,35.526,4.646,30.2,0,24.875c0.278-0.434,0.557-0.868,0.835-1.302c3.638,1.416,7.276,2.832,11.833,4.605
		c-4.482-6.29-8.372-11.75-12.263-17.21c0.245-0.249,0.491-0.498,0.736-0.748c5.741,4.167,11.482,8.333,17.222,12.5
		c0.196-0.184,0.391-0.369,0.587-0.553C15.442,15.471,11.934,8.775,8.426,2.078c0.209-0.047,0.418-0.094,0.627-0.141
		c8.741,9.613,17.482,19.227,26.223,28.84c0.332-0.278,0.665-0.555,0.997-0.833c-3.002-6.724-6.004-13.448-9.006-20.172
		c0.517-0.266,1.033-0.532,1.55-0.798c5.07,12.634,12.625,23.755,22.594,32.64C66.306,54.89,82.088,67.172,97.532,79.829
		c2.573,2.109,5.069,4.923,8.069,5.793c11.04,3.199,16.28,13.261,24.393,19.853c8.899,7.23,17.19,15.272,25.261,23.44
		c7.94,8.036,15.233,16.708,22.925,24.994c0.815,0.878,2.656,1.745,3.601,1.415c9.643-3.366,19.181-3.476,28.836-0.046
		c0.987,0.351,2.861-0.379,3.696-1.227c13.998-14.217,27.784-28.644,41.861-42.781c7.869-7.903,16.078-15.481,24.383-22.927
		c1.746-1.565,4.73-1.658,6.88-2.89c2.44-1.398,4.652-3.228,6.844-5.016c15.212-12.416,30.721-24.497,45.474-37.438
		c10.565-9.267,18.722-20.681,25.017-33.58c-1.177,3.584-2.082,7.29-3.609,10.719c-1.523,3.422-3.669,6.568-5.21,10.103
		c10.51-8.347,19.934-17.666,27.443-30.24c-0.944,9.532-6.532,15.67-9.891,23.309c6.168-4.528,12.336-9.055,18.504-13.583
		c0.209,0.126,0.417,0.251,0.626,0.377c-3.863,5.588-7.727,11.176-12.282,17.766c4.469-1.679,7.817-2.937,11.165-4.195
		c0.367,0.308,0.734,0.617,1.101,0.925c-4.582,5.376-9.165,10.752-14.188,16.646c3.257-0.478,6.169-0.905,9.08-1.332
		c0.329,0.343,0.659,0.686,0.988,1.029c-4.74,5.216-9.48,10.431-14.557,16.017c2.436,0.259,4.444,0.473,8.013,0.852
		c-6.074,5.581-11.224,10.312-16.588,15.241c2.491,0.427,4.686,0.803,8.287,1.42c-5.937,5.167-10.899,9.486-16.085,13.999
		c1.445,1.136,2.803,2.204,4.936,3.881c-5.136,3.984-9.946,7.714-14.946,11.592c1.868,9.077-7.897,8.703-11.679,14.083
		c2.211,3.271-1.126,4.742-3.245,6.857c-2.745,2.739-8.576,3.258-6.852,9.297c-5.372,1.18-5.543,6.906-8.745,9.882
		c-1.552,1.443-4.262,1.639-6.488,2.413c-0.347,6.25-0.475,6.353-10.338,7.989c1.147,7.386-4.899,5.467-9.11,6.594
		c0.125,5.626-4.181,5.744-8.429,6.182c-0.357,1.422-0.707,2.817-1.131,4.511c-1.959,0-3.89,0-5.796,0
		c-2.007,7.802-6.531,1.992-10.397,2.287c-2.056,7.698-7.581,3.612-12.498,2.723c-1.98,8.502-7.4,1.874-11.496,2.722
		c-0.459,2.355-0.287,5.391-1.689,7.219c-0.862,1.124-4.131,0.402-6.356-0.184c-0.289,0.156-0.667,0.242-0.854,0.479
		c-6.624,8.352-6.699,8.525,2.127,15.147c17.393,13.049,36.512,23.161,56.054,32.529c1.888,0.905,3.738,1.888,6.549,3.314
		c-9.883,2.781-17.619-1.132-26.182-2.841c6.755,5.242,13.51,10.483,21.131,16.398c-12.668,2.589-21.208-4.392-30.341-9.398
		c-0.328,0.282-0.656,0.564-0.985,0.846c4.213,5.943,8.425,11.887,12.985,18.319c-10.72,1.891-18.324-3.649-26.859-10.439
		c1.715,7.112,3.121,12.942,4.528,18.778c-5.749,1.015-5.749,1.015-21.445-8.024c-0.797,6.045-1.602,12.155-2.459,18.66
		c-10.55-3.384-15.591-11.168-19.964-18.619c-3.271,9.448-6.531,18.861-9.79,28.274c-0.583-0.086-1.167-0.172-1.75-0.258
		c-5.697-8.619-8.897-18.185-10.113-29.638C180.809,269.043,175.689,276.744,165.409,280.275z M211.226,186.826
		c-0.235-0.231-0.469-0.461-0.704-0.692c-1.874,2.084-3.678,4.237-5.636,6.239c-6.512,6.657-11.278,6.562-17.601-0.45
		c-2.661-2.951-5.069-6.13-7.592-9.206c-0.259,0.197-0.518,0.395-0.777,0.592c5.761,8.441,11.522,16.882,17.433,25.541
		C201.533,201.177,206.38,194.001,211.226,186.826z"/>
	<path fill="#41693D" d="M93.921,69.512c-2.158-1.562-3.918-2.797-5.633-4.091c-0.919-0.694-1.762-1.489-3.155-2.68
		c25.811-34.627,59.92-54.258,102.857-57.071c51.843-3.397,95.396,22.705,119.233,57.305c-2.627,2.069-5.29,4.165-8.392,6.607
		c-25.797-34.253-59.883-53.059-102.528-53.043C153.816,16.555,119.813,35.165,93.921,69.512z"/>
	<path fill="#41693D" d="M288.256,226.708c11.086-12.465,20.244-25.795,25.156-41.352c3.427-10.855,5.213-22.225,7.856-33.335
		c0.425-1.787,1.264-3.582,2.314-5.093c2.707-3.895,5.639-7.632,8.83-11.899c0.961,12.175-0.308,23.845-2.769,35.334
		c-4.456,20.799-13.522,39.466-26.591,56.304c-3.151,4.06-5.848,5.346-10.177,2.387C291.655,228.22,290.226,227.694,288.256,226.708
		z"/>
	<path fill="#41693D" d="M60.242,135.132c3.409,4.452,6.604,8.453,9.578,12.612c0.909,1.272,1.597,2.946,1.732,4.492
		c2.433,27.971,13.259,52.27,31.785,73.245c0.2,0.226,0.251,0.583,0.372,0.886c-0.166,0.269-0.27,0.655-0.507,0.776
		c-11.335,5.795-8.677,5.753-15.339-3.008C67.907,197.889,58.775,168.177,60.242,135.132z"/>
</g>
</svg>
