<?xml version="1.0" encoding="utf-8"?>
<!-- Generator: Adobe Illustrator 22.1.0, SVG Export Plug-In . SVG Version: 6.00 Build 0)  -->
<svg version="1.1" id="Layer_1" xmlns="http://www.w3.org/2000/svg" xmlns:xlink="http://www.w3.org/1999/xlink" x="0px" y="0px"
	 viewBox="0 0 294.116 293.937" enable-background="new 0 0 294.116 293.937" xml:space="preserve">
<g>
	<path fill="#E98F2D" d="M50.013,13.009c21.607-4.382,42.102,0.209,62.089,7.69c39.617,14.828,73.283,38.915,103.876,67.643
		c20.957,19.679,39.323,41.576,55.704,65.187c2.191,3.159,2.785,5.633,0.374,8.876c-2.073,2.789-3.281,6.249-5.477,8.913
		c-3.474,4.214-1.691,10.874-7.073,14.186c-1.42,0.874,0.434,2.341,0.888,3.474c0.758,1.891,1.771,3.913,0.211,5.613
		c-1.507,1.641-3.425,0.402-5.081-0.244c-7.367-2.873-7.337-2.872-12.17,3.27c-9.991,12.695-20.694,24.782-31.301,36.958
		c-3.403,3.906-6.77,5.476-11.636,3.726c-1.855-0.667-4.028-0.075-6.264-1.741c6.34-6.548,12.661-12.984,18.879-19.519
		c9.178-9.646,18.229-19.415,27.463-29.007c1.893-1.966,1.923-3.253,0.178-5.299c-1.594-1.869-2.718-4.168-3.873-6.371
		c-0.941-1.795-1.688-3.916-0.091-5.593c1.68-1.764,3.916-0.971,5.477,0.222c2.742,2.095,4.552,0.836,6.293-1.195
		c0.814-0.95,2.583-1.397,2.173-3.041c-0.416-1.667-2.044-2.14-3.487-2.441c-1.448-0.303-3.141-0.731-4.43-0.272
		c-5.014,1.785-6.74-1.196-9.076-4.874c-19.528-30.752-44.171-57.051-71.558-80.857c-28.974-25.185-60.662-46.05-96.739-59.764
		C60.279,16.616,55.131,14.851,50.013,13.009z"/>
	<path fill="#E98F2D" d="M159.969,293.04c0.55-0.669,0.728-0.888,0.908-1.106c9.292-11.272,22.601-14.977,35.497-20.359
		c47.67-19.893,76.644-55.722,83.564-107.153c9.503-70.626-36.508-134.3-106.317-149.056c-17.133-3.622-34.427-3.701-51.582-0.201
		c-5.27,1.075-9.951,1.065-14.917-1.062c-3.877-1.66-8.118-2.471-12.409-3.72c36.957-16.64,96.404-15.645,142.461,20.538
		c50.251,39.478,69.472,103.995,48.661,164.478C265.779,253.692,211.833,289.768,159.969,293.04z"/>
	<path fill="#E98F2D" d="M5.871,113.961c0.404,13.38,2.721,26.424,6.293,39.325c2.393,8.641,2.497,17.73,4.675,26.487
		c13.16,52.915,58.75,93.591,112.761,100.323c3.239,0.404,6.476,0.813,10.268,1.29c-3.771,4.436-8.172,7.361-12.389,10.454
		c-1.943,1.425-4.263,0.218-6.288-0.177c-44.337-8.655-78.438-32.235-101.259-71.202C0.306,186.95-4.549,150.891,4.143,113.03
		C5.223,112.404,5.439,113.383,5.871,113.961z"/>
	<path fill="#E9902D" d="M44.086,79.064c-1.004,18.888-0.57,37.705,5.548,55.808c14.966,44.279,43.839,75.471,88.017,91.72
		c27.283,10.035,55.508,16.227,84.386,19.473c2.137,0.24,4.257,0.633,6.726,1.007c-3.466,4.605-7.479,5.744-13.023,4.964
		c-33.422-4.702-66.131-11.685-96.638-26.911c-37.962-18.947-62.568-48.692-73.504-89.705c-5.141-19.279-5.874-38.749-2.445-58.39
		C45.038,76.987,44.39,78.104,44.086,79.064z"/>
	<path fill="#E9902D" d="M193.981,253.392c-13.28,13.978-26.6,26.752-40.221,39.222c-0.89,0.815-1.819,1.335-3.094,1.324
		c-5.287-0.045-10.575-0.019-16.077-0.019c0.03-2.314,1.469-2.774,2.362-3.512c13.102-10.835,25.651-22.291,37.461-34.501
		c3.895-4.027,7.569-6.068,13.031-3.961C189.265,252.647,191.291,252.816,193.981,253.392z"/>
	<path fill="#E9902E" d="M52.685,192.855c-4.687-0.209-8.66-1.227-12.592-2.553c-2.355-0.794-2.462-1.801-0.723-3.382
		c4.066-3.695,8.286-7.106,13.859-8.292c4.825-1.027,10.626,1.192,11.554,4.471c0.925,3.269-3.174,7.844-8.222,9.089
		C55.13,192.541,53.649,192.693,52.685,192.855z"/>
	<path fill="#E9902E" d="M102.82,220.925c7.766-0.007,10.034,3.581,7.206,9.12c-2.782,5.446-8.021,7.06-13.527,7.955
		c-2.852,0.464-6.866,2.29-8.34,0.053c-1.458-2.214,1.625-5.358,3.18-7.818C94.405,225.382,98.081,221.192,102.82,220.925z"/>
	<path fill="#E9902E" d="M123.454,211.842c0.314-6.791,1.798-11.33,3.89-15.7c0.736-1.538,1.416-2.693,3.039-0.658
		c3.676,4.608,6.637,9.561,7.375,15.511c0.595,4.796-2.965,10.604-6.285,10.652C127.451,221.704,123.413,215.787,123.454,211.842z"
		/>
	<path fill="#E9902E" d="M28.164,116.983c1.362,0.291,3.365,0.524,5.232,1.157c3.961,1.343,7.468,5.862,6.374,8.486
		c-1.613,3.867-5.283,5.232-9.02,4.973c-6.81-0.471-12.063-4.347-16.738-9.052c-1.562-1.572-0.569-2.154,0.93-2.733
		C19.005,118.245,23.18,117.253,28.164,116.983z"/>
	<path fill="#E9902E" d="M73.055,158.747c-1.114,0.254-2.228,0.51-3.343,0.763c-2.391,0.542-5.027,1.62-6.927-0.634
		c-1.906-2.26-2.311-5.118-1.369-8.007c2.565-7.868,9.075-11.378,16.279-14.825c1.379,7.242-0.438,13.626-2.745,19.947
		C75.514,157.732,74.392,158.313,73.055,158.747z"/>
	<path fill="#E9902E" d="M63.287,124.116c2.859-0.732,5.269-2.809,8.776-2.868c0.148,6.898-1.346,13.208-5.669,18.584
		c-2.951,3.67-8.483,5.014-11.09,3.085c-2.827-2.091-2.834-7.8,0.104-11.856c1.06-1.464,2.395-2.73,3.605-4.086
		C59.75,124.995,61.423,124.413,63.287,124.116z"/>
	<path fill="#E9902E" d="M56.79,125.828c-2.684-0.292-6.115,0.75-7.377-2.61c-1.374-3.657-0.358-7.261,2.288-10.13
		c4.36-4.728,10.237-6.518,16.278-7.766c2.705-0.559,2.01,1.494,1.664,2.833c-1.423,5.505-3.667,10.612-7.637,14.817
		C61.264,125.742,58.7,125.188,56.79,125.828z"/>
	<path fill="#E9902E" d="M109.738,194.791c1.586-3.226,2.847-6.65,5.656-9.509c4.073,5.64,7.069,11.376,6.709,18.346
		c-0.067,1.3-0.195,2.697-0.722,3.854c-1.261,2.766-2.984,5.571-6.403,5.377c-3.056-0.174-4.732-2.736-5.918-5.4
		c-1.04-2.336-0.963-4.834-0.958-7.314C109.012,198.471,107.258,195.984,109.738,194.791z"/>
	<path fill="#E9902E" d="M52.835,85.927c-5.512-0.1-7.685-2.887-6.403-7.545c1.557-5.658,6.066-8.11,11.15-9.698
		c3.468-1.083,8.622-3.485,10.305-1.212c1.949,2.631-1.647,6.838-3.591,10.006C61.512,82.014,57.968,85.658,52.835,85.927z"/>
	<path fill="#E9902E" d="M36.074,85.098c-6.297,0.001-9.315-3.075-11.658-6.835c-2.448-3.929-6.278-9.874-3.81-12.495
		c2.848-3.025,8.473,1.062,12.564,3.07c3.727,1.829,6.413,4.759,7.4,8.924C41.725,82.635,39.664,85.16,36.074,85.098z"/>
	<path fill="#E9902E" d="M26.934,167.731c4.952-4.491,10.126-7.599,16.357-8.568c5.3-0.824,11.523,2.676,11.578,6.304
		c0.054,3.559-5.208,7.429-10.385,7.601C38.139,173.279,32.553,171.096,26.934,167.731z"/>
	<path fill="#E9902E" d="M93.57,163.183c2.486,6.029,3.055,11.833,2.093,17.81c-0.156,0.971-0.492,1.936-0.889,2.84
		c-1.722,3.92-6.569,6.988-9.339,5.969c-2.808-1.033-4.898-6.407-3.921-10.423C83.212,172.4,87.964,167.71,93.57,163.183z"/>
	<path fill="#E9902E" d="M107.104,197.984c-2.173,2.408-4.318,5.853-8.014,4.142c-4.163-1.927-5.44-6.078-4.736-10.516
		c1.018-6.423,4.497-11.576,9.066-16.469c2.899,3.581,3.648,7.773,4.774,11.804C108.071,190.649,109.808,194.536,107.104,197.984z"
		/>
	<path fill="#E9902E" d="M21.132,93.758c6.782-0.027,11.876,0.594,15.171,5.431c2.848,4.18,1.84,6.988-2.829,8.899
		c-3.37,1.379-6.529,0.622-9.601-0.811c-4.305-2.007-7.568-5.303-10.635-8.836c-2.021-2.327-1.35-3.374,1.505-3.723
		C17.365,94.398,19.971,93.936,21.132,93.758z"/>
	<path fill="#E9902E" d="M71.086,90.086c-2.215,6.106-5.423,10.658-9.925,14.242c-3.497,2.783-7.393,3.615-11.658,1.794
		c-1.704-0.727-2.624-1.875-2.533-3.828c0.216-4.654,2.702-7.697,6.708-9.695C59.044,89.922,64.729,89.481,71.086,90.086z"/>
	<path fill="#E9902E" d="M67.813,224.551c3.25-5.777,6.855-10.477,12.272-13.426c4.536-2.47,11.31-1.525,12.783,1.551
		c1.718,3.589-1.551,9.11-6.886,11.188C80.238,226.101,74.317,226.123,67.813,224.551z"/>
	<path fill="#E9902E" d="M17.688,144.437c5.956-3.581,11.665-6.007,18.222-5.585c4.991,0.321,9.931,4.298,9.705,7.686
		c-0.226,3.394-5.715,6.802-10.679,6.306C28.457,152.198,23.077,149.088,17.688,144.437z"/>
	<path fill="#E9902E" d="M73.055,158.747c0.632-0.919,1.264-1.838,1.895-2.756c3.361-0.901,4.831-4.553,8.758-5.751
		c1.729,6.629,2.496,13.18-0.163,19.688c-1.786,4.372-6.825,7.166-9.877,5.912c-2.939-1.207-4.527-6.755-3.064-11.151
		C71.279,162.661,72.23,160.725,73.055,158.747z"/>
	<path fill="#E9902E" d="M122.319,231.087c5.778-0.033,8.02,3.507,6.152,8.616c-2.081,5.691-6.919,8.295-12.225,10.05
		c-2.55,0.844-5.957,3.161-7.763,1.194c-1.792-1.953,0.591-5.287,1.607-7.826C112.509,237.073,115.89,231.879,122.319,231.087z"/>
	<path fill="#E9902E" d="M54.119,52.272c0.194,4.63-1.135,8.446-5.429,10.908c-2.123,1.217-3.803,0.774-5.365-0.785
		c-3.407-3.403-3.95-7.445-2.677-11.946c0.867-3.067,2.067-5.968,3.954-8.523c1.325-1.793,2.205-5.057,4.529-4.628
		c2.034,0.375,2.431,3.631,3.238,5.755C53.493,46.009,54.248,49.065,54.119,52.272z"/>
	<path fill="#E9902E" d="M60.652,210.045c-2.948-0.188-8.211,0.608-9.168-1.926c-1.263-3.345,3.494-5.697,5.971-8.188
		c2.483-2.498,5.535-4.289,9.059-4.836c3.975-0.617,8.259-0.19,9.642,4.031c1.274,3.891-1.708,6.838-4.958,8.841
		C68.142,209.85,64.644,210.107,60.652,210.045z"/>
	<path fill="#E9902E" d="M59.614,45.15c-0.625-1.601-1.252-2.753-1.518-3.982c-0.655-3.027-4.263-6.248-2.499-8.62
		c2.465-3.313,6.722-5.288,10.193-7.862c1.192-0.884,2.254-0.184,3.281,0.243c3.808,1.583,7.583,3.244,11.958,5.129
		C73.238,34.794,66.347,39.579,59.614,45.15z"/>
	<path fill="#FBEEE0" d="M107.104,197.984c1.406-3.577,1.088-7.324,1.09-11.039c2.007,2.322-0.25,5.483,1.544,7.846
		c-0.546,1.784-1.092,3.567-1.637,5.352C107.769,199.424,107.436,198.704,107.104,197.984z"/>
	<path fill="#FCF1E6" d="M56.79,125.828c1.739-0.952,3.477-1.905,5.216-2.857c0.427,0.382,0.853,0.763,1.28,1.145
		c-1.425,0.953-2.85,1.906-4.274,2.859C58.55,126.053,57.647,125.985,56.79,125.828z"/>
	<path fill="#EEAB62" d="M44.086,79.064c-0.311-0.678-0.622-1.356-0.932-2.034c-0.128-1.298-0.15-2.564,1.386-3.808
		C45.106,75.407,45.122,77.244,44.086,79.064z"/>
	<path fill="#F0B472" d="M5.871,113.961c-0.576-0.31-1.152-0.621-1.728-0.931c-0.107-1.52,0.527-2.801,1.728-4.971
		C5.871,110.631,5.871,112.296,5.871,113.961z"/>
	<path fill="#F5CDA2" d="M45.529,67.604c0.692,1.518-0.231,2.493-1.191,4.321C43.789,69.72,44.518,68.696,45.529,67.604z"/>
	<path fill="#FDFAF7" d="M264.809,154.947c-0.601,2.54-1.859,4.288-4.721,4.106c-2.568-0.163-4.034-1.783-3.971-4.171
		c0.07-2.657,1.761-4.189,4.563-4.077C263.313,150.909,264.301,152.7,264.809,154.947z"/>
</g>
</svg>
