<?xml version="1.0" encoding="utf-8"?>
<!-- Generator: Adobe Illustrator 22.1.0, SVG Export Plug-In . SVG Version: 6.00 Build 0)  -->
<svg version="1.1" id="Layer_1" xmlns="http://www.w3.org/2000/svg" xmlns:xlink="http://www.w3.org/1999/xlink" x="0px" y="0px"
	 viewBox="0 0 293.577 293.911" enable-background="new 0 0 293.577 293.911" xml:space="preserve">
<g>
	<path fill="#3AA7B8" d="M148.499,0.001C66.058-0.32,0.639,65.12,0.005,144.721c-0.661,82.966,64.631,148.912,146.482,149.189
		c80.817,0.273,147.09-65.82,147.09-146.69C293.577,66.641,227.996,0.311,148.499,0.001z M146.712,281.055
		c-74.06-0.001-134.15-60.085-134.135-134.121C12.593,73.018,72.937,12.688,146.774,12.77
		c74.229,0.082,134.136,60.271,134.091,134.723C280.822,221.121,220.621,281.056,146.712,281.055z"/>
	<path fill="#3AA7B8" d="M99.551,132.86c3.103,0.444,4.65,1.71,5.205,4.86c0.895,5.088,3.666,9.219,7.579,12.562
		c0.683,0.583,1.452,1.876,2.43,0.977c2.937-2.7,5.89-5.428,8.462-8.464c1.638-1.933-1.421-3.468-1.217-5.782
		c2.935-0.413,5.993,1.599,9.035-1.593c11.825-12.408,24.074-24.416,36.298-36.437c2.098-2.063,2.31-3.287,0.343-5.645
		c-10.612-12.721-23.299-22.702-38.187-29.945c-2.656-1.292-5.157-1.572-8.141-1.018c-9.113,1.692-17.962,4.63-27.443,4.635
		c-16.509,0.008-29.735,7.262-40.259,19.774c-1.669,1.984-2.605,3.589-0.041,5.766c2.009,1.706,3.079,4.181,2.979,7.191
		c-3.018-0.452-5.394-2.626-8.33-1.54c0.045,0.318-0.013,0.721,0.161,0.938C61.843,115.874,77.236,129.665,99.551,132.86z
		 M95.056,87.467c7.049,7.735,2.173,21.274-9.176,25.889C92.564,106.168,97.371,98.303,95.056,87.467z M79.663,84.486
		c1.768,0.3,3.101,1.208,3.076,3.217c-0.024,1.909-1.063,3.217-3.061,3.229c-2.162,0.013-3.5-1.249-3.399-3.413
		C76.367,85.632,77.606,84.541,79.663,84.486z"/>
	<path fill="#3AA7B8" d="M187.874,146.901c-2.143,0-4.307,0.196-6.425-0.035c-7.967-0.868-15.837-2.098-22.733-6.698
		c-3.377-2.252-4.343-3.958-0.765-7.462c25.224-24.7,50.213-49.641,75.258-74.524c0.909-0.903,2.764-1.831,2.265-3.002
		c-1.343-3.149-4.424-4.921-7.054-6.844c-2.357-1.723-3.445,1.203-4.676,2.433C166.46,107.96,109.227,165.2,52.017,222.463
		c-1.103,1.104-2.817,1.881-2.817,4.894c53.031-15.397,96.352-46.803,139.23-78.991
		C188.244,147.877,188.059,147.389,187.874,146.901z"/>
	<path fill="#3AA7B8" d="M207.232,169.82c1.443,0.364,2.785,0.702,4.795,1.209c-2.067-8.992-4.825-17.1-8.171-25.03
		c-1.233-2.922-2.478-0.972-3.673-0.02c-5.859,4.668-11.584,9.514-17.6,13.969c-2.649,1.962-2.853,3.125-0.642,5.675
		c8.209,9.471,15.167,19.782,20.059,31.416c3.576,8.503,2.19,16.167-3.163,23.465c-2.536,3.457-6.041,5.933-8.992,9.103
		c10.332,4.828,20.614,3.238,26.499-4.468c2.001-2.62,3.35-2.568,6.026-1.39c9.466,4.167,16.935,2.651,23.211-4.52
		C228.942,211.567,209.781,186.833,207.232,169.82z"/>
	<path fill="#3AA7B8" d="M179.275,118.713c-5.048,5.458-9.19,10.223-13.661,14.654c-2.292,2.271-2.079,3.331,0.823,4.356
		c11.298,3.99,22.953,3.963,34.93,3.746c-1.558-5.839-4.452-9.804-9.545-12.013C186.975,127.353,181.828,125.641,179.275,118.713z"
		/>
</g>
</svg>
