<?xml version="1.0" encoding="utf-8"?>
<!-- Generator: Adobe Illustrator 22.1.0, SVG Export Plug-In . SVG Version: 6.00 Build 0)  -->
<svg version="1.1" id="Layer_1" xmlns="http://www.w3.org/2000/svg" xmlns:xlink="http://www.w3.org/1999/xlink" x="0px" y="0px"
	 viewBox="0 0 293.723 318.814" enable-background="new 0 0 293.723 318.814" xml:space="preserve">
<g>
	<path fill="#34B0C8" d="M264.995,204.356c12.059,11.447,19.202,24.796,14.792,41.882c-2.612,10.12-9.847,17.16-17.947,23.273
		c-16.021,12.09-34.471,19.26-53.162,25.818c-15.674,5.499-31.514,10.523-47.246,15.858c-4.715,1.599-9.405,3.373-13.212,6.784
		c-0.779,0.698-1.276,1.315-2.43,0.332c-7.322-6.239-16.584-8.194-25.347-11.175c-23.738-8.076-47.977-14.813-70.396-26.389
		c-10.536-5.44-20.675-11.519-28.403-20.766c-10.722-12.829-11.991-27.586-3.735-42.145c2.879-5.078,6.279-9.793,10.851-13.541
		c1.871-0.048,1.757,0.994,1.238,2.257c-0.583,8.9-0.782,17.729,5.226,25.254c1.024,1.283,0.397,1.959-0.571,2.857
		c-3.404,3.156-3.273,7.06-2.056,11.086c2.885,9.544,9.714,15.779,17.963,20.534c15.727,9.066,32.995,10.807,50.69,9.78
		c8.635-0.501,17.183-1.847,25.673-3.578c2.852-0.581,4.133-1.486,4.24-4.782c0.504-15.627,1.367-31.243,2.102-46.863
		c0.307-6.53,0.286-6.353,6.591-5.63c5.455,0.625,10.974,0.851,16.391-0.497c2.71-0.674,3.769-0.059,3.896,3.044
		c0.667,16.282,1.682,32.549,2.345,48.831c0.153,3.767,1.273,5.318,5.241,6.091c20.467,3.991,40.878,5.806,61.23-0.281
		c11.21-3.353,21.406-8.647,28.157-18.639c4.13-6.112,8.157-12.7,1.282-19.74c-0.728-0.746-0.539-1.488,0.041-2.197
		c6.116-7.483,5.902-16.305,5.339-25.202C263.395,205.436,263.048,204.277,264.995,204.356z"/>
	<path fill="#34B0C8" d="M136.961,27.051c-33.561,3.13-62.126,15.66-84.966,39.291c-36.61,37.878-47.351,82.796-33.565,133.502
		c1.303,4.793,1.608,8.42-1.89,12.202c-1.761,1.905-2.793,4.484-4.452,7.255c-5.018-10.785-8.3-21.74-10.026-33.045
		c-7.805-51.129,6.52-95.222,43.436-131.457c22.138-21.729,49.149-34.34,79.772-39.222c2.849-0.454,5.134-0.524,5.924,3.227
		C131.848,21.909,134.286,24.182,136.961,27.051z"/>
	<path fill="#34B0C8" d="M156.938,26.99c2.809-3.445,5.232-6.279,6.339-10.108c0.86-2.975,3.754-1.448,5.625-1.159
		c20.484,3.172,39.743,9.952,56.963,21.512c46.891,31.478,69.45,75.749,67.77,132.124c-0.488,16.39-4.482,32.239-10.776,47.438
		c-0.303,0.731-0.793,1.383-1.209,2.094c-2.313-3.492-4.345-6.936-6.761-10.086c-1.772-2.309-0.86-4.289-0.195-6.54
		c13.375-45.267,6.417-87.094-22.674-124.373C228.19,47.354,196.132,30.997,156.938,26.99z"/>
	<path fill="#36B1C9" d="M230.254,266.318c10.219-8.499,18.821-17.308,25.943-27.589
		C261.674,246.681,244.884,264.192,230.254,266.318z"/>
	<path fill="#37B2C9" d="M59.625,265.647c-9.227-3.544-17.097-8.794-21.652-17.912c-1.346-2.695-2.796-5.638-0.755-9.305
		c7.016,9.894,15.019,18.24,23.764,25.891C61.155,265.402,60.858,266.003,59.625,265.647z"/>
	<path fill="#5BC0D3" d="M59.625,265.647c0.452-0.442,0.905-0.884,1.357-1.326c0.82,0.661,1.641,1.323,2.829,2.28
		C61.791,267.206,60.699,266.464,59.625,265.647z"/>
	<path fill="#69C5D7" d="M29.999,206.543c-0.22-0.858-0.282-1.803-1.238-2.257c0.421-0.698,1.26-1.799,1.725-1.267
		C31.412,204.08,30.812,205.441,29.999,206.543z"/>
	<path fill="#60C1D4" d="M264.995,204.356c-0.948,0.459-1,1.402-1.217,2.256c-0.879-1.096-1.382-2.481-0.471-3.533
		C263.772,202.542,264.635,203.597,264.995,204.356z"/>
	<path fill="#34B0C8" d="M177.255,47.856c-0.838-1.259-2.192-1.827-3.489-1.277c-5.857,2.485-11.74,0.326-17.607,0.35
		c-3.084,0.013-4.071-1.524-4.104-4.286c-0.059-4.996-0.145-9.992-0.314-14.985c-0.067-1.979,0.52-3.275,2.197-4.594
		c6.724-5.285,7.506-13.412,2.091-19.099c-4.981-5.231-13.328-5.293-18.289-0.136c-5.61,5.832-4.719,13.826,2.268,19.483
		c1.079,0.874,2.107,1.538,2.032,3.123c-0.273,5.816-0.566,11.632-0.711,17.451c-0.054,2.167-1.042,2.903-3.052,2.958
		c-6.028,0.164-12.061,2.169-18.081-0.225c-1.317-0.524-2.637-0.136-3.568,1.078c-0.781,1.018-0.942,2.158-0.393,3.286
		c0.628,1.291,1.948,2.487,3.161,1.86c5.537-2.858,11.131-0.21,16.663-0.543c3.755-0.226,5.24,0.786,4.953,4.996
		c-0.896,13.11-1.326,26.251-1.998,40.695c-0.216,8.338-0.216,8.338,9.217,8.437c0.167,0.002,0.333-0.001,0.5,0.001
		c6.29,0.105,6.341,0.103,6.054-6.466c-0.631-14.463-1.331-28.924-1.969-43.387c-0.085-1.935-0.578-4.381,2.646-4.117
		c6.039,0.493,12.104-2.686,18.148,0.245c1.216,0.589,2.634,0.086,3.545-1.136C178.058,50.358,178.078,49.094,177.255,47.856z
		 M146.937,18.962c-3.512,0.028-6.809-3.16-6.859-6.63c-0.048-3.391,3.274-6.754,6.725-6.806c3.46-0.052,6.852,3.227,6.876,6.65
		C153.703,15.632,150.422,18.935,146.937,18.962z"/>
	<g>
		<path fill="#34B0C8" d="M271.35,156.582c-4.65,0.262-9.295,0.622-13.948,0.806c-4.3,0.169-7.056-2.39-7.505-6.239
			c-2.502-21.425-10.41-40.439-24.223-57.046c-2.751-3.307-2.507-6.862,0.865-9.918c3.455-3.13,6.84-6.339,10.321-9.439
			c2.004-1.784,3.068-3.75,0.935-5.954c-2.296-2.373-4.218-0.749-5.901,1.067c-2.717,2.932-5.397,5.897-8.076,8.864
			c-4.511,4.997-7.811,5.241-13.115,1.052c-14.425-11.395-30.811-18.255-48.917-21.187c-3.231-0.523-5.044-0.162-4.572,3.85
			c0.524,4.451,0.7,8.964,0.697,13.45c-0.002,3.073,1.052,4.175,4.201,4.73c13.186,2.326,24.94,8,35.545,16.145
			c3.066,2.355,3.38,4.468,0.474,7.308c-4.522,4.419-8.846,9.049-13.123,13.709c-3.273,3.567-6.862,3.471-10.63,1.199
			c-19.19-11.571-38.077-11.139-56.785,1.168c-3.342,2.198-6.832,2.425-9.865-0.738c-4.377-4.566-8.486-9.414-13.11-13.711
			c-3.395-3.154-3.036-5.249,0.347-7.974c10.982-8.847,23.312-14.734,37.191-17.196c2.674-0.474,3.7-1.432,3.659-4.152
			c-0.064-4.158,0.073-8.333,0.401-12.479c0.461-5.833,0.257-6.095-5.345-5.138c-18.609,3.178-35.258,10.643-49.868,22.639
			c-4.388,3.602-7.791,3.372-11.56-0.669c-2.953-3.166-5.889-6.349-8.755-9.593c-1.763-1.996-3.862-3.188-5.955-1.064
			c-2.057,2.087-0.915,4.24,1.044,6.015c3.085,2.796,6.081,5.691,9.174,8.479c4.333,3.905,4.636,7.629,0.98,12.237
			C53.28,112.747,46.047,130.9,44.007,151.118c-0.614,6.087-3.559,8.497-9.819,7.948c-4.142-0.364-8.31-0.431-12.467-0.632
			c-2.54-0.123-4.508,0.984-4.464,3.55c0.044,2.565,2.069,3.588,4.587,3.437c4.65-0.278,9.301-0.551,13.952-0.824
			c3.935-0.231,7.755,2.831,8.172,6.671c2.271,20.927,10.056,39.527,23.402,55.812c3.434,4.19,3.134,7.704-0.872,11.406
			c-3.3,3.05-6.648,6.049-9.94,9.108c-1.798,1.671-2.551,3.68-0.663,5.655c1.963,2.052,3.905,1.185,5.579-0.64
			c2.814-3.067,5.665-6.103,8.419-9.223c4.562-5.168,7.531-5.522,13.023-1.187c12.084,9.539,25.618,15.993,40.582,19.589
			c2.526,0.607,3.616,0.563,3.636-2.456c0.031-4.485,0.3-8.988,0.814-13.443c0.433-3.746-0.684-5.508-4.57-6.549
			c-10.24-2.745-19.405-7.803-27.7-14.428c-2.603-2.078-3.037-3.93-0.423-6.517c4.731-4.682,9.187-9.642,13.761-14.483
			c2.938-3.109,6.539-3.115,9.776-1.136c19.489,11.911,38.621,11.553,57.653-1.027c2.936-1.94,6.194-2.353,8.993,0.505
			c4.894,4.997,9.669,10.113,14.611,15.062c2.32,2.324,2.171,4.103-0.317,6.183c-6.306,5.274-13.352,9.258-20.669,12.953
			c-4.37,2.207-11.295,1.014-12.921,6.341c-1.427,4.673,0.005,10.219,0.176,15.379c0.005,0.166,0.055,0.329,0.062,0.495
			c0.12,2.798,0.779,3.942,4.226,3.093c15.814-3.898,29.863-11.118,42.463-21.333c4.081-3.308,7.577-3.033,11.189,0.823
			c2.617,2.793,5.118,5.696,7.755,8.469c1.861,1.956,3.72,5.279,6.844,2.299c3.022-2.883,0.271-5.002-1.867-6.936
			c-2.715-2.456-5.424-4.919-8.12-7.396c-4.615-4.239-4.886-7.619-0.909-12.642c12.868-16.254,20.009-34.769,21.857-55.359
			c0.156-1.742,0.778-2.853,1.96-4.216c3.777-4.355,8.513-1.348,12.703-1.937c2.331,0,4.664-0.077,6.991,0.021
			c2.61,0.11,4.944-0.369,4.885-3.499C276.298,156.978,273.916,156.437,271.35,156.582z M65.204,153.807
			c1.665-15.905,7.288-30.223,16.919-43.013c2.658-3.53,4.846-4.376,8.225-0.656c3.899,4.293,8.376,8.058,12.557,12.099
			c4.019,3.884,4.377,7.275,1.322,12.226c-2.99,4.845-5.408,9.947-6.359,15.584c-1.243,7.374-4.062,10.122-11.687,8.608
			c-5.638,0-11.277,0.016-16.915-0.006C66.04,158.636,64.882,156.884,65.204,153.807z M103.96,201.173
			c-4.18,4.046-8.473,7.986-12.5,12.179c-2.833,2.95-5.05,3.099-7.721-0.21c-10.059-12.462-16.247-26.496-18.186-42.458
			c-0.481-3.955,0.618-5.627,4.571-5.579c5.473,0.067,10.948,0.017,16.422,0.017c8.055-0.557,9.549,0.666,11.599,8.413
			c1.497,5.657,3.892,10.94,7.149,15.821C108.591,194.296,108.274,196.997,103.96,201.173z M117.876,176.415
			c-2.261-2.119-2.487-5.043-3.065-7.828c-1.645-5.092-1.69-10.181,0.038-15.264c0,0,0,0,0,0l0,0
			c0.073-1.069-0.009-2.196,1.075-2.89c0.62-4.144,2.336-7.635,5.953-9.995c-1.66,3.329-3.32,6.657-4.98,9.986l0,0h0
			c-0.399,1.968-0.798,3.936-1.197,5.904l0,0c0.026,3.387,0.051,6.774,0.077,10.161c-0.2,0.193-0.276,0.443-0.325,0.706
			c0.108-0.235,0.217-0.47,0.325-0.706c0.394,3.378,2.704,6.342,2.166,9.921c2.924,0.306,3.396,2.61,3.911,4.878
			C119.07,180.852,118.589,178.539,117.876,176.415z M120.024,170.408c-1.435-0.89-1.168-2.378-1.309-3.722
			c-1.327-3.824-0.686-7.644,0.023-11.464c0,0,0,0,0.001,0c0.159-1.6,0.097-3.326,2.179-3.832c-0.39,1.656-0.779,3.312-1.169,4.969
			c-0.001,3.043-0.003,6.086-0.004,9.129c0,0,0,0,0,0c0,0,0,0,0.001-0.001c0.299,1.663,0.599,3.326,0.899,4.99c0,0,0,0,0,0
			c0.688,1.216,1.377,2.431,2.065,3.646C120.038,174.168,120.452,171.984,120.024,170.408z M124.909,177.948
			c1.337,1.765,4.066,2.539,3.852,5.409C127.242,181.721,124.083,181.253,124.909,177.948z M163.884,189.34
			c-2.115,1.537-4.419,2.649-7.006,3.126c0.002-0.012,0.005-0.022,0.007-0.034c-5.858,2.434-11.829,2.388-17.87,0.783l0,0
			c0,0,0,0,0,0c-1.545-0.352-3.153-0.535-4.435-1.611c-1.554-0.737-3.107-1.474-4.661-2.211l0,0
			c-1.557-0.752-3.082-1.546-4.057-3.068c2.524-1.355,3.512,1.164,5.151,2.042c1.616,0.731,3.233,1.461,4.849,2.192c0,0,0,0,0,0
			c1.564,0.451,3.128,0.901,4.692,1.351c0.177,0.038,0.359,0.094,0.542,0.156c0.322,0.093,0.644,0.185,0.966,0.278
			c0.001,0,0.003,0.001,0.005,0.001c4.941,0.668,9.89-1.036,14.829,0.042c0.573-3.331,3.924-2.678,5.877-4.031c0,0,0,0,0.001,0
			c1.528-1.167,2.826-2.734,4.955-2.859C167.604,187.936,165.506,188.4,163.884,189.34z M147.95,189.879
			c-1.069,0.431-2.115,0.572-3.085-0.247c-2.469-0.36-5.375,0.66-7.042-2.23c2.358,0.375,4.717,0.749,7.075,1.124v0
			c1.008,0.024,2.015,0.048,3.022,0.071c0,0,0,0,0,0c2.659-0.418,5.318-0.835,7.976-1.253c0,0,0,0,0,0
			c1.383-0.655,2.765-1.31,4.149-1.965c-0.406,2.364-2.251,2.706-4.159,2.96c-2.482,1.353-5.245,1.262-7.936,1.538c0,0,0,0,0,0
			C147.95,189.878,147.95,189.878,147.95,189.879z M137.661,160.569c0.226-5.021,4.651-9.186,9.533-8.972
			c4.976,0.218,8.956,4.551,8.852,9.636c-0.103,5.038-4.351,9.249-9.259,9.179C141.602,170.337,137.424,165.831,137.661,160.569z
			 M157.94,135.325c-2.34-0.613-4.68-1.226-7.019-1.839c0,0,0,0,0,0c-3,0.032-5.999,0.063-8.999,0.095c0,0,0,0,0,0
			c-1.84,1.17-3.905,1.508-6.028,1.632l0,0.001c-0.473,1.439-1.968,1.501-2.983,2.212c-0.311-2.401,1.257-2.676,3.051-2.697
			c1.73-1.458,3.811-1.909,5.987-2.085c2.975-0.474,5.954-0.521,8.937-0.088c2.573-0.022,4.909,0.741,7.06,2.122c0,0,0,0,0,0
			c1.638,0.268,3.034,0.872,3.622,2.602C160.235,136.854,158.821,136.584,157.94,135.325z M164.386,182.424
			c1.381-1.098,2.075-3.275,4.439-2.832C167.553,180.861,167.245,183.642,164.386,182.424z M164.068,134.341
			C164.068,134.341,164.068,134.341,164.068,134.341C164.068,134.341,164.068,134.341,164.068,134.341
			c-1.369-0.677-2.738-1.355-4.107-2.032l0,0l0,0c-1.492-0.76-3.95-0.17-4.082-2.835c-4.204,1.886-8.447-0.682-12.66,0.076
			c-0.002,0-0.004,0.001-0.006,0.001c-2.143,0.545-4.288,1.09-6.433,1.635l0,0c-1.259,0.438-2.517,0.876-3.776,1.314c0,0,0,0,0,0
			c-0.875,0.933-1.811,1.737-3.227,1.532c0,0-0.001-0.001-0.001-0.001c0,0.001,0.001,0.002,0.002,0.003
			c-0.754,1.629-1.985,2.459-3.819,2.281c0.54-1.672,1.517-2.785,3.438-2.693c-0.062-1.78,0.946-2.307,2.529-2.161
			c0.703-0.326,1.406-0.653,2.11-0.979c1.742-1.366,3.904-1.416,5.93-1.889c5.379-1.195,10.708-1.427,15.906,0.806
			c0-0.004-0.001-0.007-0.001-0.012c1.946,0.049,3.716,0.566,5.157,1.951v0c1.645,0.159,2.53,1.551,3.789,2.335
			c1.901,0.593,3.69,1.309,4.037,3.63C166.544,137.472,165.445,135.68,164.068,134.341z M174.793,143.468L174.793,143.468
			L174.793,143.468c0.775,1.548,1.55,3.095,2.326,4.643c1.249,1.689,1.787,3.61,1.861,5.684c-2.533-0.471-2.122-2.819-2.834-4.45v0
			c0,0,0,0,0,0c-0.765-1.605-1.53-3.211-2.295-4.816c0,0,0,0,0,0c-1.219-1.534-2.989-2.758-2.84-5.06
			C173.245,139.882,173.91,141.778,174.793,143.468z M174.902,156.114c1.695,3.48,1.406,6.986,0.132,10.505c0,0,0,0,0,0
			c-0.2,1.818-0.187,3.731-2.117,4.783c0.405-2.287,0.81-4.573,1.216-6.86C174.366,161.73,173.007,158.774,174.902,156.114z
			 M172.904,149.125c0.905,1.702,2.656,3.249,0.999,5.423C172.922,152.86,171.739,151.209,172.904,149.125z M179.754,157.503
			c0,2.285,0,4.569-0.001,6.854c0.183,1.191,0.166,2.341-0.701,3.309c0,0,0,0,0,0c-0.025,1.687-0.291,3.307-1.29,4.728l0,0
			c0,1.417-0.662,2.472-1.788,3.274c0,0,0,0,0,0c-0.695,2.455-1.328,4.953-4.117,5.963c0.127-3.094,2.363-5.122,3.819-7.544
			c0,0,0,0,0,0c0.403-0.902,0.805-1.804,1.208-2.706c0.401-1.961,0.802-3.921,1.204-5.882c0.298-3.809-0.885-7.72,0.785-11.44
			C179.746,155.056,180.01,156.213,179.754,157.503C179.754,157.503,179.754,157.503,179.754,157.503
			C179.754,157.503,179.754,157.503,179.754,157.503z M188.292,122.238c4.807-4.592,9.661-9.138,14.351-13.848
			c2.525-2.536,4.581-2.801,6.989,0.131c10.499,12.787,16.927,27.257,18.604,43.797c0.297,2.928-0.479,4.419-3.587,4.515
			c-4.142,0.128-8.279,0.433-11.178,0.593c-3.91,0-6.572-0.076-9.227,0.017c-4.559,0.16-7.162-2.542-8.1-6.415
			c-1.745-7.206-4.562-13.787-8.762-19.908C185.396,128.229,185.446,124.957,188.292,122.238z M228.431,168.255
			c-1.427,15.819-7.069,29.942-16.569,42.577c-3.56,4.735-4.265,4.79-8.429,0.912c-4.254-3.961-8.438-7.997-12.65-12.005
			c-3.766-3.583-4.278-7.284-1.442-11.829c3.38-5.417,5.662-11.227,6.945-17.48c1.211-5.906,3.393-7.515,9.339-7.378
			c2.657,0.061,5.318,0.01,7.977,0.01c0,0.076,0,0.152-0.001,0.229c3.488,0,6.977-0.033,10.464,0.01
			C227.307,163.34,228.757,164.643,228.431,168.255z"/>
		<path fill="#34B0C8" d="M178.088,165.5c0.085,0.191,0.17,0.382,0.255,0.574C178.301,165.863,178.232,165.665,178.088,165.5z"/>
		<path fill="#34B0C8" d="M174.131,164.541c0.07,0.16,0.139,0.32,0.209,0.481C174.302,164.848,174.244,164.683,174.131,164.541z"/>
		<path fill="#34B0C8" d="M115.453,167.195c-0.214,0.464-0.427,0.928-0.641,1.392C115.376,168.285,115.357,167.714,115.453,167.195z
			"/>
		<path fill="#34B0C8" d="M156.896,192.387c-0.003,0.016-0.008,0.03-0.01,0.046c0.027-0.011,0.055-0.021,0.082-0.032
			C156.944,192.395,156.92,192.392,156.896,192.387z"/>
		<path fill="#34B0C8" d="M139.967,128.592c0.497,2.306,2.042,1.055,3.246,0.959c0.001,0,0.003-0.001,0.004-0.001
			C142.101,129.339,140.819,129.693,139.967,128.592z"/>
		<path fill="#34B0C8" d="M117.944,176.41c-0.025-0.003-0.047-0.008-0.073-0.01c0.002,0.005,0.003,0.01,0.005,0.015
			c0.022,0.021,0.038,0.044,0.06,0.065C117.94,176.456,117.941,176.434,117.944,176.41z"/>
		<path fill="#34B0C8" d="M178.343,166.074c0.117,0.583,0.023,1.262,0.708,1.592c0,0,0,0,0,0
			C178.815,167.135,178.579,166.604,178.343,166.074z"/>
		<path fill="#34B0C8" d="M162.773,188.356C162.773,188.356,162.773,188.356,162.773,188.356c0.37,0.328,0.741,0.656,1.111,0.984
			C164.015,188.446,163.884,187.847,162.773,188.356z"/>
		<path fill="#34B0C8" d="M142.066,192.345c-0.001,0-0.003-0.001-0.004-0.001c-0.309-0.047-0.639-0.168-0.966-0.278
			c-0.181-0.052-0.362-0.104-0.542-0.156c-0.679-0.146-1.276-0.007-1.539,1.306C139.818,192.174,141.027,192.556,142.066,192.345z"
			/>
		<path fill="#34B0C8" d="M135.861,190.559L135.861,190.559c-0.427,0.348-0.854,0.697-1.282,1.046
			C135.636,192.026,135.964,191.556,135.861,190.559z"/>
		<path fill="#34B0C8" d="M155.873,129.398c0.001,0.027,0.005,0.049,0.007,0.076c0.03-0.014,0.061-0.022,0.091-0.036
			C155.938,129.424,155.905,129.412,155.873,129.398z"/>
		<path fill="#34B0C8" d="M115.701,156.329L115.701,156.329c-0.687-0.888,0.184-2.216-0.851-3.005
			C115.059,154.347,114.685,155.534,115.701,156.329z"/>
		<path fill="#34B0C8" d="M116.898,150.425c-0.324,0.011-0.648,0.014-0.973,0.009C116.252,150.774,116.577,150.789,116.898,150.425z
			"/>
		<path fill="#34B0C8" d="M134.036,130.481c0.739,0.918,1.921,0.111,2.744,0.705l0,0
			C136.045,130.251,134.982,130.594,134.036,130.481z"/>
		<path fill="#34B0C8" d="M129.919,189.393L129.919,189.393c0.365-0.342,0.729-0.684,1.094-1.026
			C129.906,187.918,129.745,188.477,129.919,189.393z"/>
		<path fill="#34B0C8" d="M161.029,131.337L161.029,131.337c-0.356,0.324-0.712,0.648-1.068,0.972
			C160.379,132.054,160.954,131.97,161.029,131.337z"/>
		<path fill="#34B0C8" d="M164.068,134.341c0.25-0.223,0.5-0.445,0.75-0.668C164.416,133.725,164.166,133.948,164.068,134.341z"/>
		<path fill="#34B0C8" d="M173.851,144.529c0.617-0.085,0.693-0.65,0.943-1.061C174.479,143.822,174.165,144.176,173.851,144.529
			L173.851,144.529z"/>
		<path fill="#34B0C8" d="M176.146,149.345c0.324-0.411,0.648-0.823,0.973-1.234C176.435,148.239,176.391,148.871,176.146,149.345z"
			/>
		<path fill="#34B0C8" d="M131.927,131.46c-0.211,0.937-0.005,1.442,1.077,1.039c0,0,0,0,0,0
			C132.645,132.153,132.286,131.807,131.927,131.46z"/>
		<path fill="#34B0C8" d="M129.398,133.622c0.126,0.136,0.253,0.273,0.379,0.409C129.711,133.837,129.585,133.7,129.398,133.622z"/>
		<path fill="#34B0C8" d="M179.753,164.357c-0.578-2.285-0.579-4.569,0-6.854C178.508,159.787,178.525,162.072,179.753,164.357z"/>
		<path fill="#34B0C8" d="M175.676,174.088C175.676,174.088,175.676,174.088,175.676,174.088c0.099,0.527,0.199,1.054,0.298,1.58
			c0,0,0,0,0,0C176.406,175.041,176.306,174.514,175.676,174.088z"/>
		<path fill="#34B0C8" d="M177.762,172.394L177.762,172.394c-0.293-0.337-0.585-0.674-0.878-1.012
			C176.353,172.434,176.931,172.524,177.762,172.394z"/>
		<path fill="#34B0C8" d="M150.886,132.556c-0.104,0-0.204,0.107-0.303,0.322c-0.097,0.211,0.016,0.413,0.337,0.608c0,0,0,0,0,0
			C150.913,133.175,150.901,132.865,150.886,132.556z"/>
		<path fill="#34B0C8" d="M141.948,132.644c-0.077,0-0.155,0.102-0.236,0.305c-0.081,0.206-0.012,0.416,0.208,0.63c0,0,0,0,0,0
			C141.946,133.268,141.955,132.956,141.948,132.644z"/>
		<path fill="#34B0C8" d="M174.34,165.022c0.126,0.578,0.004,1.263,0.693,1.596c0,0,0,0,0,0
			C174.801,166.086,174.571,165.554,174.34,165.022z"/>
		<path fill="#34B0C8" d="M119.745,165.488c-0.343,0.399-0.686,0.798-1.03,1.197C119.375,166.559,119.438,165.919,119.745,165.488z"
			/>
		<path fill="#34B0C8" d="M155.887,188.339c0.081,0,0.163-0.11,0.245-0.329c0.083-0.22,0.004-0.442-0.235-0.666l0,0
			C155.905,187.676,155.901,188.008,155.887,188.339z"/>
		<path fill="#34B0C8" d="M147.921,188.598c-0.078,0-0.154,0.144-0.226,0.432c-0.072,0.286,0.013,0.569,0.256,0.847
			C147.94,189.452,147.93,189.025,147.921,188.598L147.921,188.598z"/>
		<path fill="#34B0C8" d="M145.115,189.27c0.087-0.243,0.015-0.491-0.217-0.744l0,0c-0.011,0.369-0.022,0.737-0.033,1.106
			C144.946,189.632,145.029,189.511,145.115,189.27z"/>
		<path fill="#34B0C8" d="M120.645,170.477c-0.21,0.008-0.417-0.015-0.621-0.07C120.231,170.431,120.438,170.454,120.645,170.477
			L120.645,170.477z"/>
		<path fill="#34B0C8" d="M119.749,156.359c-0.306-0.406-0.367-1.03-1.01-1.137c0,0,0,0,0,0
			C119.076,155.601,119.413,155.98,119.749,156.359z"/>
		<path fill="#34B0C8" d="M157.945,134.677c0.014,0.216,0.013,0.432-0.005,0.647C157.941,135.109,157.943,134.893,157.945,134.677
			L157.945,134.677z"/>
		<polygon fill="#34B0C8" points="135.893,135.212 135.893,135.212 135.961,134.728 		"/>
	</g>
</g>
</svg>
