<?xml version="1.0" encoding="utf-8"?>
<!-- Generator: Adobe Illustrator 22.1.0, SVG Export Plug-In . SVG Version: 6.00 Build 0)  -->
<svg version="1.1" id="Layer_1" xmlns="http://www.w3.org/2000/svg" xmlns:xlink="http://www.w3.org/1999/xlink" x="0px" y="0px"
	 viewBox="0 0 293.98 318.852" enable-background="new 0 0 293.98 318.852" xml:space="preserve">
<g>
	<path fill="#34B0C8" d="M236.958,74.738c1.999-1.785,3.049-3.763,0.888-5.956c-2.32-2.354-4.223-0.707-5.899,1.108
		c-2.712,2.937-5.388,5.906-8.067,8.872c-4.559,5.048-7.704,5.283-13.136,0.999c-14.434-11.383-30.818-18.24-48.923-21.163
		c-3.265-0.527-4.994-0.166-4.42,3.898c0.579,4.102,0.581,8.307,0.559,12.466c-0.018,3.419,0.702,5.125,4.766,5.816
		c12.843,2.184,24.263,7.882,34.674,15.698c3.529,2.649,3.712,4.898,0.453,8.002c-4.456,4.245-8.633,8.792-12.798,13.331
		c-3.28,3.574-6.84,3.44-10.628,1.162c-19.195-11.542-38.091-11.105-56.796,1.206c-3.344,2.201-6.828,2.395-9.86-0.786
		c-4.136-4.338-8.257-8.69-12.345-13.073c-4.504-4.828-4.492-5.367,0.839-9.547c10.53-8.255,22.358-13.808,35.538-16.143
		c3.178-0.563,4.181-1.693,4.112-4.785c-0.092-4.152-0.13-8.383,0.557-12.454c0.8-4.74-1.03-5.422-5.089-4.727
		C112.603,61.879,95.782,69.34,81.038,81.45c-4.322,3.55-7.747,3.313-11.552-0.754c-2.958-3.161-5.856-6.377-8.757-9.59
		c-1.784-1.976-3.964-3.006-6.012-0.893c-1.819,1.878-0.912,3.976,0.91,5.648c3.191,2.927,6.318,5.925,9.531,8.828
		c4.034,3.645,4.413,7.626,1.053,11.847c-12.674,15.922-19.98,34.041-22.088,54.255c-0.673,6.456-3.432,8.801-10.025,8.334
		c-3.987-0.282-7.981-0.459-11.973-0.668c-2.662-0.139-4.904,0.742-4.769,3.708c0.119,2.621,2.28,3.421,4.729,3.274
		c4.654-0.28,9.306-0.609,13.963-0.82c4.02-0.182,7.562,2.877,8.005,6.852c2.309,20.737,10.005,39.207,23.201,55.384
		c3.663,4.491,3.422,7.848-0.807,11.774c-3.294,3.058-6.644,6.055-9.933,9.119c-1.859,1.731-2.308,3.725-0.374,5.64
		c1.835,1.817,3.634,1.119,5.194-0.553c2.84-3.045,5.715-6.059,8.473-9.177c4.868-5.503,7.568-5.859,13.346-1.317
		c11.829,9.299,25.042,15.656,39.65,19.269c3.02,0.747,4.559,0.938,4.483-2.957c-0.088-4.478,0.217-8.996,0.768-13.445
		c0.447-3.604-1.11-4.878-4.328-5.751c-10.251-2.782-19.405-7.802-27.76-14.332c-2.778-2.172-3.328-4.125-0.496-6.887
		c4.646-4.531,9.028-9.336,13.432-14.109c3.113-3.374,6.535-3.237,10.231-1.249c2.78,1.495,5.426,3.311,8.335,4.481
		c16.838,6.77,32.874,5.039,48.031-4.918c4.769-3.133,7.356-2.88,11.238,1.126c4.405,4.546,8.734,9.169,13.243,13.609
		c2.518,2.479,2.365,4.363-0.353,6.547c-6.397,5.14-13.333,9.299-20.761,12.809c-4.248,2.007-10.814,1.216-12.534,5.601
		c-1.679,4.28-0.121,9.833,0.027,14.827c0.02,0.664,0.109,1.326,0.156,1.99c0.178,2.52,0.711,3.672,3.945,2.882
		c15.819-3.863,29.901-11.029,42.506-21.244c4.272-3.462,7.818-3.187,11.551,0.868c2.931,3.184,5.795,6.431,8.747,9.595
		c1.706,1.829,3.729,3.311,5.903,0.84c2-2.273,0.806-4.241-1.168-5.981c-3.122-2.752-6.186-5.568-9.243-8.392
		c-4.174-3.856-4.594-7.554-1.148-11.873c13.147-16.483,20.488-35.259,22.314-56.217c0.137-1.571,0.736-2.547,1.759-3.781
		c3.682-4.442,8.441-1.636,12.647-2.107c2.331,0,4.664-0.06,6.992,0.016c2.507,0.082,4.893-0.014,4.951-3.347
		c0.057-3.264-2.257-3.721-4.792-3.599c-4.653,0.224-9.298,0.625-13.952,0.792c-4.554,0.163-7.112-2.604-7.607-6.693
		c-2.55-21.042-10.243-39.822-23.861-56.138c-3.023-3.621-2.777-7.209,0.584-10.393C230.027,80.975,233.481,77.843,236.958,74.738z
		 M146.69,194.359c-18.02-0.119-32.891-15.18-32.891-33.312c0-18.335,15.294-33.587,33.411-33.319
		c18.16,0.269,32.924,15.235,32.887,33.335C180.059,179.443,164.972,194.48,146.69,194.359z"/>
	<path fill="#34B0C8" d="M263.066,203.121c1.661,10.166,2.22,20.06-4.568,28.735c-0.576,0.736-0.724,1.47,0.007,2.198
		c6.602,6.572,3.074,13.031-0.756,18.936c-6.769,10.434-17.191,15.984-28.764,19.44c-19.85,5.927-39.777,4.297-59.784,0.538
		c-4.737-0.89-6.573-2.381-6.715-7.451c-0.44-15.795-1.636-31.568-2.219-47.361c-0.139-3.78-1.562-4.014-4.545-3.327
		c-5.426,1.25-11.076,1.483-16.362,0.16c-5.173-1.294-5.889,0.75-6.053,4.987c-0.622,15.97-1.534,31.929-2.079,47.9
		c-0.103,3.007-1.229,4.011-3.895,4.561c-8.487,1.753-17.037,3.108-25.674,3.626c-17.876,1.073-35.317-0.649-51.185-9.866
		c-8.238-4.785-15.031-11.06-17.865-20.634c-0.821-2.773-1.726-6.241,0.296-8.147c4.11-3.876,1.852-6.696-0.332-10.007
		c-0.801-1.215-1.151-2.757-1.572-4.189c-1.947-6.625-1.2-13.332-0.254-20.25c-2.814,1.312-4.382,3.523-6.114,5.491
		C7.36,228.091,8.91,250.029,28.82,267.008c8.685,7.407,18.66,12.744,28.971,17.496c19.692,9.076,40.491,15.077,60.945,22.05
		c9.382,3.198,19.365,5.148,27.237,11.845c0.845,0.719,1.377,0.512,2.092-0.125c6.041-5.392,13.764-7.245,21.111-9.772
		c13.206-4.543,26.604-8.535,39.755-13.227c21.031-7.504,41.83-15.506,58.933-30.688
		C287.167,247.453,284.984,217.326,263.066,203.121z"/>
	<path fill="#34B0C8" d="M18.98,201.531c-3.245-9.3-5.291-18.969-5.815-28.772c-2.99-55.912,19.381-98.787,67.09-128.079
		c17.076-10.484,36.07-15.8,56.858-17.585c-2.481-2.641-4.923-4.71-5.539-7.578c-0.921-4.289-3.443-4.43-6.966-3.855
		C37.233,29.931-17.729,114.757,5.229,200.102c1.725,6.412,3.598,12.852,7.011,18.983c1.976-3.173,3.338-6.113,5.383-8.456
		C20.17,207.712,20.2,205.027,18.98,201.531z"/>
	<path fill="#34B0C8" d="M293.127,146.771c-5.557-49.725-30.215-87.263-72.856-113.01c-15.82-9.552-33.176-15.279-51.454-18.044
		c-1.865-0.282-4.692-1.777-5.538,1.342c-1.034,3.812-3.502,6.63-5.82,9.385c0.283,0.471,0.34,0.691,0.442,0.715
		c0.485,0.112,0.98,0.189,1.476,0.244c44.415,4.915,78.861,26.212,102.227,64.16c21.348,34.669,24.906,72.004,13.149,110.875
		c-0.571,1.888-1.628,3.673-0.243,5.676c2.423,3.504,4.766,7.064,7.152,10.613c0.276-0.262,0.593-0.448,0.738-0.725
		c0.306-0.584,0.528-1.213,0.773-1.827C292.089,193.842,295.807,170.747,293.127,146.771z"/>
	<path fill="#34B0C8" d="M137.95,21.269c4.132,3.135,4.116,6.557,4.067,10.721c-0.173,14.882-0.125,14.89-14.639,15.609
		c-2.421,0.12-4.835,0.787-7.157-0.931c-1.064-0.787-2.598-0.147-3.523,1.045c-0.924,1.19-0.951,2.469-0.139,3.704
		c0.8,1.217,2.066,2.055,3.401,1.365c5.692-2.939,11.451,0.096,17.142-0.395c3.454-0.298,4.139,1.192,3.956,4.384
		c-0.762,13.284-1.277,26.583-2.004,42.545c-0.195,7.007-0.195,7.007,9.506,7.13c0.167,0.002,0.342-0.034,0.498,0.007
		c5.507,1.442,6.229-1.314,5.936-6.031c-0.896-14.447-1.459-28.916-2.07-43.379c-0.083-1.952-0.983-4.814,2.665-4.563
		c6.056,0.416,12.116-2.601,18.193,0.145c1.172,0.53,2.64,0.172,3.524-1.156c0.843-1.265,0.798-2.517-0.055-3.713
		c-0.878-1.231-2.268-1.73-3.538-1.136c-5.839,2.731-11.703,0.176-17.544,0.31c-3.161,0.072-3.996-1.64-4.033-4.332
		c-0.057-4.162-0.073-8.328-0.279-12.484c-0.162-3.27,0.202-5.742,3.354-8.043c5.604-4.09,5.847-12.632,1.219-17.786
		c-4.851-5.402-13.144-5.743-18.286-0.752C133.084,8.446,132.455,17.099,137.95,21.269z"/>
	<path fill="#34B0C8" d="M37.413,238.635c-3.548,9.768,12.127,26.463,25.988,27.554C53.378,257.856,44.807,248.95,37.413,238.635z"
		/>
	<path fill="#34B0C8" d="M231.253,266.035c15.235-2.987,28.18-17.085,25.271-27.477
		C249.098,248.875,240.645,257.886,231.253,266.035z"/>
	<path fill="#34B0C8" d="M147.238,129.635c-17.385-0.161-31.425,13.704-31.532,31.137c-0.107,17.612,13.529,31.545,30.96,31.632
		c17.534,0.087,31.431-13.596,31.548-31.062C178.332,143.85,164.601,129.796,147.238,129.635z M173.113,173.316
		c-5.065,10.751-14.042,16.416-25.617,16.768c-9.499,0.289-17.729-3.599-23.516-11.625c0,0,0,0,0,0
		c-7.378-10.066-8.172-20.602-2.212-31.592c0.759-1.399,1.327-3.058,3.215-3.43c1.991-5.367,6.884-7.302,11.512-9.261
		c10.061-4.258,21.955-1.944,29.034,5.3c1.234,1.046,2.468,2.092,3.701,3.138l0,0c0,0,0,0,0,0c0,0,0.001,0,0.001,0.001
		c0,0,0,0.001,0.001,0.001C176.539,152.09,178.281,162.348,173.113,173.316z"/>
	<path fill="#34B0C8" d="M170.208,146.425c4.222,7.089,5.207,14.715,2.907,22.501c-3.082,10.436-10.249,16.9-20.957,18.951
		c-11.127,2.131-20.177-1.743-27.304-10.396c-0.147,0.164-0.294,0.329-0.441,0.493c0.752,1.182,1.767,2.137,2.748,3.118
		c8.129,8.132,20.298,10.386,31.267,5.798c9.803-4.1,16.405-14.576,16.612-25.608c0.131-6.958-2.978-12.726-5.808-18.667
		c-0.001-0.001-0.001-0.001-0.002-0.002c0,0,0,0,0,0C167.721,144.348,169.524,145.277,170.208,146.425z"/>
	<path fill="#34B0C8" d="M124.854,177.481c-4.161-5.787-5.299-12.271-5.044-19.297c0.201-5.557,3.312-9.87,5.181-14.716
		c-0.005,0.001-0.009,0.003-0.013,0.003c-8.034,10.977-8.318,21.828-0.896,33.975C124.272,177.398,124.542,177.421,124.854,177.481z
		"/>
	<path fill="#34B0C8" d="M124.413,177.974c-0.057-0.089-0.123-0.17-0.177-0.262c-0.055-0.089-0.101-0.177-0.156-0.267
		c-0.32,0.081-0.414,0.364-0.101,1.012c0,0,0,0,0,0C124.125,178.297,124.269,178.136,124.413,177.974z"/>
	<path fill="#34B0C8" d="M125.005,143.43c0.001,0,0.001,0,0.002,0c-0.005,0.013-0.01,0.026-0.016,0.039
		c1.636-0.251,2.295-1.756,3.396-2.686c8.758-7.388,18.432-9.178,29.234-5.111c2.772,1.044,4.723,3.698,7.908,3.804
		c-1.155-0.329-1.991-1.172-2.964-1.803C150.056,129.556,134.254,131.995,125.005,143.43z"/>
	<path fill="#34B0C8" d="M125.005,143.43c-0.008,0.001-0.014,0.005-0.021,0.006c-0.005,0.013-0.011,0.025-0.016,0.038
		C124.98,143.459,124.993,143.445,125.005,143.43z"/>
	<path fill="#34B0C8" d="M124.968,143.474c0.004,0,0.006-0.002,0.01-0.003c0.01-0.014,0.019-0.028,0.029-0.042L124.968,143.474z"/>
</g>
</svg>
