<?xml version="1.0" encoding="utf-8"?>
<!-- Generator: Adobe Illustrator 22.1.0, SVG Export Plug-In . SVG Version: 6.00 Build 0)  -->
<svg version="1.1" id="Layer_1" xmlns="http://www.w3.org/2000/svg" xmlns:xlink="http://www.w3.org/1999/xlink" x="0px" y="0px"
	 viewBox="0 0 300 300" enable-background="new 0 0 300 300" xml:space="preserve">
<g>
	<path fill="#EFEF87" d="M291.871,151.87c2.576-1.537,5.415-0.622,8.129-0.87c0,0.333,0,0.667,0,1
		c-1.368,0.297-2.737,0.594-4.105,0.891C294.718,151.903,292.882,153.51,291.871,151.87z"/>
	<path fill="#EFEF87" d="M8.129,148.13C5.553,149.668,2.714,148.753,0,149c0-0.333,0-0.667,0-1c1.368-0.297,2.737-0.594,4.105-0.891
		C5.282,148.097,7.118,146.49,8.129,148.13z"/>
	<path fill="#EFEF87" d="M152,0c0.297,1.368,0.594,2.737,0.891,4.105c-0.988,1.177,0.62,3.013-1.021,4.024
		C150.332,5.553,151.247,2.714,151,0C151.333,0,151.667,0,152,0z"/>
	<path fill="#EFEF87" d="M148.13,291.871c1.537,2.576,0.622,5.415,0.87,8.129c-0.333,0-0.667,0-1,0
		c-0.297-1.368-0.594-2.737-0.891-4.105C148.097,294.718,146.49,292.882,148.13,291.871z"/>
	<path fill="#E5E539" d="M192,150.105c-0.02,23.445-18.739,41.961-42.354,41.895c-23.14-0.065-41.665-18.793-41.645-42.104
		c0.02-23.464,18.72-41.962,42.354-41.896C173.508,108.065,192.02,126.78,192,150.105z"/>
	<path fill="#E5E539" d="M106.314,127.269c-0.89-1.522-1.534-2.299-1.838-3.192c-4.478-13.147-13.504-22.712-24.239-30.956
		c-5.668-4.353-9.519-10.016-12.613-16.45c-5.29-11.003-8.768-23.196-19.424-31.048c5.883,0.907,10.492,3.881,14.47,7.734
		c3.336,3.231,6.567,6.665,9.301,10.407c6.599,9.034,15.186,15.269,25.517,19.263c12.153,4.699,21.956,12.287,28.976,23.658
		C118.134,111.45,111.433,118.008,106.314,127.269z"/>
	<path fill="#E5E539" d="M173.52,193.303c8.473-4.795,15.093-11.442,19.784-19.825c1.685,0.244,1.935,1.588,2.268,2.57
		c4.409,12.997,13.313,22.457,23.915,30.59c5.956,4.569,10.003,10.488,13.169,17.259c5.107,10.919,8.828,22.762,19.164,30.589
		c-7.2-1.583-12.705-5.564-17.437-10.732c-2.245-2.453-4.535-4.905-6.463-7.602c-6.509-9.11-15.203-15.252-25.527-19.241
		C190.395,212.275,180.711,204.781,173.52,193.303z"/>
	<path fill="#E5E539" d="M45.526,251.708c2.132-8.382,6.874-14.694,13.382-19.554c11.3-8.438,20.382-18.458,25.256-31.995
		c4.095-11.376,12.062-19.727,22.451-26.72c4.846,8.337,11.342,15.247,19.902,19.77c-0.216,1.787-1.575,2.022-2.55,2.354
		c-12.988,4.421-22.466,13.304-30.596,23.912c-4.566,5.958-10.482,10.009-17.255,13.175
		C65.194,237.754,53.358,241.487,45.526,251.708z"/>
	<path fill="#E5E539" d="M173.214,106.603c0.502-0.735,0.565-0.949,0.689-0.993c15.161-5.397,26.109-16.036,35.688-28.46
		c2.672-3.466,6.395-5.859,10.239-7.84c11.835-6.098,25.224-9.534,34.293-20.507c-0.79,5.616-3.71,9.928-7.319,13.697
		c-3.208,3.351-6.635,6.591-10.377,9.312c-9.332,6.785-15.61,15.685-19.734,26.338c-4.245,10.965-11.088,19.968-20.791,26.749
		c-1.444,1.009-2.37,2.223-3.736-0.148C187.662,116.932,181.198,111.047,173.214,106.603z"/>
	<path fill="#E5E539" d="M148.13,291.871c-0.487,1.304,0.419,2.962-1.021,4.024c-4.811-10.098-4.359-20.799-2.769-31.341
		c1.529-10.141-0.233-19.527-4.084-28.726c-4.642-11.086-7.184-22.432-5.182-34.522c0.378-2.284,0.152-4.282,3.631-3.419
		c8.537,2.116,17.106,1.601,26.124-0.774c-1.679,7.023-5.083,12.991-6.183,19.683c-0.575,3.5-1.001,7-0.439,10.424
		c2.588,15.76,0.38,30.761-6.308,45.228C149.072,278.561,147.859,285.1,148.13,291.871z"/>
	<path fill="#E5E539" d="M151.87,8.129c0.487-1.304-0.419-2.962,1.021-4.024c4.811,10.098,4.359,20.798,2.769,31.34
		c-1.529,10.141,0.234,19.526,4.083,28.726c4.638,11.086,7.19,22.431,5.183,34.522c-0.378,2.281-0.145,4.27-3.63,3.424
		c-8.535-2.071-17.107-1.712-26.125,0.863c1.586-6.97,4.951-12.774,6.09-19.283c0.64-3.659,1.117-7.32,0.53-10.915
		c-2.569-15.757-0.384-30.759,6.306-45.227C150.925,21.443,152.141,14.901,151.87,8.129z"/>
	<path fill="#E5E539" d="M8.129,148.13c-1.304-0.487-2.962,0.419-4.024-1.021c9.933-4.697,20.461-4.456,30.842-2.807
		c10.667,1.694,20.539-0.283,30.166-4.38c10.801-4.597,21.867-6.694,33.582-4.846c2.29,0.361,4.281,0.152,3.419,3.63
		c-2.116,8.537-1.6,17.106,0.774,26.122c-6.871-1.616-12.685-4.945-19.192-6.089c-3.659-0.643-7.32-1.117-10.915-0.531
		c-15.758,2.569-30.761,0.385-45.228-6.309C21.44,149.071,14.9,147.859,8.129,148.13z"/>
	<path fill="#E5E539" d="M291.871,151.87c1.304,0.487,2.962-0.419,4.024,1.021c-10.097,4.811-20.798,4.359-31.339,2.769
		c-10.14-1.529-19.526,0.234-28.725,4.083c-11.086,4.638-22.431,7.191-34.521,5.183c-2.279-0.378-4.287-0.144-3.423-3.628
		c2.118-8.538,1.597-17.107-0.769-26.105c6.874,1.566,12.678,4.929,19.187,6.068c3.659,0.64,7.32,1.116,10.915,0.53
		c15.757-2.569,30.759-0.384,45.227,6.307C278.557,150.925,285.099,152.141,291.871,151.87z"/>
	<path fill="#E5E539" d="M158.557,38.501c0.259-3.29,0.643-7.755,0.951-12.226c0.167-2.415,1.115-3.472,3.757-3.155
		c27.349,3.286,51.474,13.742,72.109,32.101c2.069,1.84,1.684,2.909-0.692,3.788c-0.466,0.172-0.944,0.361-1.348,0.641
		c-8.08,5.589-15.028,4.941-23.498-0.915c-14.099-9.747-30.509-14.41-47.678-15.917C160.194,42.645,157.863,42.843,158.557,38.501z"
		/>
	<path fill="#E5E539" d="M145.953,24.747c-2.145,5.651-4.262,11.422-6.56,17.121c-0.48,1.191-2.008,0.955-3.152,1.087
		c-19.943,2.307-38.035,9.453-54.293,21.14c-2.769,1.991-4.387,2.177-6.318-0.779c-1.356-2.075-2.939-4.137-4.842-5.689
		c-4.141-3.378-2.664-5.278,0.934-8.027c20.832-15.914,44.163-25.017,70.362-26.592C143.432,22.926,145.555,21.857,145.953,24.747z"
		/>
	<path fill="#E5E539" d="M277.098,140.478c-0.86,1.603,1.663,4.408-1.417,5.338c-2.641,0.798-9.205-3.619-9.64-6.117
		c-1.98-11.368-5.55-22.181-10.728-32.517c-4.877-9.736-10.84-18.7-18.286-26.608c-2.149-2.282-2.081-3.382,0.197-5.46
		c9.839-8.976,9.784-9.062,17.458,2.057C267.81,96.194,275.202,117.252,277.098,140.478z"/>
	<path fill="#E5E539" d="M57.625,62.548c2.439,5.231,4.53,9.89,6.79,14.465c0.816,1.652-0.168,2.421-1.046,3.417
		c-14.71,16.684-24.737,35.688-28.567,57.756c-0.812,4.676-4.354,2.467-6.752,2.402c-1.71-0.046-4.627,0.813-4.272-3.034
		C26.424,108.89,37.91,84.28,57.625,62.548z"/>
	<path fill="#E5E53A" d="M25.087,154.233c5.145,0.316,7.696,3.154,7.791,8.475c0.409,22.92,7.445,43.728,20.089,62.734
		c0.461,0.692,1.021,1.329,1.402,2.062c0.608,1.171,2.607,2.226,0.697,3.754c-2.19,1.752-2.95-0.664-3.814-1.724
		c-5.053-6.202-9.458-12.862-13.23-19.917c-8.668-16.216-13.345-33.58-14.711-51.874C23.052,154.278,23.159,154.115,25.087,154.233z
		"/>
	<path fill="#E5E53A" d="M272.383,159.297c3.775-0.394,4.762,1.429,4.126,6.165c-3.296,24.547-12.695,46.321-28.424,65.404
		c-1.057,1.282-2.073,2.619-3.277,3.751c-0.801,0.753-1.362,2.777-2.934,1.486c-1.545-1.269-0.519-2.626,0.504-3.861
		c3.615-4.365,6.699-9.1,9.567-13.98c10.069-17.13,14.868-35.768,15.927-55.488C268.07,159.078,268.129,159.081,272.383,159.297z"/>
	<path fill="#E7E746" d="M73.795,251.113c-2.97-2.325-5.972-4.612-8.886-7.005c-0.617-0.506-1.978-1.049-0.993-2.247
		c1.01-1.229,1.969-0.585,2.897,0.308c2.717,2.617,5.473,5.192,8.214,7.784C75.197,250.957,74.867,251.43,73.795,251.113z"/>
	<path fill="#E8E84F" d="M222.974,251.99c2.289-2.087,4.571-4.182,6.872-6.255c0.674-0.607,1.455-0.855,2.046,0.061
		c0.399,0.618,0.148,1.291-0.403,1.729c-2.427,1.926-4.582,4.223-7.472,5.522C223.433,252.928,223.09,252.571,222.974,251.99z"/>
	<path fill="#E8E851" d="M73.795,251.113c0.41-0.387,0.821-0.773,1.231-1.16c1.323,1.018,2.646,2.037,3.969,3.055
		c0.151,0.953-0.134,1.441-1.186,1.112C76.326,253.312,74.803,252.557,73.795,251.113z"/>
	<path fill="#E9E956" d="M222.974,251.99c0.348,0.352,0.695,0.705,1.043,1.057c-1.231,1.271-2.511,2.453-4.848,2.822
		C219.809,253.489,221.492,252.836,222.974,251.99z"/>
	<path fill="#EAEA64" d="M77.809,254.121c0.395-0.371,0.79-0.741,1.186-1.112c1.328,1.001,2.656,2.003,3.984,3.004
		c-0.19,0.44-0.507,0.75-0.951,0.93C80.41,256.318,78.913,255.513,77.809,254.121z"/>
	<path fill="#EEEE7F" d="M90.806,261.56c-1.844,0.166-3.314-0.362-3.224-1.392c0.167-1.91,1.348-0.472,2.03-0.133
		C89.994,260.225,90.203,260.761,90.806,261.56z"/>
	<path fill="#E5E539" d="M82.028,256.943c0.317-0.31,0.634-0.62,0.951-0.93c0.97,0.623,2.345,0.875,2.338,2.515
		C83.809,258.713,83.044,257.567,82.028,256.943z"/>
	<path fill="#E5E539" d="M215.062,258.19c0.193-1.366,1.371-1.491,2.367-2.155c0.438,2.422-1.229,2.219-2.456,2.501L215.062,258.19z
		"/>
	<path fill="#E7E745" d="M215.062,258.19c0,0-0.09,0.348-0.09,0.347c-0.492,1.12-1.222,1.863-2.752,1.658
		C212.548,258.503,213.801,258.342,215.062,258.19z"/>
	<path fill="#E8E852" d="M98.093,264.789c-1.388,0.686-2.027,0.153-2.648-0.316c-0.054-0.041,0.205-0.497,0.319-0.76
		C96.438,264.024,97.112,264.335,98.093,264.789z"/>
</g>
</svg>
