<?xml version="1.0" encoding="utf-8"?>
<!-- Generator: Adobe Illustrator 22.1.0, SVG Export Plug-In . SVG Version: 6.00 Build 0)  -->
<svg version="1.1" id="Layer_1" xmlns="http://www.w3.org/2000/svg" xmlns:xlink="http://www.w3.org/1999/xlink" x="0px" y="0px"
	 viewBox="0 0 291.752 291.901" enable-background="new 0 0 291.752 291.901" xml:space="preserve">
<path fill="#632576" d="M291.744,146.337c0.492,80.064-66.413,146.481-147.57,145.555C66.081,291-1.614,226.37,0.029,142.8
	C1.588,63.562,67.47-1.856,149.457,0.04C229.444,1.89,292.576,68.23,291.744,146.337z M279.95,146.105
	c0.027-73.377-60.279-134.108-133.221-134.161C72.811,11.889,12.013,71.918,11.939,145.03
	C11.864,219.222,71.89,279.905,145.4,279.954C219.399,280.004,279.923,219.795,279.95,146.105z"/>
<path fill="#632576" d="M109.199,95.262c3.911,8.102,1.936,15.691-0.968,23.286c-0.328,0.857,0.89,2.334,1.466,3.485
	c0.118,0.236,0.561,0.349,0.877,0.439c12.659,3.636,20.361,12.713,27.098,23.44c7.166,11.412,15.316,22.206,23.052,33.259
	c1.03,1.472,2.154,2.878,4.263,3.894c-1.364-4.439-1.767-9.532-4.265-13.198c-8.616-12.644-18.05-24.728-26.995-37.153
	c-4.174-5.798-10.623-7.739-16.55-10.638c-1.331-0.651-2.67-1.284-4.415-2.122c1.28-3.824,2.518-7.522,3.731-11.144
	c0.695,0.04,1.155-0.069,1.293,0.094c7.487,8.867,17.023,7.854,26.87,5.722c2.535-0.549,5.184-0.576,8.548-0.922
	c-1.466,4.719-2.97,8.593-3.774,12.608c-0.341,1.701,0.198,4.257,1.346,5.464c5.465,5.74,11.8,10.083,19.99,11.256
	c1.939,0.278,3.964,1.667,5.447,3.075c3.741,3.551,7.159,7.439,10.774,11.125c4.498,4.587,9.074,4.774,13.798,0.667
	c6.379-5.546,12.758-11.091,20.342-17.683c-2.132,10.385-3.949,19.233-5.764,28.082c-0.334,1.628-0.833,3.244-0.96,4.888
	c-0.879,11.354-6.348,20.581-14.002,28.433c-6.091,6.247-6.906,13.388-6.49,21.499c0.639,12.467,0.687,24.969,0.691,37.456
	c0,1.435-1.581,3.661-2.944,4.187c-27.186,10.498-54.762,11.355-82.716,3.141c-3.592-1.055-3.174-3.296-2.84-5.758
	c2.42-17.807,5.022-35.591,7.213-53.426c0.345-2.81-0.285-6.392-1.841-8.681c-16.106-23.69-32.402-47.253-48.902-70.67
	c-2.533-3.595-2.482-6.059-0.257-9.69c9.48-15.472,18.437-31.268,28.074-46.639c2.052-3.274,6.032-5.441,9.391-7.724
	c0.873-0.593,2.896-0.01,4.153,0.558c16.221,7.331,32.418,14.717,48.55,22.243c1.154,0.538,2.561,2.34,2.47,3.44
	c-0.49,5.929-1.415,11.822-2.213,17.9c-3.876,0.452-7.473,0.361-10.748,1.345c-11.186,3.363-19.13-0.784-25.431-9.883
	c-1.562-2.256-3.922-3.958-5.916-5.915C110.164,95.089,109.682,95.175,109.199,95.262z"/>
<path fill="#632576" d="M151.646,126.869c4.673-6.759,9.245-13.08,13.504-19.605c6.362-9.746,12.596-19.58,18.69-29.496
	c2.228-3.625,4.857-3.713,7.801-1.517c5.736,4.278,11.347,8.726,16.93,13.203c2.757,2.211,3.315,8.155,0.878,11.245
	c-9.588,12.156-19.237,24.267-29.081,36.215c-0.949,1.152-3.461,1.609-5.161,1.452C166.199,137.535,159.232,132.305,151.646,126.869
	z"/>
<path fill="#632576" d="M193.682,154.972c-5.778-0.717-7.973-5.102-10.725-8.625c-2.534-3.244-0.262-5.784,1.712-8.357
	c8.19-10.677,16.471-21.291,24.385-32.171c4.762-6.546,11.724-7.367,15.306,0.686c0.87,1.956,2.21,3.703,3.343,5.54
	c4.199,6.81,3.972,10.602-2.055,16.211c-9.118,8.487-18.532,16.659-27.913,24.858C196.597,154.108,194.881,154.442,193.682,154.972z
	"/>
<path fill="#632576" d="M185.214,64.162c-2.058,13.788-20.165,38.622-28.382,38.361c0.476-4.271,0.663-8.558,1.515-12.708
	c0.614-2.991-0.463-4.182-2.988-5.215c-4.757-1.946-9.405-4.159-14.768-6.561c5.266-8.883,10.102-17.736,15.805-25.99
	c0.971-1.405,6.184-1.269,8.531-0.07C171.861,55.519,178.342,59.949,185.214,64.162z"/>
<path fill="#632576" d="M106.898,64.204c7.082-10.753,13.854-21.204,20.897-31.47c0.705-1.027,3.149-1.51,4.616-1.258
	c8.686,1.489,14.17,8.352,20.847,13.153c0.906,0.651,0.774,4.262-0.145,5.683c-5.152,7.967-10.604,15.746-16.203,23.407
	c-0.764,1.046-3.249,1.896-4.379,1.444C124.065,71.776,115.74,68.038,106.898,64.204z"/>
</svg>
